<?xml version="1.0" encoding="utf-8"?>
<!-- Generator: Adobe Illustrator 27.1.1, SVG Export Plug-In . SVG Version: 6.00 Build 0)  -->
<svg version="1.1" xmlns="http://www.w3.org/2000/svg" xmlns:xlink="http://www.w3.org/1999/xlink" x="0px" y="0px"
	 viewBox="0 0 32 32" style="enable-background:new 0 0 32 32;" xml:space="preserve">
<style type="text/css">
	.st0{fill:#2FF3E0;}
	.st1{fill:#FFFFFF;}
	.st2{fill:#F8D210;}
</style>
<g id="Layer_2">
	<circle cx="16" cy="16" r="16"/>
</g>
<g id="Layer_1">
	<path class="st0" d="M1.99,2.91c0-0.29,0.1-0.54,0.32-0.75c0.21-0.21,0.46-0.32,0.75-0.32H8.6c0.06,0,0.12,0.01,0.15,0.02
		c0.03-0.02,0.1-0.02,0.18-0.02c0.06,0,0.12,0.01,0.15,0.02c0.03-0.02,0.1-0.02,0.18-0.02h5.54c0.29,0,0.54,0.1,0.75,0.32
		c0.21,0.22,0.32,0.46,0.32,0.75v5.22c0,0.29-0.1,0.54-0.32,0.75c-0.22,0.22-0.46,0.32-0.75,0.32c-0.29,0-0.54-0.1-0.75-0.32
		c-0.22-0.21-0.32-0.46-0.32-0.75V3.96H9.97v13.57h1.57c0.29,0,0.54,0.1,0.74,0.32c0.2,0.22,0.3,0.46,0.3,0.75
		c0,0.29-0.1,0.54-0.3,0.75c-0.2,0.22-0.45,0.32-0.74,0.32H6.31c-0.29,0-0.54-0.1-0.75-0.32c-0.22-0.21-0.32-0.46-0.32-0.75
		s0.1-0.54,0.32-0.75c0.21-0.21,0.46-0.32,0.75-0.32h1.55V3.96H4.1v4.17c0,0.29-0.1,0.54-0.3,0.75C3.59,9.1,3.35,9.21,3.06,9.21
		S2.52,9.1,2.31,8.89C2.09,8.68,1.99,8.42,1.99,8.13C1.99,8.13,1.99,2.91,1.99,2.91z"/>
	<path class="st1" d="M9.63,25.54h1.55V11.97H9.63c-0.29,0-0.54-0.1-0.75-0.3c-0.22-0.2-0.32-0.45-0.32-0.74s0.1-0.54,0.32-0.75
		c0.21-0.21,0.46-0.32,0.75-0.32h5.69c1.24,0,2.39,0.23,3.47,0.7c1.08,0.46,2.01,1.11,2.82,1.91c0.81,0.81,1.44,1.75,1.9,2.84
		c0.46,1.09,0.7,2.24,0.7,3.46c0,1.23-0.23,2.38-0.7,3.46c-0.46,1.09-1.1,2.04-1.9,2.84c-0.81,0.81-1.74,1.44-2.82,1.91
		c-1.08,0.46-2.23,0.7-3.47,0.7H9.63c-0.29,0-0.54-0.1-0.75-0.32c-0.22-0.21-0.32-0.46-0.32-0.75s0.1-0.54,0.32-0.75
		C9.1,25.65,9.34,25.54,9.63,25.54z M13.29,11.97v13.57h2.03c0.95,0,1.83-0.18,2.65-0.54c0.82-0.35,1.53-0.84,2.15-1.45
		c0.61-0.61,1.1-1.33,1.45-2.16s0.54-1.7,0.54-2.64c0-0.94-0.18-1.81-0.54-2.64c-0.35-0.83-0.84-1.55-1.45-2.16
		c-0.61-0.62-1.33-1.11-2.15-1.47c-0.82-0.36-1.7-0.54-2.65-0.54L13.29,11.97L13.29,11.97z"/>
	<path class="st2" d="M29.53,1.52c0.29,0,0.54,0.1,0.74,0.32c0.2,0.22,0.3,0.46,0.3,0.75v3.92c0,0.29-0.1,0.54-0.3,0.75
		c-0.2,0.22-0.45,0.32-0.74,0.32s-0.54-0.1-0.75-0.32c-0.22-0.21-0.32-0.46-0.32-0.75c0-0.39-0.11-0.76-0.33-1.11
		c-0.22-0.34-0.52-0.66-0.9-0.91c-0.38-0.26-0.82-0.47-1.34-0.62c-0.51-0.15-1.04-0.23-1.6-0.23s-1.1,0.08-1.6,0.23
		c-0.51,0.15-0.95,0.36-1.34,0.62s-0.68,0.57-0.9,0.91c-0.22,0.34-0.33,0.72-0.33,1.11c0,0.46,0.09,0.84,0.26,1.16
		c0.18,0.31,0.45,0.59,0.82,0.83c0.37,0.24,0.82,0.45,1.38,0.63c0.56,0.18,1.21,0.38,1.96,0.58c0.68,0.17,1.37,0.37,2.09,0.6
		c0.71,0.23,1.36,0.54,1.94,0.93c0.58,0.39,1.06,0.89,1.44,1.49c0.38,0.6,0.56,1.36,0.56,2.28c0,0.68-0.17,1.32-0.5,1.94
		c-0.33,0.61-0.78,1.15-1.34,1.59c-0.57,0.45-1.23,0.81-1.99,1.07C25.99,19.87,25.17,20,24.31,20c-0.74,0-1.47-0.1-2.17-0.32
		c-0.7-0.21-1.37-0.53-1.99-0.95v0.2c0,0.29-0.1,0.54-0.3,0.75C19.64,19.89,19.39,20,19.1,20s-0.54-0.1-0.75-0.32
		c-0.22-0.21-0.32-0.46-0.32-0.75v-3.91c0-0.29,0.1-0.54,0.32-0.75c0.21-0.21,0.46-0.32,0.75-0.32s0.54,0.1,0.74,0.32
		c0.2,0.22,0.3,0.46,0.3,0.75c0,0.39,0.11,0.76,0.33,1.11c0.22,0.34,0.52,0.65,0.9,0.91s0.82,0.46,1.34,0.61
		c0.51,0.15,1.04,0.23,1.6,0.23s1.1-0.08,1.6-0.23c0.5-0.15,0.95-0.35,1.34-0.61c0.38-0.26,0.68-0.55,0.9-0.91
		c0.22-0.34,0.33-0.71,0.33-1.11c0-0.46-0.09-0.85-0.26-1.17c-0.18-0.32-0.46-0.61-0.82-0.85c-0.38-0.25-0.83-0.46-1.38-0.65
		c-0.55-0.18-1.21-0.38-1.97-0.58c-0.66-0.18-1.34-0.39-2.05-0.61c-0.71-0.22-1.36-0.52-1.94-0.91c-0.58-0.38-1.06-0.87-1.44-1.47
		c-0.38-0.59-0.56-1.35-0.56-2.27c0-0.7,0.17-1.35,0.5-1.95c0.33-0.6,0.78-1.13,1.34-1.58s1.23-0.81,1.99-1.07
		c0.76-0.26,1.57-0.39,2.44-0.39c1.54,0,2.93,0.42,4.16,1.27v-0.2c0-0.29,0.1-0.54,0.32-0.75C28.99,1.62,29.24,1.52,29.53,1.52z"/>
	<g>
	</g>
	<g>
	</g>
	<g>
	</g>
	<g>
	</g>
	<g>
	</g>
	<g>
	</g>
	<g>
	</g>
	<g>
	</g>
	<g>
	</g>
	<g>
	</g>
	<g>
	</g>
	<g>
	</g>
	<g>
	</g>
	<g>
	</g>
	<g>
	</g>
</g>
</svg>
