<?xml version="1.0" encoding="utf-8"?>
<!-- Generator: Adobe Illustrator 27.1.1, SVG Export Plug-In . SVG Version: 6.00 Build 0)  -->
<svg version="1.1" xmlns="http://www.w3.org/2000/svg" xmlns:xlink="http://www.w3.org/1999/xlink" x="0px" y="0px"
	 viewBox="0 0 32 32" style="enable-background:new 0 0 32 32;" xml:space="preserve">
<style type="text/css">
	.st0{fill:#2FF3E0;}
	.st1{fill:#FFFFFF;}
	.st2{fill:#F8D210;}
</style>
<g id="Layer_2">
	<circle cx="16" cy="16" r="16"/>
</g>
<g id="Layer_1">
	<path class="st0" d="M1.62,10.38c0-0.18,0.06-0.33,0.2-0.47c0.13-0.13,0.29-0.2,0.47-0.2h3.44c0.04,0,0.07,0,0.09,0.01
		c0.02-0.01,0.06-0.01,0.11-0.01c0.04,0,0.07,0,0.09,0.01c0.02-0.01,0.06-0.01,0.11-0.01h3.44c0.18,0,0.33,0.06,0.47,0.2
		c0.13,0.13,0.2,0.29,0.2,0.47v3.25c0,0.18-0.06,0.33-0.2,0.47c-0.13,0.13-0.29,0.2-0.47,0.2c-0.18,0-0.33-0.06-0.47-0.2
		c-0.13-0.13-0.2-0.29-0.2-0.47v-2.59H6.58v8.43h0.98c0.18,0,0.33,0.06,0.46,0.2c0.12,0.13,0.19,0.29,0.19,0.47
		s-0.06,0.33-0.19,0.47c-0.12,0.13-0.28,0.2-0.46,0.2H4.3c-0.18,0-0.33-0.06-0.47-0.2c-0.13-0.13-0.2-0.29-0.2-0.47
		c0-0.18,0.06-0.33,0.2-0.47c0.13-0.13,0.29-0.2,0.47-0.2h0.96v-8.43H2.93v2.59c0,0.18-0.06,0.33-0.19,0.47
		c-0.12,0.13-0.28,0.2-0.46,0.2s-0.33-0.06-0.47-0.2c-0.13-0.13-0.2-0.29-0.2-0.47C1.62,13.63,1.62,10.38,1.62,10.38z"/>
	<path class="st1" d="M11.96,19.47h0.96v-8.43h-0.96c-0.18,0-0.33-0.06-0.47-0.19c-0.13-0.12-0.2-0.28-0.2-0.46
		c0-0.18,0.06-0.33,0.2-0.47c0.13-0.13,0.29-0.2,0.47-0.2h3.54c0.77,0,1.49,0.14,2.16,0.43c0.67,0.29,1.25,0.69,1.75,1.18
		c0.5,0.5,0.89,1.09,1.18,1.76c0.29,0.68,0.43,1.39,0.43,2.15c0,0.76-0.14,1.48-0.43,2.15c-0.29,0.68-0.69,1.26-1.18,1.76
		c-0.5,0.5-1.08,0.9-1.75,1.18c-0.67,0.29-1.39,0.43-2.16,0.43h-3.54c-0.18,0-0.33-0.06-0.47-0.2c-0.13-0.13-0.2-0.29-0.2-0.47
		c0-0.18,0.06-0.33,0.2-0.47C11.63,19.54,11.78,19.47,11.96,19.47z M14.24,11.04v8.43h1.26c0.59,0,1.14-0.11,1.65-0.33
		c0.51-0.22,0.95-0.52,1.34-0.9c0.38-0.38,0.68-0.83,0.9-1.34c0.22-0.51,0.33-1.06,0.33-1.64c0-0.58-0.11-1.12-0.33-1.64
		c-0.22-0.51-0.52-0.96-0.9-1.34s-0.82-0.69-1.34-0.91s-1.06-0.33-1.65-0.33L14.24,11.04L14.24,11.04z"/>
	<path class="st2" d="M29.29,9.52c0.18,0,0.33,0.06,0.46,0.2c0.12,0.13,0.19,0.29,0.19,0.47v2.43c0,0.18-0.06,0.33-0.19,0.47
		c-0.12,0.13-0.28,0.2-0.46,0.2c-0.18,0-0.33-0.06-0.47-0.2c-0.13-0.13-0.2-0.29-0.2-0.47c0-0.24-0.07-0.47-0.2-0.69
		c-0.14-0.21-0.32-0.41-0.56-0.57c-0.24-0.16-0.51-0.29-0.83-0.39c-0.32-0.09-0.65-0.14-0.99-0.14c-0.35,0-0.68,0.05-0.99,0.14
		c-0.32,0.09-0.59,0.22-0.83,0.39c-0.24,0.16-0.42,0.35-0.56,0.57c-0.14,0.21-0.2,0.45-0.2,0.69c0,0.28,0.05,0.52,0.16,0.72
		c0.11,0.19,0.28,0.37,0.51,0.51c0.23,0.15,0.51,0.28,0.86,0.39c0.35,0.11,0.75,0.24,1.22,0.36c0.42,0.1,0.85,0.23,1.3,0.37
		c0.44,0.14,0.84,0.33,1.21,0.58c0.36,0.24,0.66,0.55,0.89,0.93s0.35,0.85,0.35,1.41c0,0.42-0.1,0.82-0.31,1.2
		c-0.2,0.38-0.48,0.71-0.83,0.99c-0.35,0.28-0.76,0.5-1.24,0.66C27.09,20.92,26.58,21,26.05,21c-0.46,0-0.91-0.06-1.35-0.2
		c-0.44-0.13-0.85-0.33-1.24-0.59v0.12c0,0.18-0.06,0.33-0.19,0.47c-0.12,0.13-0.28,0.2-0.46,0.2c-0.18,0-0.33-0.06-0.47-0.2
		c-0.13-0.13-0.2-0.29-0.2-0.47V17.9c0-0.18,0.06-0.33,0.2-0.47c0.13-0.13,0.29-0.2,0.47-0.2c0.18,0,0.33,0.06,0.46,0.2
		c0.12,0.13,0.19,0.29,0.19,0.47c0,0.24,0.07,0.47,0.2,0.69c0.14,0.21,0.32,0.4,0.56,0.56c0.24,0.16,0.51,0.28,0.83,0.38
		c0.32,0.09,0.65,0.14,0.99,0.14s0.68-0.05,0.99-0.14c0.31-0.09,0.59-0.22,0.83-0.38c0.24-0.16,0.42-0.34,0.56-0.56
		c0.14-0.21,0.2-0.44,0.2-0.69c0-0.28-0.05-0.53-0.16-0.73s-0.28-0.38-0.51-0.53c-0.23-0.15-0.52-0.29-0.86-0.4
		c-0.34-0.11-0.75-0.24-1.22-0.36c-0.41-0.11-0.83-0.24-1.28-0.38c-0.44-0.14-0.84-0.32-1.21-0.56s-0.66-0.54-0.89-0.91
		c-0.23-0.37-0.35-0.84-0.35-1.41c0-0.43,0.1-0.84,0.31-1.21c0.2-0.37,0.48-0.7,0.83-0.98c0.35-0.28,0.76-0.5,1.24-0.66
		c0.47-0.16,0.98-0.24,1.51-0.24c0.96,0,1.82,0.26,2.59,0.79v-0.12c0-0.18,0.06-0.33,0.2-0.47C28.96,9.58,29.11,9.52,29.29,9.52z"/>
	<g>
	</g>
	<g>
	</g>
	<g>
	</g>
	<g>
	</g>
	<g>
	</g>
	<g>
	</g>
	<g>
	</g>
	<g>
	</g>
	<g>
	</g>
	<g>
	</g>
	<g>
	</g>
	<g>
	</g>
	<g>
	</g>
	<g>
	</g>
	<g>
	</g>
</g>
</svg>
