<?xml version="1.0" encoding="UTF-8" standalone="no"?>
<!DOCTYPE svg PUBLIC "-//W3C//DTD SVG 1.1//EN" "http://www.w3.org/Graphics/SVG/1.1/DTD/svg11.dtd">
<svg width="100%" height="100%" viewBox="0 0 1920 1080" version="1.1" xmlns="http://www.w3.org/2000/svg" xmlns:xlink="http://www.w3.org/1999/xlink" xml:space="preserve" xmlns:serif="http://www.serif.com/" style="fill-rule:evenodd;clip-rule:evenodd;stroke-linejoin:round;stroke-miterlimit:2;">
    <g id="Layer-1" serif:id="Layer 1" transform="matrix(2.02807,0,0,2.02807,-997.301,-522.483)">
        <g opacity="0.5">
            <g transform="matrix(-1,0,0,1,537.211,701.352)">
                <path d="M-713.789,39.412L-103.767,39.412L0,0L-713.789,0L-713.789,39.412Z" style="fill:rgb(0,177,255);fill-rule:nonzero;"/>
            </g>
        </g>
        <g opacity="0.54">
            <g transform="matrix(-1,0,0,1,505.212,693.352)">
                <path d="M-735.76,39.412L-103.766,39.412L0,0L-735.76,0L-735.76,39.412Z" style="fill:rgb(255,249,46);fill-rule:nonzero;"/>
            </g>
        </g>
        <g opacity="0.5">
            <g transform="matrix(-1,0,0,1,1132.67,326.014)">
                <path d="M-118.299,233.297L0,233.297L0,0L-118.299,126.077L-118.299,233.297Z" style="fill:rgb(0,177,255);fill-rule:nonzero;"/>
            </g>
        </g>
        <g opacity="0.54">
            <g transform="matrix(-1,0,0,1,1123.67,314.014)">
                <path d="M-118.299,233.297L0,233.297L0,0L-118.299,126.077L-118.299,233.297Z" style="fill:rgb(255,249,46);fill-rule:nonzero;"/>
            </g>
        </g>
        <g opacity="0.49">
            <g transform="matrix(1,0,0,1,564.111,424.628)">
                <path d="M0,-85.393L0,0L18.58,0C20.283,0 21.505,0.327 22.244,0.982C22.982,1.633 23.351,2.5 23.351,3.58C23.351,4.603 22.982,5.456 22.244,6.136C21.505,6.818 20.283,7.159 18.58,7.159L-25.824,7.159C-27.527,7.159 -28.749,6.818 -29.487,6.136C-30.226,5.456 -30.595,4.603 -30.595,3.58C-30.595,2.5 -30.226,1.633 -29.487,0.982C-28.749,0.327 -27.527,0 -25.824,0L-7.243,0L-7.243,-85.393L-36.56,-85.393L-36.56,-60.593C-36.56,-58.831 -36.887,-57.581 -37.541,-56.843C-38.195,-56.104 -39.063,-55.735 -40.139,-55.735C-41.163,-55.735 -42.016,-56.104 -42.695,-56.843C-43.377,-57.581 -43.719,-58.831 -43.719,-60.593L-43.719,-92.552L36.475,-92.552L36.475,-60.593C36.475,-58.831 36.148,-57.581 35.497,-56.843C34.842,-56.104 33.975,-55.735 32.896,-55.735C31.816,-55.735 30.949,-56.104 30.298,-56.843C29.644,-57.581 29.316,-58.831 29.316,-60.593L29.316,-85.393L0,-85.393Z" style="fill:rgb(0,177,255);fill-rule:nonzero;"/>
            </g>
            <g transform="matrix(1,0,0,1,638.866,383.721)">
                <path d="M0,-3.577L19.515,-3.577C25.765,-3.577 31.434,-4.715 36.518,-6.986C41.602,-9.26 45.296,-11.931 47.598,-14.998C49.899,-18.066 51.048,-21.19 51.048,-24.372C51.048,-29.146 48.646,-33.69 43.847,-38.008C39.046,-42.326 33.207,-44.485 26.333,-44.485L0,-44.485L0,-3.577ZM0,3.579L0,40.908L13.208,40.908C14.97,40.908 16.22,41.235 16.958,41.889C17.697,42.541 18.066,43.408 18.066,44.487C18.066,45.511 17.697,46.364 16.958,47.044C16.22,47.726 14.97,48.067 13.208,48.067L-16.791,48.067C-18.494,48.067 -19.715,47.726 -20.454,47.044C-21.192,46.364 -21.562,45.511 -21.562,44.487C-21.562,43.408 -21.192,42.541 -20.454,41.889C-19.715,41.235 -18.494,40.908 -16.791,40.908L-7.159,40.908L-7.159,-44.485L-16.791,-44.485C-18.494,-44.485 -19.715,-44.812 -20.454,-45.467C-21.192,-46.118 -21.562,-46.985 -21.562,-48.065C-21.562,-49.144 -21.192,-50.011 -20.454,-50.665C-19.715,-51.317 -18.494,-51.644 -16.791,-51.644L26.503,-51.644C35.424,-51.644 42.938,-48.817 49.046,-43.165C55.151,-37.511 58.208,-31.134 58.208,-24.031C58.208,-18.919 56.317,-14.103 52.539,-9.587C48.761,-5.07 42.441,-1.306 33.579,1.706C38.69,5.229 43.064,9.206 46.703,13.636C50.338,18.069 56.161,27.16 64.173,40.908L69.626,40.908C71.332,40.908 72.551,41.235 73.292,41.889C74.031,42.541 74.4,43.408 74.4,44.487C74.4,45.511 74.031,46.364 73.292,47.044C72.551,47.726 71.332,48.067 69.626,48.067L60.082,48.067C51.219,32.216 44.359,21.592 39.501,16.194C34.644,10.798 29.062,6.591 22.753,3.579L0,3.579Z" style="fill:rgb(0,177,255);fill-rule:nonzero;"/>
            </g>
            <g transform="matrix(1,0,0,1,784.606,372.557)">
                <path d="M0,18.751L-19.771,-33.321L-22.412,-33.321L-41.587,18.751L0,18.751ZM2.729,25.91L-44.314,25.91L-53.945,52.072L-40.223,52.072C-38.52,52.072 -37.297,52.399 -36.559,53.053C-35.821,53.705 -35.452,54.572 -35.452,55.651C-35.452,56.675 -35.821,57.528 -36.559,58.208C-37.297,58.89 -38.52,59.231 -40.223,59.231L-66.983,59.231C-68.689,59.231 -69.911,58.89 -70.649,58.208C-71.388,57.528 -71.757,56.675 -71.757,55.651C-71.757,54.572 -71.388,53.705 -70.649,53.053C-69.911,52.399 -68.689,52.072 -66.983,52.072L-61.446,52.072L-29.828,-33.321L-50.961,-33.321C-52.667,-33.321 -53.89,-33.648 -54.628,-34.303C-55.366,-34.954 -55.735,-35.821 -55.735,-36.901C-55.735,-37.98 -55.366,-38.847 -54.628,-39.501C-53.89,-40.153 -52.667,-40.48 -50.961,-40.48L-14.914,-40.48L20.029,52.072L25.569,52.072C27.272,52.072 28.494,52.399 29.232,53.053C29.971,53.705 30.34,54.572 30.34,55.651C30.34,56.675 29.971,57.528 29.232,58.208C28.494,58.89 27.272,59.231 25.569,59.231L-1.107,59.231C-2.869,59.231 -4.119,58.89 -4.857,58.208C-5.596,57.528 -5.965,56.675 -5.965,55.651C-5.965,54.572 -5.596,53.705 -4.857,53.053C-4.119,52.399 -2.869,52.072 -1.107,52.072L12.529,52.072L2.729,25.91Z" style="fill:rgb(0,177,255);fill-rule:nonzero;"/>
            </g>
            <g transform="matrix(1,0,0,1,870.695,332.077)">
                <path d="M0,99.711L-9.97,99.711L-46.02,7.159L-51.56,7.159C-52.866,7.159 -53.806,7.03 -54.371,6.776C-54.941,6.519 -55.408,6.093 -55.777,5.498C-56.149,4.899 -56.331,4.262 -56.331,3.579C-56.331,2.897 -56.149,2.259 -55.777,1.661C-55.408,1.065 -54.941,0.64 -54.371,0.383C-53.806,0.128 -52.866,0 -51.56,0L-24.884,0C-23.522,0 -22.571,0.128 -22.028,0.383C-21.492,0.64 -21.036,1.065 -20.667,1.661C-20.297,2.259 -20.113,2.897 -20.113,3.579C-20.113,4.262 -20.312,4.899 -20.708,5.498C-21.105,6.093 -21.576,6.519 -22.115,6.776C-22.655,7.03 -23.578,7.159 -24.884,7.159L-38.606,7.159L-5.37,92.552L-4.857,92.552L27.955,7.159L14.318,7.159C12.954,7.159 11.989,7.03 11.421,6.776C10.851,6.519 10.384,6.093 10.015,5.498C9.646,4.899 9.461,4.262 9.461,3.579C9.461,2.897 9.659,2.259 10.057,1.661C10.454,1.065 10.923,0.64 11.463,0.383C12.003,0.128 12.954,0 14.318,0L40.908,0C42.27,0 43.237,0.128 43.805,0.383C44.373,0.64 44.84,1.065 45.212,1.661C45.581,2.259 45.766,2.897 45.766,3.579C45.766,4.262 45.564,4.899 45.17,5.498C44.77,6.093 44.303,6.519 43.763,6.776C43.221,7.03 42.27,7.159 40.908,7.159L35.452,7.159L0,99.711Z" style="fill:rgb(0,177,255);fill-rule:nonzero;"/>
            </g>
            <g transform="matrix(1,0,0,1,970.588,424.628)">
                <path d="M0,-85.393L0,0L24.543,0C26.248,0 27.468,0.327 28.206,0.982C28.944,1.633 29.313,2.5 29.313,3.58C29.313,4.603 28.944,5.456 28.206,6.136C27.468,6.818 26.248,7.159 24.543,7.159L-31.705,7.159C-33.408,7.159 -34.63,6.818 -35.368,6.136C-36.106,5.456 -36.476,4.603 -36.476,3.58C-36.476,2.5 -36.106,1.633 -35.368,0.982C-34.63,0.327 -33.408,0 -31.705,0L-7.159,0L-7.159,-85.393L-31.705,-85.393C-33.408,-85.393 -34.63,-85.72 -35.368,-86.374C-36.106,-87.026 -36.476,-87.893 -36.476,-88.973C-36.476,-90.052 -36.106,-90.919 -35.368,-91.573C-34.63,-92.225 -33.408,-92.552 -31.705,-92.552L24.543,-92.552C26.248,-92.552 27.468,-92.225 28.206,-91.573C28.944,-90.919 29.313,-90.052 29.313,-88.973C29.313,-87.893 28.944,-87.026 28.206,-86.374C27.468,-85.72 26.248,-85.393 24.543,-85.393L0,-85.393Z" style="fill:rgb(0,177,255);fill-rule:nonzero;"/>
            </g>
            <g transform="matrix(1,0,0,1,1094.17,425.141)">
                <path d="M0,-85.906L0,-88.291C0,-89.997 0.324,-91.219 0.979,-91.958C1.633,-92.696 2.5,-93.065 3.579,-93.065C4.658,-93.065 5.525,-92.696 6.18,-91.958C6.829,-91.219 7.159,-89.997 7.159,-88.291L7.159,-70.055C7.159,-68.349 6.829,-67.127 6.18,-66.391C5.525,-65.65 4.658,-65.281 3.579,-65.281C2.556,-65.281 1.717,-65.622 1.062,-66.305C0.413,-66.987 0.056,-68.094 0,-69.63C-0.286,-74.401 -2.741,-78.691 -7.372,-82.497C-12.003,-86.303 -18.066,-88.207 -25.566,-88.207C-33.464,-88.207 -39.745,-86.174 -44.404,-82.114C-49.063,-78.05 -51.39,-73.262 -51.39,-67.753C-51.39,-64.912 -50.735,-62.328 -49.433,-59.998C-48.124,-57.669 -46.39,-55.779 -44.23,-54.33C-42.072,-52.881 -39.628,-51.718 -36.904,-50.837C-34.175,-49.956 -29.912,-49.033 -24.118,-48.069C-14.402,-46.477 -7.702,-44.858 -4.005,-43.211C0.939,-40.993 4.67,-37.925 7.203,-34.005C9.726,-30.084 10.995,-25.453 10.995,-20.114C10.995,-11.931 7.724,-4.957 1.19,0.81C-5.342,6.576 -14.146,9.46 -25.226,9.46C-37.67,9.46 -47.614,5.567 -55.054,-2.216L-55.054,1.872C-55.054,3.578 -55.384,4.801 -56.032,5.539C-56.687,6.277 -57.554,6.646 -58.633,6.646C-59.656,6.646 -60.504,6.277 -61.187,5.539C-61.869,4.801 -62.21,3.578 -62.21,1.872L-62.21,-17.899C-62.21,-19.658 -61.886,-20.908 -61.231,-21.647C-60.577,-22.385 -59.713,-22.757 -58.633,-22.757C-57.609,-22.757 -56.776,-22.416 -56.122,-21.733C-55.468,-21.051 -55.109,-19.944 -55.054,-18.408C-54.769,-13.181 -51.972,-8.425 -46.658,-4.135C-41.351,0.156 -34.202,2.301 -25.226,2.301C-16.248,2.301 -9.162,0.055 -3.96,-4.434C1.235,-8.919 3.836,-14.233 3.836,-20.368C3.836,-24.119 2.841,-27.458 0.85,-30.383C-1.136,-33.308 -4.089,-35.624 -8.01,-37.33C-10.739,-38.521 -16.422,-39.858 -25.058,-41.334C-36.932,-43.323 -45.483,-46.363 -50.708,-50.454C-55.938,-54.545 -58.549,-60.367 -58.549,-67.924C-58.549,-75.424 -55.552,-81.87 -49.556,-87.271C-43.565,-92.668 -35.651,-95.366 -25.824,-95.366C-15.823,-95.366 -7.216,-92.212 0,-85.906" style="fill:rgb(0,177,255);fill-rule:nonzero;"/>
            </g>
        </g>
        <g opacity="0.49">
            <g transform="matrix(1,0,0,1,539.658,459.809)">
                <path d="M0,85.393L25.994,85.393C32.015,85.393 37.653,83.435 42.91,79.515C48.165,75.594 52.114,70.89 54.756,65.409C57.399,59.927 58.719,54.513 58.719,49.172L58.719,36.218C58.719,31.789 58.009,27.84 56.588,24.372C54.544,19.318 51.646,14.517 47.896,9.97C45.85,7.472 42.837,5.185 38.861,3.11C34.884,1.038 30.594,0 25.994,0L0,0L0,85.393ZM-7.159,85.393L-7.159,0L-13.208,0C-14.914,0 -16.136,-0.327 -16.875,-0.982C-17.613,-1.633 -17.982,-2.5 -17.982,-3.58C-17.982,-4.659 -17.613,-5.526 -16.875,-6.18C-16.136,-6.832 -14.914,-7.159 -13.208,-7.159L25.312,-7.159C31.333,-7.159 36.831,-5.909 41.803,-3.409C46.772,-0.909 50.564,1.933 53.179,5.112C57.667,10.512 61.077,16.22 63.406,22.244C65.053,26.618 65.878,31.789 65.878,37.75L65.878,47.639C65.878,54.966 64.259,62.069 61.021,68.943C57.782,75.823 52.382,81.813 44.829,86.925C39.202,90.678 32.697,92.552 25.312,92.552L-13.208,92.552C-14.914,92.552 -16.136,92.21 -16.875,91.529C-17.613,90.846 -17.982,89.996 -17.982,88.972C-17.982,87.893 -17.613,87.026 -16.875,86.372C-16.136,85.723 -14.914,85.393 -13.208,85.393L-7.159,85.393Z" style="fill:rgb(0,177,255);fill-rule:nonzero;"/>
            </g>
            <g transform="matrix(1,0,0,1,636.427,500.801)">
                <path d="M0,3.409L0,44.401L55.053,44.401L55.053,23.264C55.053,21.564 55.38,20.339 56.035,19.601C56.686,18.863 57.553,18.493 58.633,18.493C59.712,18.493 60.579,18.863 61.233,19.601C61.885,20.339 62.212,21.564 62.212,23.264L62.212,51.56L-16.791,51.56C-18.494,51.56 -19.716,51.219 -20.454,50.537C-21.192,49.854 -21.562,49.004 -21.562,47.98C-21.562,46.901 -21.192,46.034 -20.454,45.38C-19.716,44.731 -18.494,44.401 -16.791,44.401L-7.159,44.401L-7.159,-40.992L-16.791,-40.992C-18.494,-40.992 -19.716,-41.319 -20.454,-41.973C-21.192,-42.625 -21.562,-43.492 -21.562,-44.571C-21.562,-45.651 -21.192,-46.518 -20.454,-47.172C-19.716,-47.824 -18.494,-48.151 -16.791,-48.151L58.462,-48.151L58.462,-23.522C58.462,-21.816 58.135,-20.594 57.483,-19.858C56.829,-19.117 55.962,-18.748 54.882,-18.748C53.803,-18.748 52.936,-19.117 52.285,-19.858C51.63,-20.594 51.303,-21.816 51.303,-23.522L51.303,-40.992L0,-40.992L0,-3.75L25.653,-3.75L25.653,-11.843C25.653,-13.549 25.991,-14.771 26.674,-15.509C27.356,-16.248 28.237,-16.62 29.316,-16.62C30.34,-16.62 31.19,-16.248 31.873,-15.509C32.555,-14.771 32.896,-13.549 32.896,-11.843L32.896,11.508C32.896,13.208 32.555,14.433 31.873,15.171C31.19,15.909 30.34,16.279 29.316,16.279C28.237,16.279 27.356,15.909 26.674,15.171C25.991,14.433 25.653,13.208 25.653,11.508L25.653,3.409L0,3.409Z" style="fill:rgb(0,177,255);fill-rule:nonzero;"/>
            </g>
            <g transform="matrix(1,0,0,1,784.5,545.714)">
                <path d="M0,-85.905L0,-88.29C0,-89.996 0.327,-91.218 0.981,-91.957C1.633,-92.695 2.5,-93.064 3.58,-93.064C4.659,-93.064 5.526,-92.695 6.177,-91.957C6.832,-91.218 7.159,-89.996 7.159,-88.29L7.159,-70.054C7.159,-68.348 6.832,-67.126 6.177,-66.391C5.526,-65.65 4.659,-65.28 3.58,-65.28C2.556,-65.28 1.717,-65.622 1.065,-66.304C0.411,-66.987 0.056,-68.094 0,-69.629C-0.286,-74.4 -2.741,-78.69 -7.372,-82.496C-12.003,-86.302 -18.069,-88.207 -25.566,-88.207C-33.464,-88.207 -39.742,-86.174 -44.401,-82.113C-49.06,-78.05 -51.39,-73.262 -51.39,-67.753C-51.39,-64.911 -50.738,-62.327 -49.429,-59.998C-48.124,-57.668 -46.39,-55.778 -44.23,-54.329C-42.072,-52.881 -39.63,-51.717 -36.901,-50.833C-34.174,-49.955 -29.912,-49.032 -24.118,-48.065C-14.402,-46.476 -7.699,-44.854 -4.005,-43.21C0.937,-40.995 4.673,-37.925 7.201,-34.004C9.729,-30.083 10.993,-25.452 10.993,-20.111C10.993,-11.933 7.727,-4.959 1.194,0.807C-5.342,6.574 -14.148,9.461 -25.225,9.461C-37.67,9.461 -47.611,5.567 -55.053,-2.218L-55.053,1.876C-55.053,3.576 -55.383,4.802 -56.035,5.54C-56.689,6.278 -57.556,6.647 -58.633,6.647C-59.656,6.647 -60.509,6.278 -61.191,5.54C-61.871,4.802 -62.212,3.576 -62.212,1.876L-62.212,-17.896C-62.212,-19.657 -61.888,-20.91 -61.233,-21.649C-60.579,-22.387 -59.712,-22.756 -58.633,-22.756C-57.612,-22.756 -56.773,-22.415 -56.119,-21.733C-55.467,-21.05 -55.112,-19.943 -55.053,-18.41C-54.771,-13.18 -51.974,-8.421 -46.661,-4.137C-41.347,0.159 -34.205,2.302 -25.225,2.302C-16.251,2.302 -9.162,0.058 -3.963,-4.433C1.236,-8.919 3.834,-14.232 3.834,-20.368C3.834,-24.121 2.841,-27.454 0.853,-30.385C-1.138,-33.31 -4.091,-35.626 -8.012,-37.326C-10.739,-38.523 -16.419,-39.854 -25.055,-41.336C-36.932,-43.322 -45.48,-46.364 -50.708,-50.453C-55.937,-54.542 -58.549,-60.367 -58.549,-67.923C-58.549,-75.424 -55.551,-81.869 -49.558,-87.27C-43.565,-92.667 -35.653,-95.366 -25.824,-95.366C-15.823,-95.366 -7.215,-92.211 0,-85.905" style="fill:rgb(0,177,255);fill-rule:nonzero;"/>
            </g>
            <g transform="matrix(1,0,0,1,861.667,545.202)">
                <path d="M0,-85.393L0,0L24.542,0C26.249,0 27.468,0.33 28.209,0.979C28.944,1.633 29.316,2.5 29.316,3.579C29.316,4.603 28.944,5.453 28.209,6.136C27.468,6.817 26.249,7.159 24.542,7.159L-31.705,7.159C-33.408,7.159 -34.63,6.817 -35.368,6.136C-36.106,5.453 -36.476,4.603 -36.476,3.579C-36.476,2.5 -36.106,1.633 -35.368,0.979C-34.63,0.33 -33.408,0 -31.705,0L-7.159,0L-7.159,-85.393L-31.705,-85.393C-33.408,-85.393 -34.63,-85.72 -35.368,-86.374C-36.106,-87.026 -36.476,-87.893 -36.476,-88.973C-36.476,-90.052 -36.106,-90.919 -35.368,-91.573C-34.63,-92.225 -33.408,-92.552 -31.705,-92.552L24.542,-92.552C26.249,-92.552 27.468,-92.225 28.209,-91.573C28.944,-90.919 29.316,-90.052 29.316,-88.973C29.316,-87.893 28.944,-87.026 28.209,-86.374C27.468,-85.72 26.249,-85.393 24.542,-85.393L0,-85.393Z" style="fill:rgb(0,177,255);fill-rule:nonzero;"/>
            </g>
            <g transform="matrix(1,0,0,1,996.098,490.149)">
                <path d="M0,25.225L0,55.903C-5.447,58.917 -10.893,61.189 -16.317,62.721C-21.743,64.259 -27.154,65.026 -32.552,65.026C-40.223,65.026 -46.971,63.89 -52.793,61.614C-58.618,59.343 -63.546,56.161 -67.579,52.072C-71.614,47.977 -74.751,43.408 -76.997,38.352C-79.24,33.296 -80.361,26.875 -80.361,19.089L-80.361,5.962C-80.361,-1.874 -78.418,-9.503 -74.525,-16.917C-70.632,-24.333 -65.308,-29.999 -58.545,-33.92C-51.784,-37.84 -44.429,-39.801 -36.472,-39.801C-24.939,-39.801 -15.196,-36.646 -7.24,-30.34C-7.24,-33.123 -7.142,-34.8 -6.943,-35.368C-6.745,-35.936 -6.331,-36.434 -5.705,-36.858C-5.078,-37.287 -4.373,-37.499 -3.579,-37.499C-2.55,-37.499 -1.7,-37.13 -1.018,-36.392C-0.335,-35.653 0,-34.431 0,-32.725L0,-16.533C0,-14.772 -0.335,-13.535 -1.018,-12.828C-1.7,-12.115 -2.55,-11.762 -3.579,-11.762C-4.541,-11.762 -5.357,-12.087 -6.007,-12.741C-6.658,-13.396 -7.014,-14.545 -7.069,-16.192C-7.41,-21.022 -10.551,-24.971 -16.488,-28.038C-22.425,-31.106 -28.888,-32.642 -35.876,-32.642C-42.468,-32.642 -48.419,-31.207 -53.73,-28.338C-59.043,-25.468 -63.999,-19.998 -68.602,-11.933C-71.67,-6.648 -73.202,-0.654 -73.202,6.052L-73.202,19.089C-73.202,30.963 -69.57,40.393 -62.296,47.385C-55.022,54.371 -44.994,57.867 -32.21,57.867C-27.896,57.867 -23.888,57.413 -20.193,56.501C-16.502,55.595 -12.185,54.001 -7.24,51.731L-7.24,25.225L-31.869,25.225C-33.575,25.225 -34.797,24.9 -35.536,24.246C-36.274,23.592 -36.643,22.725 -36.643,21.645C-36.643,20.566 -36.274,19.687 -35.536,19.005C-34.797,18.323 -33.575,17.982 -31.869,17.982L2.562,18.066C4.263,18.066 5.481,18.395 6.22,19.044C6.958,19.699 7.327,20.566 7.327,21.645C7.327,22.384 7.104,23.066 6.656,23.692C6.197,24.319 5.683,24.727 5.112,24.929C4.553,25.124 2.842,25.225 0,25.225" style="fill:rgb(0,177,255);fill-rule:nonzero;"/>
            </g>
            <g transform="matrix(1,0,0,1,1091.42,452.65)">
                <path d="M0,99.711L-9.201,99.711L-61.952,10.481L-61.952,92.552L-48.744,92.552C-46.988,92.552 -45.735,92.882 -44.997,93.53C-44.259,94.185 -43.89,95.052 -43.89,96.131C-43.89,97.154 -44.259,98.005 -44.997,98.688C-45.735,99.369 -46.988,99.711 -48.744,99.711L-75.079,99.711C-76.842,99.711 -78.089,99.369 -78.827,98.688C-79.565,98.005 -79.935,97.154 -79.935,96.131C-79.935,95.052 -79.565,94.185 -78.827,93.53C-78.089,92.882 -76.842,92.552 -75.079,92.552L-69.111,92.552L-69.111,7.159L-78.743,7.159C-80.449,7.159 -81.668,6.832 -82.406,6.177C-83.145,5.525 -83.514,4.659 -83.514,3.579C-83.514,2.5 -83.145,1.633 -82.406,0.979C-81.668,0.327 -80.449,0 -78.743,0L-59.995,0L-7.159,89.398L-7.159,7.159L-20.365,7.159C-22.07,7.159 -23.296,6.832 -24.034,6.177C-24.772,5.525 -25.142,4.659 -25.142,3.579C-25.142,2.5 -24.783,1.633 -24.073,0.979C-23.362,0.327 -22.127,0 -20.365,0L6.052,0C7.757,0 8.977,0.327 9.715,0.979C10.453,1.633 10.822,2.5 10.822,3.579C10.822,4.659 10.453,5.525 9.715,6.177C8.977,6.832 7.757,7.159 6.052,7.159L0,7.159L0,99.711Z" style="fill:rgb(0,177,255);fill-rule:nonzero;"/>
            </g>
        </g>
        <g opacity="0.49">
            <g transform="matrix(1,0,0,1,583.091,668.185)">
                <path d="M0,-85.907L0,-88.29C0,-89.995 0.327,-91.215 0.981,-91.953C1.633,-92.691 2.5,-93.066 3.58,-93.066C4.659,-93.066 5.526,-92.691 6.178,-91.953C6.832,-91.215 7.159,-89.995 7.159,-88.29L7.159,-70.053C7.159,-68.352 6.832,-67.128 6.178,-66.389C5.526,-65.651 4.659,-65.282 3.58,-65.282C2.556,-65.282 1.717,-65.623 1.065,-66.305C0.411,-66.988 0.056,-68.095 0,-69.628C-0.285,-74.404 -2.741,-78.689 -7.372,-82.498C-12.003,-86.303 -18.068,-88.206 -25.566,-88.206C-33.463,-88.206 -39.742,-86.176 -44.401,-82.117C-49.06,-78.052 -51.39,-73.263 -51.39,-67.755C-51.39,-64.913 -50.738,-62.329 -49.429,-59.997C-48.123,-57.67 -46.389,-55.779 -44.23,-54.331C-42.071,-52.883 -39.63,-51.719 -36.9,-50.835C-34.174,-49.957 -29.912,-49.034 -24.118,-48.066C-14.402,-46.478 -7.699,-44.856 -4.004,-43.212C0.937,-40.997 4.673,-37.927 7.201,-34.006C9.729,-30.085 10.993,-25.454 10.993,-20.112C10.993,-11.935 7.727,-4.961 1.194,0.806C-5.341,6.572 -14.148,9.458 -25.225,9.458C-37.669,9.458 -47.611,5.566 -55.053,-2.219L-55.053,1.874C-55.053,3.574 -55.383,4.8 -56.035,5.538C-56.689,6.277 -57.556,6.646 -58.632,6.646C-59.656,6.646 -60.509,6.277 -61.191,5.538C-61.871,4.8 -62.212,3.574 -62.212,1.874L-62.212,-17.897C-62.212,-19.659 -61.888,-20.912 -61.233,-21.65C-60.579,-22.388 -59.712,-22.758 -58.632,-22.758C-57.612,-22.758 -56.773,-22.417 -56.119,-21.734C-55.467,-21.052 -55.112,-19.944 -55.053,-18.412C-54.771,-13.182 -51.974,-8.423 -46.661,-4.138C-41.347,0.157 -34.205,2.299 -25.225,2.299C-16.25,2.299 -9.162,0.057 -3.963,-4.434C1.236,-8.921 3.834,-14.234 3.834,-20.369C3.834,-24.123 2.841,-27.456 0.853,-30.386C-1.138,-33.312 -4.091,-35.628 -8.012,-37.328C-10.739,-38.524 -16.418,-39.856 -25.054,-41.338C-36.931,-43.323 -45.48,-46.366 -50.707,-50.455C-55.937,-54.544 -58.549,-60.366 -58.549,-67.928C-58.549,-75.423 -55.551,-81.871 -49.558,-87.265C-43.564,-92.663 -35.653,-95.365 -25.823,-95.365C-15.823,-95.365 -7.215,-92.21 0,-85.907" style="fill:rgb(0,177,255);fill-rule:nonzero;"/>
            </g>
            <g transform="matrix(1,0,0,1,698.74,625.232)">
                <path d="M0,-0.001C0,-11.647 -3.381,-22.1 -10.143,-31.362C-16.905,-40.624 -25.653,-45.253 -36.392,-45.253C-46.448,-45.253 -55.042,-40.837 -62.17,-32.005C-69.302,-23.168 -72.867,-12.502 -72.867,-0.001C-72.867,13.293 -69.131,24.161 -61.659,32.595C-54.189,41.035 -45.766,45.252 -36.392,45.252C-25.653,45.252 -16.905,40.638 -10.143,31.404C-3.381,22.17 0,11.705 0,-0.001M7.243,-0.001C7.243,9.546 5.311,18.395 1.449,26.544C-2.417,34.698 -7.744,41.047 -14.531,45.594C-21.321,50.135 -28.609,52.411 -36.392,52.411C-47.925,52.411 -58.082,47.512 -66.857,37.707C-75.636,27.908 -80.026,15.341 -80.026,-0.001C-80.026,-15.399 -75.636,-27.983 -66.857,-37.755C-58.082,-47.523 -47.925,-52.412 -36.392,-52.412C-28.609,-52.412 -21.335,-50.141 -14.573,-45.594C-7.813,-41.047 -2.486,-34.718 1.407,-26.591C5.296,-18.464 7.243,-9.605 7.243,-0.001" style="fill:rgb(0,177,255);fill-rule:nonzero;"/>
            </g>
            <g transform="matrix(1,0,0,1,754.56,667.672)">
                <path d="M0,-85.394L0,0L47.555,0L47.555,-28.464C47.555,-30.17 47.896,-31.389 48.579,-32.127C49.261,-32.866 50.139,-33.235 51.222,-33.235C52.242,-33.235 53.095,-32.882 53.778,-32.172C54.46,-31.462 54.801,-30.226 54.801,-28.464L54.801,7.159L-24.288,7.159C-25.991,7.159 -27.213,6.817 -27.952,6.135C-28.69,5.453 -29.059,4.602 -29.059,3.579C-29.059,2.5 -28.69,1.632 -27.952,0.978C-27.213,0.33 -25.991,0 -24.288,0L-7.243,0L-7.243,-85.394L-24.288,-85.394C-25.991,-85.394 -27.213,-85.718 -27.952,-86.373C-28.69,-87.021 -29.059,-87.888 -29.059,-88.973C-29.059,-90.047 -28.69,-90.915 -27.952,-91.569C-27.213,-92.223 -25.991,-92.553 -24.288,-92.553L17.045,-92.553C18.751,-92.553 19.97,-92.223 20.711,-91.569C21.449,-90.915 21.818,-90.047 21.818,-88.973C21.818,-87.888 21.449,-87.021 20.711,-86.373C19.97,-85.718 18.751,-85.394 17.045,-85.394L0,-85.394Z" style="fill:rgb(0,177,255);fill-rule:nonzero;"/>
            </g>
            <g transform="matrix(1,0,0,1,906.342,670.484)">
                <path d="M0,-88.206L0,-28.379C0,-18.322 -3.353,-9.888 -10.056,-3.07C-16.76,3.748 -24.855,7.159 -34.344,7.159C-40.707,7.159 -46.361,5.767 -51.303,2.982C-56.247,0.202 -60.45,-4.02 -63.915,-9.676C-67.383,-15.324 -69.114,-21.56 -69.114,-28.379L-69.114,-88.206L-75.166,-88.206C-76.872,-88.206 -78.094,-88.53 -78.829,-89.185C-79.57,-89.833 -79.939,-90.7 -79.939,-91.785C-79.939,-92.859 -79.542,-93.77 -78.745,-94.509C-78.063,-95.08 -76.872,-95.365 -75.166,-95.365L-48.747,-95.365C-47.043,-95.365 -45.821,-95.035 -45.083,-94.381C-44.345,-93.727 -43.973,-92.859 -43.973,-91.785C-43.973,-90.7 -44.345,-89.833 -45.083,-89.185C-45.821,-88.53 -47.043,-88.206 -48.747,-88.206L-61.958,-88.206L-61.958,-28.379C-61.958,-20.481 -59.259,-13.775 -53.859,-8.267C-48.464,-2.757 -42.071,0 -34.686,0C-29.971,0 -25.667,-1.079 -21.774,-3.238C-17.884,-5.396 -14.475,-8.719 -11.547,-13.211C-8.622,-17.696 -7.159,-22.752 -7.159,-28.379L-7.159,-88.206L-20.367,-88.206C-22.073,-88.206 -23.295,-88.53 -24.031,-89.185C-24.771,-89.833 -25.141,-90.7 -25.141,-91.785C-25.141,-92.859 -24.771,-93.727 -24.031,-94.381C-23.295,-95.035 -22.073,-95.365 -20.367,-95.365L6.052,-95.365C7.758,-95.365 8.977,-95.035 9.715,-94.381C10.454,-93.727 10.826,-92.859 10.826,-91.785C10.826,-90.7 10.454,-89.833 9.715,-89.185C8.977,-88.53 7.758,-88.206 6.052,-88.206L0,-88.206Z" style="fill:rgb(0,177,255);fill-rule:nonzero;"/>
            </g>
            <g transform="matrix(1,0,0,1,979.976,667.672)">
                <path d="M0,-85.394L0,0L18.581,0C20.283,0 21.503,0.33 22.241,0.978C22.979,1.632 23.349,2.5 23.349,3.579C23.349,4.602 22.979,5.453 22.241,6.135C21.503,6.817 20.283,7.159 18.581,7.159L-25.823,7.159C-27.526,7.159 -28.749,6.817 -29.487,6.135C-30.225,5.453 -30.594,4.602 -30.594,3.579C-30.594,2.5 -30.225,1.632 -29.487,0.978C-28.749,0.33 -27.526,0 -25.823,0L-7.243,0L-7.243,-85.394L-36.559,-85.394L-36.559,-60.596C-36.559,-58.834 -36.886,-57.582 -37.541,-56.843C-38.195,-56.105 -39.062,-55.736 -40.139,-55.736C-41.162,-55.736 -42.015,-56.105 -42.695,-56.843C-43.377,-57.582 -43.718,-58.834 -43.718,-60.596L-43.718,-92.553L36.476,-92.553L36.476,-60.596C36.476,-58.834 36.151,-57.582 35.497,-56.843C34.843,-56.105 33.976,-55.736 32.896,-55.736C31.816,-55.736 30.95,-56.105 30.295,-56.843C29.646,-57.582 29.316,-58.834 29.316,-60.596L29.316,-85.394L0,-85.394Z" style="fill:rgb(0,177,255);fill-rule:nonzero;"/>
            </g>
            <g transform="matrix(1,0,0,1,1084.8,667.672)">
                <path d="M0,-85.394L0,0L24.543,0C26.249,0 27.468,0.33 28.206,0.978C28.944,1.632 29.313,2.5 29.313,3.579C29.313,4.602 28.944,5.453 28.206,6.135C27.468,6.817 26.249,7.159 24.543,7.159L-31.701,7.159C-33.407,7.159 -34.632,6.817 -35.37,6.135C-36.108,5.453 -36.478,4.602 -36.478,3.579C-36.478,2.5 -36.108,1.632 -35.37,0.978C-34.632,0.33 -33.407,0 -31.701,0L-7.159,0L-7.159,-85.394L-31.701,-85.394C-33.407,-85.394 -34.632,-85.718 -35.37,-86.373C-36.108,-87.021 -36.478,-87.888 -36.478,-88.973C-36.478,-90.047 -36.108,-90.915 -35.37,-91.569C-34.632,-92.223 -33.407,-92.553 -31.701,-92.553L24.543,-92.553C26.249,-92.553 27.468,-92.223 28.206,-91.569C28.944,-90.915 29.313,-90.047 29.313,-88.973C29.313,-87.888 28.944,-87.021 28.206,-86.373C27.468,-85.718 26.249,-85.394 24.543,-85.394L0,-85.394Z" style="fill:rgb(0,177,255);fill-rule:nonzero;"/>
            </g>
            <g transform="matrix(1,0,0,1,1222.43,625.232)">
                <path d="M0,-0.001C0,-11.647 -3.378,-22.1 -10.141,-31.362C-16.902,-40.624 -25.65,-45.253 -36.389,-45.253C-46.445,-45.253 -55.036,-40.837 -62.167,-32.005C-69.299,-23.168 -72.861,-12.502 -72.861,-0.001C-72.861,13.293 -69.131,24.161 -61.658,32.595C-54.187,41.035 -45.763,45.252 -36.389,45.252C-25.65,45.252 -16.902,40.638 -10.141,31.404C-3.378,22.17 0,11.705 0,-0.001M7.249,-0.001C7.249,9.546 5.313,18.395 1.448,26.544C-2.41,34.698 -7.741,41.047 -14.531,45.594C-21.321,50.135 -28.604,52.411 -36.389,52.411C-47.922,52.411 -58.079,47.512 -66.854,37.707C-75.636,27.908 -80.021,15.341 -80.021,-0.001C-80.021,-15.399 -75.636,-27.983 -66.854,-37.755C-58.079,-47.523 -47.922,-52.412 -36.389,-52.412C-28.604,-52.412 -21.332,-50.141 -14.57,-45.594C-7.808,-41.047 -2.483,-34.718 1.409,-26.591C5.297,-18.464 7.249,-9.605 7.249,-0.001" style="fill:rgb(0,177,255);fill-rule:nonzero;"/>
            </g>
            <g transform="matrix(1,0,0,1,1325.73,575.119)">
                <path d="M0,99.712L-9.201,99.712L-61.955,10.484L-61.955,92.553L-48.744,92.553C-46.988,92.553 -45.735,92.883 -44.997,93.531C-44.259,94.186 -43.89,95.053 -43.89,96.132C-43.89,97.155 -44.259,98.006 -44.997,98.689C-45.735,99.37 -46.988,99.712 -48.744,99.712L-75.082,99.712C-76.844,99.712 -78.092,99.37 -78.83,98.689C-79.568,98.006 -79.938,97.155 -79.938,96.132C-79.938,95.053 -79.568,94.186 -78.83,93.531C-78.092,92.883 -76.844,92.553 -75.082,92.553L-69.114,92.553L-69.114,7.159L-78.746,7.159C-80.451,7.159 -81.671,6.835 -82.409,6.181C-83.147,5.532 -83.517,4.665 -83.517,3.58C-83.517,2.506 -83.147,1.639 -82.409,0.984C-81.671,0.33 -80.451,0 -78.746,0L-59.998,0L-7.159,89.398L-7.159,7.159L-20.365,7.159C-22.07,7.159 -23.296,6.835 -24.034,6.181C-24.772,5.532 -25.142,4.665 -25.142,3.58C-25.142,2.506 -24.783,1.639 -24.073,0.984C-23.362,0.33 -22.127,0 -20.365,0L6.052,0C7.758,0 8.977,0.33 9.715,0.984C10.453,1.639 10.822,2.506 10.822,3.58C10.822,4.665 10.453,5.532 9.715,6.181C8.977,6.835 7.758,7.159 6.052,7.159L0,7.159L0,99.712Z" style="fill:rgb(0,177,255);fill-rule:nonzero;"/>
            </g>
            <g transform="matrix(1,0,0,1,1421,668.185)">
                <path d="M0,-85.907L0,-88.29C0,-89.995 0.324,-91.215 0.979,-91.953C1.633,-92.691 2.5,-93.066 3.58,-93.066C4.659,-93.066 5.526,-92.691 6.181,-91.953C6.829,-91.215 7.159,-89.995 7.159,-88.29L7.159,-70.053C7.159,-68.352 6.829,-67.128 6.181,-66.389C5.526,-65.651 4.659,-65.282 3.58,-65.282C2.556,-65.282 1.717,-65.623 1.062,-66.305C0.414,-66.988 0.056,-68.095 0,-69.628C-0.285,-74.404 -2.74,-78.689 -7.372,-82.498C-12.003,-86.303 -18.065,-88.206 -25.566,-88.206C-33.464,-88.206 -39.744,-86.176 -44.403,-82.117C-49.063,-78.052 -51.39,-73.263 -51.39,-67.755C-51.39,-64.913 -50.735,-62.329 -49.432,-59.997C-48.123,-57.67 -46.39,-55.779 -44.23,-54.331C-42.071,-52.883 -39.627,-51.719 -36.903,-50.835C-34.174,-49.957 -29.912,-49.034 -24.117,-48.066C-14.402,-46.478 -7.702,-44.856 -4.005,-43.212C0.939,-40.997 4.67,-37.927 7.204,-34.006C9.727,-30.085 10.996,-25.454 10.996,-20.112C10.996,-11.935 7.725,-4.961 1.191,0.806C-5.342,6.572 -14.145,9.458 -25.225,9.458C-37.67,9.458 -47.614,5.566 -55.053,-2.219L-55.053,1.874C-55.053,3.574 -55.383,4.8 -56.032,5.538C-56.687,6.277 -57.553,6.646 -58.633,6.646C-59.656,6.646 -60.506,6.277 -61.188,5.538C-61.871,4.8 -62.212,3.574 -62.212,1.874L-62.212,-17.897C-62.212,-19.659 -61.888,-20.912 -61.233,-21.65C-60.579,-22.388 -59.712,-22.758 -58.633,-22.758C-57.609,-22.758 -56.775,-22.417 -56.121,-21.734C-55.467,-21.052 -55.109,-19.944 -55.053,-18.412C-54.768,-13.182 -51.971,-8.423 -46.657,-4.138C-41.35,0.157 -34.202,2.299 -25.225,2.299C-16.248,2.299 -9.161,0.057 -3.96,-4.434C1.236,-8.921 3.837,-14.234 3.837,-20.369C3.837,-24.123 2.842,-27.456 0.851,-30.386C-1.136,-33.312 -4.089,-35.628 -8.01,-37.328C-10.738,-38.524 -16.421,-39.856 -25.057,-41.338C-36.932,-43.323 -45.483,-46.366 -50.707,-50.455C-55.937,-54.544 -58.549,-60.366 -58.549,-67.928C-58.549,-75.423 -55.551,-81.871 -49.555,-87.265C-43.564,-92.663 -35.65,-95.365 -25.823,-95.365C-15.823,-95.365 -7.215,-92.21 0,-85.907" style="fill:rgb(0,177,255);fill-rule:nonzero;"/>
            </g>
        </g>
        <g opacity="0.81">
            <g opacity="0.54">
                <g transform="matrix(1,0,0,1,559.134,417.566)">
                    <path d="M0,-85.389L-0.012,0.004L18.568,0.007C20.271,0.007 21.494,0.334 22.232,0.988C22.97,1.64 23.339,2.507 23.339,3.587C23.339,4.611 22.969,5.463 22.231,6.143C21.493,6.825 20.271,7.166 18.567,7.166L-25.836,7.159C-27.54,7.159 -28.762,6.818 -29.5,6.135C-30.238,5.456 -30.607,4.603 -30.607,3.579C-30.606,2.5 -30.237,1.633 -29.499,0.981C-28.761,0.327 -27.539,0 -25.835,0L-7.255,0.003L-7.243,-85.39L-36.559,-85.394L-36.563,-60.594C-36.563,-58.832 -36.891,-57.582 -37.545,-56.844C-38.199,-56.106 -39.066,-55.737 -40.143,-55.737C-41.167,-55.737 -42.02,-56.107 -42.699,-56.845C-43.381,-57.583 -43.722,-58.833 -43.722,-60.595L-43.717,-92.555L36.477,-92.543L36.472,-60.584C36.472,-58.822 36.145,-57.572 35.493,-56.834C34.838,-56.096 33.971,-55.727 32.892,-55.727C31.812,-55.727 30.945,-56.096 30.294,-56.835C29.64,-57.573 29.312,-58.823 29.313,-60.585L29.316,-85.385L0,-85.389Z" style="fill:rgb(255,249,46);fill-rule:nonzero;"/>
                </g>
            </g>
            <g opacity="0.54">
                <g transform="matrix(1,0,0,1,633.883,376.68)">
                    <path d="M0,-3.584L19.515,-3.581C25.765,-3.58 31.434,-4.718 36.518,-6.988C41.603,-9.261 45.297,-11.931 47.599,-14.998C49.901,-18.066 51.051,-21.189 51.051,-24.372C51.052,-29.146 48.65,-33.69 43.852,-38.009C39.051,-42.327 33.212,-44.487 26.338,-44.488L0.006,-44.492L0,-3.584ZM-0.001,3.573L-0.006,40.901L13.202,40.903C14.964,40.903 16.214,41.23 16.952,41.885C17.69,42.537 18.059,43.404 18.059,44.483C18.059,45.507 17.689,46.359 16.951,47.039C16.213,47.721 14.963,48.062 13.201,48.062L-16.798,48.058C-18.501,48.058 -19.723,47.716 -20.461,47.034C-21.199,46.354 -21.568,45.501 -21.568,44.478C-21.568,43.398 -21.199,42.531 -20.46,41.88C-19.722,41.226 -18.5,40.898 -16.797,40.898L-7.166,40.9L-7.153,-44.493L-16.785,-44.494C-18.488,-44.495 -19.71,-44.822 -20.448,-45.476C-21.186,-46.128 -21.555,-46.995 -21.555,-48.075C-21.555,-49.154 -21.186,-50.021 -20.447,-50.675C-19.709,-51.327 -18.487,-51.654 -16.784,-51.653L26.51,-51.647C35.431,-51.646 42.945,-48.817 49.052,-43.165C55.156,-37.509 58.211,-31.133 58.21,-24.03C58.21,-18.917 56.318,-14.102 52.54,-9.586C48.761,-5.07 42.44,-1.307 33.578,1.704C38.689,5.228 43.063,9.206 46.7,13.636C50.335,18.069 56.156,27.161 64.167,40.91L69.62,40.911C71.326,40.911 72.545,41.238 73.286,41.893C74.024,42.544 74.393,43.412 74.393,44.491C74.393,45.515 74.023,46.368 73.285,47.047C72.544,47.729 71.325,48.07 69.619,48.07L60.074,48.069C51.214,32.217 44.355,21.591 39.499,16.193C34.642,10.795 29.061,6.588 22.752,3.576L-0.001,3.573Z" style="fill:rgb(255,249,46);fill-rule:nonzero;"/>
                </g>
            </g>
            <g opacity="0.54">
                <g transform="matrix(1,0,0,1,779.622,365.526)">
                    <path d="M0,18.754L-19.764,-33.321L-22.404,-33.321L-41.588,18.748L0,18.754ZM2.729,25.914L-44.315,25.907L-53.95,52.067L-40.228,52.069C-38.524,52.069 -37.303,52.397 -36.564,53.051C-35.826,53.703 -35.457,54.57 -35.457,55.65C-35.458,56.673 -35.827,57.526 -36.565,58.206C-37.303,58.888 -38.525,59.229 -40.229,59.229L-66.989,59.225C-68.695,59.225 -69.917,58.883 -70.655,58.201C-71.393,57.521 -71.762,56.668 -71.762,55.645C-71.762,54.565 -71.393,53.698 -70.654,53.046C-69.916,52.392 -68.694,52.066 -66.988,52.066L-61.451,52.067L-29.821,-33.322L-50.955,-33.325C-52.66,-33.325 -53.882,-33.653 -54.621,-34.307C-55.359,-34.959 -55.728,-35.826 -55.728,-36.905C-55.728,-37.985 -55.358,-38.851 -54.62,-39.506C-53.881,-40.158 -52.659,-40.484 -50.953,-40.484L-14.906,-40.479L20.024,52.078L25.564,52.079C27.267,52.079 28.489,52.406 29.228,53.061C29.966,53.712 30.334,54.58 30.334,55.659C30.334,56.682 29.965,57.535 29.227,58.215C28.488,58.897 27.266,59.238 25.563,59.238L-1.113,59.234C-2.875,59.234 -4.125,58.893 -4.863,58.21C-5.602,57.53 -5.971,56.677 -5.97,55.654C-5.97,54.574 -5.601,53.708 -4.862,53.056C-4.124,52.401 -2.874,52.075 -1.112,52.075L12.524,52.077L2.729,25.914Z" style="fill:rgb(255,249,46);fill-rule:nonzero;"/>
                </g>
            </g>
            <g opacity="0.54">
                <g transform="matrix(1,0,0,1,865.705,325.055)">
                    <path d="M0,99.718L-9.97,99.717L-46.007,7.16L-51.547,7.159C-52.853,7.159 -53.793,7.03 -54.357,6.775C-54.928,6.518 -55.395,6.093 -55.764,5.497C-56.136,4.899 -56.318,4.261 -56.317,3.579C-56.317,2.896 -56.136,2.259 -55.764,1.66C-55.395,1.065 -54.927,0.64 -54.357,0.383C-53.792,0.128 -52.852,0 -51.546,0L-24.87,0.004C-23.508,0.004 -22.557,0.133 -22.015,0.387C-21.478,0.644 -21.022,1.07 -20.653,1.665C-20.284,2.264 -20.099,2.902 -20.099,3.584C-20.1,4.266 -20.298,4.904 -20.695,5.502C-21.092,6.098 -21.562,6.523 -22.102,6.78C-22.642,7.034 -23.565,7.163 -24.871,7.163L-38.593,7.161L-5.369,92.558L-4.857,92.558L27.967,7.17L14.332,7.168C12.967,7.168 12.002,7.039 11.434,6.785C10.864,6.527 10.397,6.102 10.028,5.507C9.659,4.908 9.474,4.27 9.474,3.588C9.474,2.905 9.673,2.268 10.07,1.67C10.467,1.074 10.937,0.649 11.477,0.392C12.017,0.137 12.968,0.009 14.333,0.009L40.922,0.013C42.284,0.013 43.251,0.142 43.819,0.396C44.387,0.654 44.854,1.079 45.226,1.675C45.595,2.273 45.779,2.911 45.779,3.593C45.779,4.276 45.578,4.913 45.183,5.511C44.783,6.107 44.316,6.532 43.776,6.789C43.234,7.044 42.283,7.172 40.921,7.172L35.465,7.171L0,99.718Z" style="fill:rgb(255,249,46);fill-rule:nonzero;"/>
                </g>
            </g>
            <g opacity="0.54">
                <g transform="matrix(1,0,0,1,965.611,417.627)">
                    <path d="M0,-85.392L-0.013,0.001L24.53,0.004C26.236,0.004 27.455,0.332 28.193,0.986C28.932,1.638 29.301,2.505 29.301,3.585C29.301,4.608 28.932,5.461 28.192,6.14C27.454,6.823 26.235,7.164 24.529,7.163L-31.718,7.155C-33.421,7.155 -34.643,6.814 -35.381,6.131C-36.12,5.452 -36.488,4.599 -36.488,3.575C-36.488,2.496 -36.119,1.629 -35.38,0.977C-34.642,0.323 -33.42,-0.004 -31.717,-0.004L-7.171,0L-7.16,-85.393L-31.705,-85.396C-33.408,-85.397 -34.63,-85.724 -35.368,-86.379C-36.106,-87.03 -36.476,-87.897 -36.475,-88.977C-36.475,-90.057 -36.106,-90.923 -35.368,-91.578C-34.629,-92.229 -33.407,-92.556 -31.704,-92.556L24.543,-92.548C26.249,-92.548 27.469,-92.22 28.207,-91.568C28.945,-90.914 29.313,-90.047 29.313,-88.968C29.313,-87.888 28.944,-87.021 28.206,-86.37C27.468,-85.715 26.248,-85.389 24.542,-85.389L0,-85.392Z" style="fill:rgb(255,249,46);fill-rule:nonzero;"/>
                </g>
            </g>
            <g opacity="0.54">
                <g transform="matrix(1,0,0,1,1089.19,418.149)">
                    <path d="M0,-85.897L0.001,-88.283C0.001,-89.989 0.325,-91.21 0.979,-91.949C1.635,-92.687 2.501,-93.056 3.581,-93.056C4.66,-93.056 5.527,-92.687 6.182,-91.948C6.83,-91.209 7.16,-89.987 7.16,-88.282L7.157,-70.045C7.157,-68.339 6.827,-67.117 6.178,-66.382C5.523,-65.641 4.656,-65.272 3.577,-65.272C2.554,-65.272 1.715,-65.613 1.061,-66.296C0.411,-66.979 0.054,-68.086 -0.002,-69.621C-0.286,-74.392 -2.741,-78.683 -7.372,-82.489C-12.003,-86.296 -18.065,-88.201 -25.565,-88.202C-33.463,-88.204 -39.744,-86.171 -44.404,-82.111C-49.063,-78.049 -51.391,-73.261 -51.392,-67.752C-51.393,-64.911 -50.738,-62.327 -49.436,-59.997C-48.127,-57.667 -46.394,-55.776 -44.234,-54.328C-42.076,-52.878 -39.632,-51.715 -36.908,-50.834C-34.179,-49.952 -29.917,-49.029 -24.122,-48.063C-14.407,-46.471 -7.707,-44.851 -4.011,-43.203C0.934,-40.984 4.664,-37.916 7.197,-33.995C9.719,-30.074 10.988,-25.442 10.987,-20.104C10.986,-11.921 7.713,-4.947 1.18,0.818C-5.354,6.584 -14.158,9.466 -25.238,9.465C-37.683,9.463 -47.627,5.569 -55.064,-2.215L-55.065,1.874C-55.065,3.579 -55.396,4.801 -56.044,5.54C-56.699,6.278 -57.565,6.646 -58.646,6.646C-59.669,6.646 -60.517,6.277 -61.198,5.539C-61.881,4.8 -62.222,3.578 -62.222,1.873L-62.219,-17.899C-62.219,-19.658 -61.894,-20.908 -61.239,-21.647C-60.585,-22.385 -59.721,-22.756 -58.642,-22.756C-57.618,-22.756 -56.784,-22.415 -56.13,-21.732C-55.476,-21.05 -55.118,-19.942 -55.063,-18.407C-54.777,-13.181 -51.981,-8.423 -46.669,-4.132C-41.361,0.158 -34.214,2.304 -25.237,2.306C-16.26,2.307 -9.174,0.062 -3.971,-4.426C1.226,-8.911 3.827,-14.224 3.828,-20.359C3.828,-24.109 2.833,-27.449 0.843,-30.374C-1.143,-33.3 -4.096,-35.616 -8.016,-37.322C-10.745,-38.514 -16.428,-39.852 -25.063,-41.329C-36.938,-43.319 -45.488,-46.36 -50.712,-50.453C-55.94,-54.544 -58.552,-60.367 -58.551,-67.924C-58.55,-75.424 -55.551,-81.87 -49.555,-87.269C-43.563,-92.666 -35.648,-95.363 -25.821,-95.362C-15.821,-95.36 -7.214,-92.205 0,-85.897" style="fill:rgb(255,249,46);fill-rule:nonzero;"/>
                </g>
            </g>
        </g>
        <g opacity="0.81">
            <g opacity="0.54">
                <g transform="matrix(1,0,0,1,534.652,452.75)">
                    <path d="M0,85.39L25.994,85.394C32.015,85.394 37.653,83.438 42.911,79.518C48.167,75.598 52.116,70.894 54.759,65.413C57.403,59.933 58.724,54.519 58.724,49.178L58.726,36.223C58.727,31.794 58.017,27.845 56.597,24.377C54.553,19.324 51.657,14.521 47.907,9.973C45.86,7.476 42.849,5.188 38.873,3.113C34.896,1.04 30.606,0.001 26.006,0.001L0.012,-0.003L0,85.39ZM-7.159,85.389L-7.147,-0.004L-13.196,-0.005C-14.902,-0.005 -16.124,-0.332 -16.862,-0.987C-17.601,-1.638 -17.97,-2.506 -17.969,-3.585C-17.969,-4.664 -17.6,-5.531 -16.862,-6.186C-16.123,-6.837 -14.901,-7.164 -13.195,-7.164L25.325,-7.158C31.346,-7.157 36.843,-5.907 41.815,-3.406C46.785,-0.905 50.576,1.937 53.19,5.117C57.678,10.517 61.086,16.226 63.415,22.25C65.062,26.624 65.886,31.795 65.885,37.757L65.884,47.646C65.883,54.973 64.262,62.076 61.023,68.95C57.784,75.828 52.383,81.818 44.829,86.929C39.201,90.682 32.696,92.554 25.311,92.553L-13.209,92.548C-14.915,92.547 -16.137,92.206 -16.875,91.523C-17.614,90.841 -17.982,89.991 -17.982,88.967C-17.982,87.888 -17.613,87.021 -16.875,86.367C-16.136,85.718 -14.914,85.388 -13.208,85.388L-7.159,85.389Z" style="fill:rgb(255,249,46);fill-rule:nonzero;"/>
                </g>
            </g>
            <g opacity="0.54">
                <g transform="matrix(1,0,0,1,631.427,493.759)">
                    <path d="M0,3.403L-0.006,44.395L55.047,44.403L55.05,23.266C55.05,21.566 55.378,20.341 56.032,19.603C56.684,18.864 57.551,18.496 58.63,18.496C59.71,18.496 60.577,18.865 61.231,19.604C61.883,20.342 62.209,21.567 62.209,23.267L62.206,51.563L-16.797,51.551C-18.5,51.551 -19.723,51.21 -20.461,50.528C-21.199,49.845 -21.568,48.995 -21.568,47.971C-21.567,46.892 -21.198,46.025 -20.46,45.371C-19.722,44.722 -18.5,44.392 -16.796,44.392L-7.165,44.394L-7.153,-40.999L-16.784,-41C-18.487,-41.001 -19.709,-41.328 -20.448,-41.983C-21.186,-42.634 -21.555,-43.501 -21.555,-44.581C-21.555,-45.66 -21.185,-46.527 -20.447,-47.181C-19.708,-47.833 -18.486,-48.16 -16.783,-48.16L58.469,-48.149L58.466,-23.52C58.465,-21.814 58.138,-20.592 57.486,-19.856C56.832,-19.116 55.965,-18.746 54.886,-18.746C53.806,-18.746 52.939,-19.116 52.288,-19.857C51.633,-20.593 51.306,-21.815 51.307,-23.521L51.309,-40.991L0.006,-40.998L0.001,-3.756L25.654,-3.753L25.655,-11.846C25.655,-13.552 25.994,-14.774 26.676,-15.512C27.359,-16.25 28.24,-16.622 29.319,-16.622C30.343,-16.622 31.193,-16.25 31.875,-15.512C32.557,-14.773 32.898,-13.551 32.898,-11.845L32.895,11.507C32.895,13.207 32.553,14.431 31.871,15.17C31.188,15.908 30.338,16.277 29.314,16.277C28.235,16.277 27.354,15.907 26.672,15.169C25.99,14.43 25.651,13.206 25.652,11.506L25.653,3.406L0,3.403Z" style="fill:rgb(255,249,46);fill-rule:nonzero;"/>
                </g>
            </g>
            <g opacity="0.54">
                <g transform="matrix(1,0,0,1,779.505,538.681)">
                    <path d="M0,-85.899L0,-88.284C0.001,-89.99 0.328,-91.212 0.982,-91.95C1.634,-92.689 2.501,-93.058 3.581,-93.057C4.66,-93.057 5.527,-92.688 6.179,-91.95C6.833,-91.211 7.16,-89.989 7.16,-88.283L7.157,-70.047C7.157,-68.341 6.83,-67.119 6.175,-66.383C5.523,-65.643 4.656,-65.274 3.577,-65.274C2.553,-65.274 1.714,-65.615 1.063,-66.297C0.409,-66.98 0.054,-68.087 -0.002,-69.623C-0.287,-74.394 -2.742,-78.684 -7.372,-82.491C-12.002,-86.297 -18.068,-88.203 -25.565,-88.204C-33.463,-88.205 -39.742,-86.173 -44.401,-82.113C-49.061,-78.05 -51.391,-73.263 -51.392,-67.753C-51.392,-64.912 -50.741,-62.328 -49.433,-59.999C-48.127,-57.669 -46.394,-55.778 -44.234,-54.329C-42.076,-52.88 -39.635,-51.716 -36.905,-50.833C-34.179,-49.954 -29.917,-49.03 -24.123,-48.062C-14.408,-46.472 -7.705,-44.849 -4.011,-43.204C0.931,-40.989 4.667,-37.918 7.194,-33.997C9.722,-30.075 10.985,-25.444 10.984,-20.103C10.983,-11.925 7.716,-4.951 1.182,0.814C-5.354,6.58 -14.161,9.465 -25.238,9.463C-37.683,9.461 -47.624,5.567 -55.064,-2.22L-55.065,1.874C-55.065,3.575 -55.396,4.8 -56.047,5.538C-56.702,6.276 -57.569,6.645 -58.646,6.645C-59.669,6.644 -60.522,6.275 -61.204,5.537C-61.884,4.799 -62.225,3.574 -62.225,1.873L-62.222,-17.898C-62.221,-19.66 -61.897,-20.913 -61.242,-21.651C-60.588,-22.389 -59.721,-22.758 -58.641,-22.758C-57.621,-22.758 -56.782,-22.417 -56.127,-21.734C-55.476,-21.052 -55.121,-19.944 -55.063,-18.412C-54.781,-13.182 -51.985,-8.422 -46.672,-4.137C-41.359,0.16 -34.217,2.303 -25.237,2.304C-16.263,2.305 -9.173,0.063 -3.974,-4.427C1.226,-8.912 3.824,-14.225 3.825,-20.361C3.826,-24.114 2.833,-27.447 0.845,-30.378C-1.146,-33.304 -4.098,-35.62 -8.019,-37.321C-10.745,-38.518 -16.425,-39.85 -25.061,-41.334C-36.937,-43.321 -45.486,-46.365 -50.712,-50.454C-55.941,-54.544 -58.552,-60.369 -58.551,-67.925C-58.55,-75.425 -55.551,-81.871 -49.558,-87.271C-43.563,-92.667 -35.652,-95.364 -25.822,-95.363C-15.821,-95.362 -7.214,-92.206 0,-85.899" style="fill:rgb(255,249,46);fill-rule:nonzero;"/>
                </g>
            </g>
            <g opacity="0.54">
                <g transform="matrix(1,0,0,1,856.674,538.185)">
                    <path d="M0,-85.392L-0.012,0.001L24.53,0.004C26.236,0.004 27.456,0.335 28.197,0.983C28.932,1.638 29.304,2.505 29.304,3.585C29.304,4.608 28.932,5.459 28.196,6.14C27.455,6.823 26.235,7.164 24.529,7.164L-31.718,7.156C-33.421,7.155 -34.643,6.814 -35.381,6.131C-36.119,5.449 -36.488,4.599 -36.488,3.575C-36.488,2.496 -36.119,1.629 -35.38,0.975C-34.642,0.326 -33.42,-0.004 -31.717,-0.004L-7.171,0L-7.159,-85.393L-31.705,-85.396C-33.408,-85.397 -34.63,-85.724 -35.368,-86.379C-36.106,-87.03 -36.475,-87.897 -36.475,-88.977C-36.475,-90.056 -36.105,-90.923 -35.367,-91.578C-34.629,-92.229 -33.407,-92.556 -31.704,-92.556L24.543,-92.548C26.25,-92.548 27.469,-92.22 28.209,-91.568C28.945,-90.914 29.317,-90.047 29.317,-88.968C29.316,-87.888 28.944,-87.021 28.209,-86.37C27.468,-85.715 26.249,-85.389 24.542,-85.389L0,-85.392Z" style="fill:rgb(255,249,46);fill-rule:nonzero;"/>
                </g>
            </g>
            <g opacity="0.54">
                <g transform="matrix(1,0,0,1,991.097,483.141)">
                    <path d="M0,25.235L-0.005,55.913C-5.453,58.927 -10.898,61.197 -16.323,62.729C-21.749,64.267 -27.16,65.032 -32.558,65.031C-40.229,65.03 -46.977,63.894 -52.799,61.616C-58.624,59.345 -63.551,56.162 -67.583,52.072C-71.618,47.978 -74.755,43.408 -77,38.351C-79.242,33.295 -80.362,26.874 -80.361,19.088L-80.359,5.961C-80.358,-1.875 -78.414,-9.503 -74.52,-16.917C-70.626,-24.332 -65.3,-29.997 -58.538,-33.917C-51.775,-37.837 -44.42,-39.797 -36.464,-39.795C-24.931,-39.794 -15.188,-36.638 -7.232,-30.33C-7.232,-33.113 -7.134,-34.791 -6.936,-35.359C-6.737,-35.927 -6.323,-36.424 -5.696,-36.849C-5.07,-37.277 -4.365,-37.49 -3.571,-37.489C-2.542,-37.489 -1.691,-37.12 -1.01,-36.382C-0.327,-35.643 0.008,-34.421 0.008,-32.715L0.006,-16.523C0.005,-14.761 -0.33,-13.525 -1.013,-12.818C-1.695,-12.105 -2.546,-11.752 -3.575,-11.753C-4.537,-11.753 -5.354,-12.077 -6.002,-12.732C-6.653,-13.386 -7.009,-14.536 -7.064,-16.183C-7.404,-21.013 -10.545,-24.962 -16.481,-28.03C-22.418,-31.099 -28.881,-32.635 -35.869,-32.636C-42.46,-32.637 -48.412,-31.203 -53.723,-28.335C-59.037,-25.466 -63.993,-19.997 -68.598,-11.932C-71.666,-6.647 -73.199,-0.655 -73.2,6.052L-73.202,19.089C-73.204,30.964 -69.572,40.394 -62.3,47.386C-55.027,54.373 -44.999,57.87 -32.216,57.872C-27.9,57.872 -23.894,57.42 -20.198,56.509C-16.507,55.604 -12.189,54.01 -7.244,51.74L-7.24,25.234L-31.87,25.231C-33.576,25.231 -34.798,24.906 -35.536,24.252C-36.274,23.597 -36.643,22.73 -36.643,21.651C-36.643,20.571 -36.274,19.693 -35.535,19.01C-34.797,18.328 -33.575,17.987 -31.869,17.987L2.563,18.076C4.263,18.077 5.481,18.407 6.22,19.056C6.958,19.71 7.327,20.577 7.327,21.657C7.327,22.395 7.104,23.077 6.655,23.704C6.197,24.33 5.683,24.738 5.111,24.94C4.553,25.135 2.841,25.235 0,25.235" style="fill:rgb(255,249,46);fill-rule:nonzero;"/>
                </g>
            </g>
            <g opacity="0.54">
                <g transform="matrix(1,0,0,1,1086.41,445.655)">
                    <path d="M0,99.722L-9.201,99.721L-61.939,10.484L-61.951,92.555L-48.743,92.556C-46.987,92.556 -45.734,92.887 -44.996,93.535C-44.258,94.19 -43.889,95.057 -43.889,96.137C-43.89,97.16 -44.259,98.01 -44.997,98.693C-45.735,99.374 -46.988,99.716 -48.744,99.715L-75.079,99.712C-76.842,99.711 -78.089,99.37 -78.827,98.688C-79.565,98.005 -79.934,97.155 -79.934,96.131C-79.934,95.052 -79.564,94.185 -78.826,93.531C-78.088,92.882 -76.841,92.553 -75.078,92.553L-69.11,92.554L-69.099,7.16L-78.729,7.159C-80.436,7.159 -81.655,6.832 -82.394,6.177C-83.132,5.526 -83.501,4.659 -83.5,3.579C-83.5,2.499 -83.131,1.633 -82.393,0.978C-81.654,0.327 -80.435,0 -78.729,0L-59.98,0.003L-7.158,89.408L-7.146,7.169L-20.352,7.167C-22.058,7.167 -23.282,6.84 -24.021,6.185C-24.759,5.534 -25.128,4.667 -25.128,3.587C-25.128,2.508 -24.77,1.641 -24.06,0.987C-23.349,0.335 -22.112,0.008 -20.351,0.008L6.065,0.012C7.771,0.013 8.99,0.34 9.729,0.992C10.467,1.646 10.836,2.513 10.836,3.592C10.836,4.672 10.467,5.539 9.729,6.19C8.989,6.845 7.771,7.172 6.064,7.171L0.013,7.17L0,99.722Z" style="fill:rgb(255,249,46);fill-rule:nonzero;"/>
                </g>
            </g>
        </g>
        <g opacity="0.81">
            <g opacity="0.54">
                <g transform="matrix(1,0,0,1,578.08,661.124)">
                    <path d="M0,-85.901L0,-88.283C0.001,-89.989 0.328,-91.209 0.982,-91.947C1.634,-92.685 2.501,-93.059 3.581,-93.059C4.66,-93.059 5.527,-92.684 6.179,-91.946C6.833,-91.208 7.16,-89.988 7.16,-88.282L7.157,-70.046C7.157,-68.345 6.83,-67.121 6.175,-66.382C5.523,-65.644 4.656,-65.275 3.577,-65.275C2.553,-65.276 1.714,-65.617 1.063,-66.299C0.409,-66.982 0.054,-68.089 -0.002,-69.622C-0.287,-74.398 -2.742,-78.683 -7.372,-82.493C-12.002,-86.299 -18.068,-88.202 -25.565,-88.203C-33.463,-88.204 -39.742,-86.174 -44.401,-82.118C-49.061,-78.052 -51.391,-73.264 -51.392,-67.755C-51.392,-64.914 -50.741,-62.33 -49.433,-59.998C-48.127,-57.671 -46.394,-55.78 -44.234,-54.331C-42.076,-52.882 -39.635,-51.718 -36.905,-50.835C-34.179,-49.956 -29.917,-49.032 -24.123,-48.064C-14.408,-46.474 -7.705,-44.851 -4.011,-43.206C0.931,-40.991 4.667,-37.92 7.194,-33.999C9.722,-30.077 10.985,-25.446 10.984,-20.104C10.983,-11.927 7.716,-4.953 1.182,0.813C-5.354,6.578 -14.161,9.463 -25.238,9.461C-37.683,9.459 -47.624,5.565 -55.064,-2.221L-55.065,1.872C-55.065,3.573 -55.396,4.798 -56.047,5.537C-56.702,6.275 -57.569,6.643 -58.646,6.643C-59.669,6.643 -60.522,6.274 -61.204,5.536C-61.884,4.797 -62.225,3.572 -62.225,1.871L-62.222,-17.9C-62.221,-19.662 -61.897,-20.915 -61.242,-21.653C-60.588,-22.391 -59.721,-22.76 -58.641,-22.759C-57.621,-22.759 -56.782,-22.419 -56.127,-21.736C-55.476,-21.053 -55.121,-19.946 -55.063,-18.414C-54.781,-13.184 -51.985,-8.423 -46.672,-4.138C-41.359,0.158 -34.217,2.301 -25.237,2.302C-16.263,2.303 -9.173,0.062 -3.974,-4.429C1.226,-8.914 3.824,-14.227 3.825,-20.363C3.826,-24.116 2.833,-27.45 0.845,-30.38C-1.146,-33.306 -4.098,-35.622 -8.019,-37.323C-10.745,-38.52 -16.425,-39.852 -25.061,-41.336C-36.937,-43.323 -45.486,-46.367 -50.712,-50.456C-55.941,-54.546 -58.552,-60.368 -58.551,-67.929C-58.55,-75.424 -55.551,-81.873 -49.558,-87.266C-43.563,-92.664 -35.652,-95.364 -25.822,-95.362C-15.821,-95.361 -7.214,-92.205 0,-85.901" style="fill:rgb(255,249,46);fill-rule:nonzero;"/>
                </g>
            </g>
            <g opacity="0.54">
                <g transform="matrix(1,0,0,1,693.723,618.183)">
                    <path d="M0,0.008C0.001,-11.637 -3.378,-22.091 -10.139,-31.353C-16.899,-40.617 -25.646,-45.246 -36.385,-45.248C-46.442,-45.249 -55.036,-40.835 -62.166,-32.005C-69.298,-23.168 -72.865,-12.503 -72.867,-0.002C-72.869,13.293 -69.134,24.16 -61.663,32.596C-54.195,41.037 -45.772,45.256 -36.398,45.257C-25.659,45.259 -16.911,40.646 -10.148,31.412C-3.384,22.179 -0.002,11.715 0,0.008M7.243,0.009C7.242,9.557 5.308,18.404 1.445,26.554C-2.421,34.707 -7.75,41.055 -14.538,45.602C-21.328,50.142 -28.616,52.417 -36.399,52.416C-47.932,52.414 -58.088,47.514 -66.863,37.707C-75.64,27.907 -80.029,15.339 -80.026,-0.003C-80.024,-15.401 -75.632,-27.985 -66.852,-37.755C-58.075,-47.521 -47.917,-52.409 -36.384,-52.407C-28.602,-52.406 -21.328,-50.135 -14.566,-45.586C-7.808,-41.038 -2.481,-34.709 1.41,-26.581C5.299,-18.454 7.244,-9.594 7.243,0.009" style="fill:rgb(255,249,46);fill-rule:nonzero;"/>
                </g>
            </g>
            <g opacity="0.54">
                <g transform="matrix(1,0,0,1,749.548,660.644)">
                    <path d="M0,-85.397L-0.012,-0.003L47.543,0.002L47.547,-28.46C47.547,-30.167 47.889,-31.385 48.571,-32.124C49.254,-32.862 50.132,-33.231 51.214,-33.231C52.235,-33.231 53.088,-32.878 53.77,-32.168C54.453,-31.458 54.793,-30.221 54.793,-28.459L54.788,7.163L-24.301,7.152C-26.004,7.152 -27.227,6.81 -27.964,6.127C-28.703,5.446 -29.072,4.595 -29.072,3.572C-29.071,2.492 -28.702,1.625 -27.964,0.971C-27.226,0.323 -26.003,-0.007 -24.3,-0.007L-7.255,-0.005L-7.243,-85.398L-24.288,-85.4C-25.991,-85.401 -27.213,-85.725 -27.952,-86.379C-28.689,-87.029 -29.059,-87.895 -29.059,-88.98C-29.059,-90.054 -28.689,-90.921 -27.951,-91.576C-27.212,-92.23 -25.99,-92.56 -24.287,-92.559L17.046,-92.553C18.752,-92.553 19.971,-92.223 20.712,-91.569C21.45,-90.915 21.819,-90.047 21.819,-88.973C21.819,-87.888 21.45,-87.021 20.711,-86.373C19.97,-85.718 18.751,-85.394 17.045,-85.394L0,-85.397Z" style="fill:rgb(255,249,46);fill-rule:nonzero;"/>
                </g>
            </g>
            <g opacity="0.54">
                <g transform="matrix(1,0,0,1,901.331,663.461)">
                    <path d="M0,-88.192L-0.009,-28.365C-0.01,-18.308 -3.364,-9.875 -10.068,-3.057C-16.773,3.759 -24.87,7.17 -34.358,7.168C-40.72,7.167 -46.375,5.775 -51.316,2.989C-56.26,0.207 -60.462,-4.015 -63.927,-9.671C-67.394,-15.32 -69.124,-21.557 -69.123,-28.375L-69.114,-88.202L-75.166,-88.203C-76.872,-88.203 -78.094,-88.527 -78.829,-89.181C-79.57,-89.831 -79.939,-90.698 -79.939,-91.783C-79.939,-92.856 -79.542,-93.768 -78.745,-94.506C-78.062,-95.077 -76.871,-95.362 -75.165,-95.362L-48.746,-95.358C-47.043,-95.358 -45.821,-95.027 -45.083,-94.373C-44.344,-93.718 -43.973,-92.851 -43.973,-91.778C-43.973,-90.693 -44.345,-89.826 -45.083,-89.177C-45.822,-88.523 -47.044,-88.199 -48.747,-88.199L-61.958,-88.201L-61.966,-28.374C-61.967,-20.476 -59.27,-13.77 -53.87,-8.259C-48.477,-2.75 -42.084,0.008 -34.698,0.009C-29.983,0.01 -25.679,-1.069 -21.786,-3.227C-17.896,-5.385 -14.486,-8.708 -11.558,-13.198C-8.632,-17.683 -7.168,-22.74 -7.168,-28.366L-7.159,-88.193L-20.368,-88.195C-22.073,-88.195 -23.295,-88.519 -24.031,-89.174C-24.772,-89.823 -25.141,-90.69 -25.141,-91.775C-25.141,-92.849 -24.771,-93.715 -24.03,-94.37C-23.294,-95.024 -22.072,-95.354 -20.366,-95.354L6.053,-95.35C7.758,-95.35 8.978,-95.02 9.716,-94.365C10.454,-93.711 10.826,-92.843 10.826,-91.77C10.826,-90.685 10.454,-89.818 9.715,-89.17C8.977,-88.515 7.757,-88.191 6.052,-88.191L0,-88.192Z" style="fill:rgb(255,249,46);fill-rule:nonzero;"/>
                </g>
            </g>
            <g opacity="0.54">
                <g transform="matrix(1,0,0,1,974.965,660.669)">
                    <path d="M0,-85.39L-0.012,0.003L18.568,0.006C20.271,0.006 21.49,0.336 22.229,0.985C22.967,1.639 23.336,2.506 23.336,3.586C23.336,4.609 22.967,5.46 22.228,6.141C21.489,6.824 20.271,7.165 18.567,7.165L-25.836,7.158C-27.54,7.158 -28.762,6.817 -29.5,6.134C-30.238,5.452 -30.607,4.601 -30.607,3.578C-30.607,2.499 -30.238,1.631 -29.499,0.977C-28.761,0.329 -27.539,-0.001 -25.835,-0.001L-7.255,0.002L-7.243,-85.391L-36.56,-85.395L-36.563,-60.598C-36.563,-58.836 -36.891,-57.583 -37.545,-56.845C-38.2,-56.107 -39.066,-55.739 -40.143,-55.739C-41.167,-55.739 -42.02,-56.108 -42.699,-56.846C-43.381,-57.584 -43.723,-58.837 -43.722,-60.599L-43.718,-92.555L36.477,-92.544L36.472,-60.588C36.472,-58.827 36.147,-57.574 35.492,-56.835C34.838,-56.097 33.971,-55.728 32.892,-55.728C31.812,-55.728 30.945,-56.097 30.291,-56.835C29.643,-57.575 29.312,-58.828 29.312,-60.589L29.316,-85.386L0,-85.39Z" style="fill:rgb(255,249,46);fill-rule:nonzero;"/>
                </g>
            </g>
            <g opacity="0.54">
                <g transform="matrix(1,0,0,1,1079.79,660.686)">
                    <path d="M0,-85.392L-0.012,0.001L24.53,0.004C26.236,0.004 27.456,0.335 28.194,0.984C28.933,1.638 29.301,2.505 29.301,3.585C29.301,4.608 28.932,5.459 28.193,6.14C27.455,6.823 26.235,7.164 24.529,7.164L-31.715,7.156C-33.421,7.156 -34.646,6.814 -35.384,6.131C-36.122,5.449 -36.491,4.599 -36.491,3.576C-36.49,2.496 -36.121,1.629 -35.383,0.975C-34.645,0.326 -33.42,-0.003 -31.714,-0.003L-7.171,0L-7.159,-85.393L-31.702,-85.397C-33.407,-85.397 -34.633,-85.721 -35.371,-86.375C-36.108,-87.025 -36.478,-87.892 -36.478,-88.977C-36.478,-90.05 -36.108,-90.917 -35.37,-91.572C-34.632,-92.226 -33.406,-92.556 -31.7,-92.556L24.544,-92.547C26.25,-92.547 27.469,-92.217 28.207,-91.563C28.945,-90.909 29.314,-90.041 29.314,-88.967C29.313,-87.882 28.944,-87.015 28.206,-86.367C27.468,-85.712 26.249,-85.388 24.543,-85.388L0,-85.392Z" style="fill:rgb(255,249,46);fill-rule:nonzero;"/>
                </g>
            </g>
            <g opacity="0.54">
                <g transform="matrix(1,0,0,1,1217.41,618.258)">
                    <path d="M0,0.008C0.002,-11.637 -3.375,-22.091 -10.136,-31.354C-16.896,-40.617 -25.644,-45.247 -36.382,-45.248C-46.438,-45.25 -55.03,-40.835 -62.162,-32.005C-69.295,-23.169 -72.859,-12.503 -72.861,-0.002C-72.863,13.293 -69.134,24.16 -61.663,32.596C-54.191,41.037 -45.769,45.255 -36.395,45.257C-25.656,45.258 -16.907,40.646 -10.145,31.412C-3.381,22.179 -0.001,11.714 0,0.008M7.249,0.009C7.248,9.557 5.312,18.404 1.445,26.553C-2.415,34.707 -7.746,41.055 -14.537,45.601C-21.327,50.142 -28.61,52.417 -36.396,52.416C-47.929,52.414 -58.085,47.514 -66.859,37.707C-75.64,27.907 -80.022,15.339 -80.021,-0.003C-80.018,-15.401 -75.631,-27.985 -66.849,-37.755C-58.071,-47.522 -47.914,-52.409 -36.381,-52.407C-28.596,-52.406 -21.324,-50.135 -14.563,-45.586C-7.802,-41.038 -2.478,-34.709 1.414,-26.581C5.3,-18.454 7.25,-9.595 7.249,0.009" style="fill:rgb(255,249,46);fill-rule:nonzero;"/>
                </g>
            </g>
            <g opacity="0.54">
                <g transform="matrix(1,0,0,1,1320.7,568.157)">
                    <path d="M0,99.723L-9.201,99.722L-61.942,10.488L-61.954,92.555L-48.743,92.557C-46.987,92.557 -45.734,92.888 -44.996,93.536C-44.258,94.191 -43.889,95.058 -43.889,96.137C-43.889,97.16 -44.258,98.011 -44.996,98.694C-45.735,99.375 -46.988,99.716 -48.744,99.716L-75.082,99.712C-76.844,99.712 -78.091,99.371 -78.829,98.689C-79.567,98.006 -79.937,97.156 -79.937,96.132C-79.937,95.053 -79.567,94.186 -78.828,93.532C-78.09,92.883 -76.843,92.553 -75.081,92.553L-69.113,92.554L-69.102,7.161L-78.732,7.16C-80.438,7.16 -81.657,6.835 -82.396,6.181C-83.134,5.532 -83.503,4.664 -83.503,3.579C-83.503,2.506 -83.134,1.639 -82.396,0.985C-81.656,0.33 -80.438,0 -78.731,0.001L-59.983,0.003L-7.158,89.409L-7.146,7.17L-20.352,7.168C-22.058,7.168 -23.282,6.843 -24.021,6.189C-24.759,5.54 -25.128,4.673 -25.128,3.588C-25.127,2.514 -24.77,1.647 -24.059,0.993C-23.349,0.338 -22.112,0.009 -20.351,0.009L6.065,0.013C7.771,0.013 8.991,0.343 9.729,0.997C10.468,1.653 10.836,2.519 10.836,3.593C10.836,4.678 10.467,5.545 9.729,6.194C8.99,6.848 7.771,7.172 6.064,7.172L0.013,7.171L0,99.723Z" style="fill:rgb(255,249,46);fill-rule:nonzero;"/>
                </g>
            </g>
            <g opacity="0.54">
                <g transform="matrix(1,0,0,1,1415.99,661.242)">
                    <path d="M0,-85.9L0,-88.283C0,-89.989 0.325,-91.208 0.979,-91.946C1.634,-92.684 2.501,-93.059 3.58,-93.059C4.66,-93.059 5.526,-92.684 6.181,-91.946C6.83,-91.208 7.159,-89.988 7.159,-88.282L7.156,-70.046C7.156,-68.345 6.826,-67.121 6.178,-66.382C5.522,-65.644 4.656,-65.275 3.576,-65.275C2.553,-65.275 1.714,-65.617 1.06,-66.299C0.411,-66.981 0.053,-68.089 -0.003,-69.622C-0.287,-74.398 -2.742,-78.683 -7.372,-82.493C-12.003,-86.299 -18.065,-88.202 -25.566,-88.203C-33.464,-88.204 -39.745,-86.174 -44.404,-82.117C-49.064,-78.051 -51.392,-73.264 -51.393,-67.755C-51.393,-64.914 -50.739,-62.33 -49.436,-59.997C-48.128,-57.671 -46.394,-55.78 -44.235,-54.331C-42.076,-52.881 -39.633,-51.718 -36.908,-50.834C-34.18,-49.956 -29.918,-49.032 -24.123,-48.063C-14.408,-46.473 -7.708,-44.851 -4.011,-43.206C0.933,-40.99 4.663,-37.92 7.196,-33.998C9.718,-30.077 10.987,-25.446 10.986,-20.104C10.985,-11.927 7.712,-4.953 1.179,0.813C-5.354,6.579 -14.159,9.463 -25.238,9.461C-37.684,9.459 -47.627,5.566 -55.065,-2.221L-55.065,1.873C-55.066,3.574 -55.396,4.798 -56.045,5.537C-56.699,6.275 -57.566,6.644 -58.646,6.644C-59.67,6.643 -60.52,6.274 -61.202,5.536C-61.884,4.797 -62.226,3.573 -62.225,1.872L-62.222,-17.9C-62.222,-19.662 -61.897,-20.915 -61.243,-21.652C-60.588,-22.39 -59.722,-22.759 -58.642,-22.759C-57.618,-22.759 -56.785,-22.418 -56.131,-21.736C-55.477,-21.053 -55.118,-19.946 -55.063,-18.413C-54.778,-13.183 -51.982,-8.423 -46.67,-4.138C-41.362,0.158 -34.215,2.301 -25.237,2.302C-16.261,2.304 -9.174,0.062 -3.972,-4.428C1.225,-8.914 3.826,-14.227 3.827,-20.363C3.828,-24.116 2.833,-27.449 0.842,-30.38C-1.144,-33.305 -4.096,-35.622 -8.017,-37.323C-10.746,-38.52 -16.429,-39.852 -25.063,-41.336C-36.938,-43.322 -45.489,-46.366 -50.713,-50.456C-55.941,-54.545 -58.553,-60.368 -58.552,-67.929C-58.551,-75.424 -55.552,-81.873 -49.555,-87.266C-43.564,-92.663 -35.649,-95.363 -25.822,-95.362C-15.822,-95.36 -7.215,-92.205 0,-85.9" style="fill:rgb(255,249,46);fill-rule:nonzero;"/>
                </g>
            </g>
        </g>
        <g transform="matrix(1,0,0,1,554.111,411.628)">
            <path d="M0,-85.393L0,0L18.58,0C20.283,0 21.505,0.327 22.244,0.982C22.982,1.633 23.351,2.5 23.351,3.58C23.351,4.603 22.982,5.456 22.244,6.136C21.505,6.818 20.283,7.159 18.58,7.159L-25.824,7.159C-27.527,7.159 -28.749,6.818 -29.487,6.136C-30.226,5.456 -30.595,4.603 -30.595,3.58C-30.595,2.5 -30.226,1.633 -29.487,0.982C-28.749,0.327 -27.527,0 -25.824,0L-7.243,0L-7.243,-85.393L-36.56,-85.393L-36.56,-60.593C-36.56,-58.831 -36.887,-57.581 -37.541,-56.843C-38.195,-56.104 -39.063,-55.735 -40.139,-55.735C-41.163,-55.735 -42.016,-56.104 -42.695,-56.843C-43.377,-57.581 -43.719,-58.831 -43.719,-60.593L-43.719,-92.552L36.475,-92.552L36.475,-60.593C36.475,-58.831 36.148,-57.581 35.497,-56.843C34.842,-56.104 33.975,-55.735 32.896,-55.735C31.816,-55.735 30.949,-56.104 30.298,-56.843C29.644,-57.581 29.316,-58.831 29.316,-60.593L29.316,-85.393L0,-85.393Z" style="fill:white;fill-rule:nonzero;"/>
        </g>
        <g transform="matrix(1,0,0,1,628.866,370.721)">
            <path d="M0,-3.577L19.515,-3.577C25.765,-3.577 31.434,-4.715 36.518,-6.986C41.602,-9.26 45.296,-11.931 47.598,-14.998C49.899,-18.066 51.048,-21.19 51.048,-24.372C51.048,-29.146 48.646,-33.69 43.847,-38.008C39.046,-42.326 33.207,-44.485 26.333,-44.485L0,-44.485L0,-3.577ZM0,3.579L0,40.908L13.208,40.908C14.97,40.908 16.22,41.235 16.958,41.889C17.697,42.541 18.066,43.408 18.066,44.487C18.066,45.511 17.697,46.364 16.958,47.044C16.22,47.726 14.97,48.067 13.208,48.067L-16.791,48.067C-18.494,48.067 -19.715,47.726 -20.454,47.044C-21.192,46.364 -21.562,45.511 -21.562,44.487C-21.562,43.408 -21.192,42.541 -20.454,41.889C-19.715,41.235 -18.494,40.908 -16.791,40.908L-7.159,40.908L-7.159,-44.485L-16.791,-44.485C-18.494,-44.485 -19.715,-44.812 -20.454,-45.467C-21.192,-46.118 -21.562,-46.985 -21.562,-48.065C-21.562,-49.144 -21.192,-50.011 -20.454,-50.665C-19.715,-51.317 -18.494,-51.644 -16.791,-51.644L26.503,-51.644C35.424,-51.644 42.938,-48.817 49.046,-43.165C55.151,-37.511 58.208,-31.134 58.208,-24.031C58.208,-18.919 56.317,-14.103 52.539,-9.587C48.761,-5.07 42.441,-1.306 33.579,1.706C38.69,5.229 43.064,9.206 46.703,13.636C50.338,18.069 56.161,27.16 64.173,40.908L69.626,40.908C71.332,40.908 72.551,41.235 73.292,41.889C74.031,42.541 74.4,43.408 74.4,44.487C74.4,45.511 74.031,46.364 73.292,47.044C72.551,47.726 71.332,48.067 69.626,48.067L60.082,48.067C51.219,32.216 44.359,21.592 39.501,16.194C34.644,10.798 29.062,6.591 22.753,3.579L0,3.579Z" style="fill:white;fill-rule:nonzero;"/>
        </g>
        <g transform="matrix(1,0,0,1,774.606,359.557)">
            <path d="M0,18.751L-19.771,-33.321L-22.412,-33.321L-41.587,18.751L0,18.751ZM2.729,25.91L-44.314,25.91L-53.945,52.072L-40.223,52.072C-38.52,52.072 -37.297,52.399 -36.559,53.053C-35.821,53.705 -35.452,54.572 -35.452,55.651C-35.452,56.675 -35.821,57.528 -36.559,58.208C-37.297,58.89 -38.52,59.231 -40.223,59.231L-66.983,59.231C-68.689,59.231 -69.911,58.89 -70.649,58.208C-71.388,57.528 -71.757,56.675 -71.757,55.651C-71.757,54.572 -71.388,53.705 -70.649,53.053C-69.911,52.399 -68.689,52.072 -66.983,52.072L-61.446,52.072L-29.828,-33.321L-50.961,-33.321C-52.667,-33.321 -53.89,-33.648 -54.628,-34.303C-55.366,-34.954 -55.735,-35.821 -55.735,-36.901C-55.735,-37.98 -55.366,-38.847 -54.628,-39.501C-53.89,-40.153 -52.667,-40.48 -50.961,-40.48L-14.914,-40.48L20.029,52.072L25.569,52.072C27.272,52.072 28.494,52.399 29.232,53.053C29.971,53.705 30.34,54.572 30.34,55.651C30.34,56.675 29.971,57.528 29.232,58.208C28.494,58.89 27.272,59.231 25.569,59.231L-1.107,59.231C-2.869,59.231 -4.119,58.89 -4.857,58.208C-5.596,57.528 -5.965,56.675 -5.965,55.651C-5.965,54.572 -5.596,53.705 -4.857,53.053C-4.119,52.399 -2.869,52.072 -1.107,52.072L12.529,52.072L2.729,25.91Z" style="fill:white;fill-rule:nonzero;"/>
        </g>
        <g transform="matrix(1,0,0,1,860.695,319.077)">
            <path d="M0,99.711L-9.97,99.711L-46.02,7.159L-51.56,7.159C-52.866,7.159 -53.806,7.03 -54.371,6.776C-54.941,6.519 -55.408,6.093 -55.777,5.498C-56.149,4.899 -56.331,4.262 -56.331,3.579C-56.331,2.897 -56.149,2.259 -55.777,1.661C-55.408,1.065 -54.941,0.64 -54.371,0.383C-53.806,0.128 -52.866,0 -51.56,0L-24.884,0C-23.522,0 -22.571,0.128 -22.028,0.383C-21.492,0.64 -21.036,1.065 -20.667,1.661C-20.297,2.259 -20.113,2.897 -20.113,3.579C-20.113,4.262 -20.312,4.899 -20.708,5.498C-21.105,6.093 -21.576,6.519 -22.115,6.776C-22.655,7.03 -23.578,7.159 -24.884,7.159L-38.606,7.159L-5.37,92.552L-4.857,92.552L27.955,7.159L14.318,7.159C12.954,7.159 11.989,7.03 11.421,6.776C10.851,6.519 10.384,6.093 10.015,5.498C9.646,4.899 9.461,4.262 9.461,3.579C9.461,2.897 9.659,2.259 10.057,1.661C10.454,1.065 10.923,0.64 11.463,0.383C12.003,0.128 12.954,0 14.318,0L40.908,0C42.27,0 43.237,0.128 43.805,0.383C44.373,0.64 44.84,1.065 45.212,1.661C45.581,2.259 45.766,2.897 45.766,3.579C45.766,4.262 45.564,4.899 45.17,5.498C44.77,6.093 44.303,6.519 43.763,6.776C43.221,7.03 42.27,7.159 40.908,7.159L35.452,7.159L0,99.711Z" style="fill:white;fill-rule:nonzero;"/>
        </g>
        <g transform="matrix(1,0,0,1,960.588,411.628)">
            <path d="M0,-85.393L0,0L24.543,0C26.248,0 27.468,0.327 28.206,0.982C28.944,1.633 29.313,2.5 29.313,3.58C29.313,4.603 28.944,5.456 28.206,6.136C27.468,6.818 26.248,7.159 24.543,7.159L-31.705,7.159C-33.408,7.159 -34.63,6.818 -35.368,6.136C-36.106,5.456 -36.476,4.603 -36.476,3.58C-36.476,2.5 -36.106,1.633 -35.368,0.982C-34.63,0.327 -33.408,0 -31.705,0L-7.159,0L-7.159,-85.393L-31.705,-85.393C-33.408,-85.393 -34.63,-85.72 -35.368,-86.374C-36.106,-87.026 -36.476,-87.893 -36.476,-88.973C-36.476,-90.052 -36.106,-90.919 -35.368,-91.573C-34.63,-92.225 -33.408,-92.552 -31.705,-92.552L24.543,-92.552C26.248,-92.552 27.468,-92.225 28.206,-91.573C28.944,-90.919 29.313,-90.052 29.313,-88.973C29.313,-87.893 28.944,-87.026 28.206,-86.374C27.468,-85.72 26.248,-85.393 24.543,-85.393L0,-85.393Z" style="fill:white;fill-rule:nonzero;"/>
        </g>
        <g transform="matrix(1,0,0,1,1084.17,412.141)">
            <path d="M0,-85.906L0,-88.291C0,-89.997 0.324,-91.219 0.979,-91.958C1.633,-92.696 2.5,-93.065 3.579,-93.065C4.658,-93.065 5.525,-92.696 6.18,-91.958C6.829,-91.219 7.159,-89.997 7.159,-88.291L7.159,-70.055C7.159,-68.349 6.829,-67.127 6.18,-66.391C5.525,-65.65 4.658,-65.281 3.579,-65.281C2.556,-65.281 1.717,-65.622 1.062,-66.305C0.413,-66.987 0.056,-68.094 0,-69.63C-0.286,-74.401 -2.741,-78.691 -7.372,-82.497C-12.003,-86.303 -18.066,-88.207 -25.566,-88.207C-33.464,-88.207 -39.745,-86.174 -44.404,-82.114C-49.063,-78.05 -51.39,-73.262 -51.39,-67.753C-51.39,-64.912 -50.735,-62.328 -49.433,-59.998C-48.124,-57.669 -46.39,-55.779 -44.23,-54.33C-42.072,-52.881 -39.628,-51.718 -36.904,-50.837C-34.175,-49.956 -29.912,-49.033 -24.118,-48.069C-14.402,-46.477 -7.702,-44.858 -4.005,-43.211C0.939,-40.993 4.67,-37.925 7.203,-34.005C9.726,-30.084 10.995,-25.453 10.995,-20.114C10.995,-11.931 7.724,-4.957 1.19,0.81C-5.342,6.576 -14.146,9.46 -25.226,9.46C-37.67,9.46 -47.614,5.567 -55.054,-2.216L-55.054,1.872C-55.054,3.578 -55.384,4.801 -56.032,5.539C-56.687,6.277 -57.554,6.646 -58.633,6.646C-59.656,6.646 -60.504,6.277 -61.187,5.539C-61.869,4.801 -62.21,3.578 -62.21,1.872L-62.21,-17.899C-62.21,-19.658 -61.886,-20.908 -61.231,-21.647C-60.577,-22.385 -59.713,-22.757 -58.633,-22.757C-57.609,-22.757 -56.776,-22.416 -56.122,-21.733C-55.468,-21.051 -55.109,-19.944 -55.054,-18.408C-54.769,-13.181 -51.972,-8.425 -46.658,-4.135C-41.351,0.156 -34.202,2.301 -25.226,2.301C-16.248,2.301 -9.162,0.055 -3.96,-4.434C1.235,-8.919 3.836,-14.233 3.836,-20.368C3.836,-24.119 2.841,-27.458 0.85,-30.383C-1.136,-33.308 -4.089,-35.624 -8.01,-37.33C-10.739,-38.521 -16.422,-39.858 -25.058,-41.334C-36.932,-43.323 -45.483,-46.363 -50.708,-50.454C-55.938,-54.545 -58.549,-60.367 -58.549,-67.924C-58.549,-75.424 -55.552,-81.87 -49.556,-87.271C-43.565,-92.668 -35.651,-95.366 -25.824,-95.366C-15.823,-95.366 -7.216,-92.212 0,-85.906" style="fill:white;fill-rule:nonzero;"/>
        </g>
        <g transform="matrix(1,0,0,1,529.658,446.809)">
            <path d="M0,85.393L25.994,85.393C32.015,85.393 37.653,83.435 42.91,79.515C48.165,75.594 52.114,70.89 54.756,65.409C57.399,59.927 58.719,54.513 58.719,49.172L58.719,36.218C58.719,31.789 58.009,27.84 56.588,24.372C54.544,19.318 51.646,14.517 47.896,9.97C45.85,7.472 42.837,5.185 38.861,3.11C34.884,1.038 30.594,0 25.994,0L0,0L0,85.393ZM-7.159,85.393L-7.159,0L-13.208,0C-14.914,0 -16.136,-0.327 -16.875,-0.982C-17.613,-1.633 -17.982,-2.5 -17.982,-3.58C-17.982,-4.659 -17.613,-5.526 -16.875,-6.18C-16.136,-6.832 -14.914,-7.159 -13.208,-7.159L25.312,-7.159C31.333,-7.159 36.831,-5.909 41.803,-3.409C46.772,-0.909 50.564,1.933 53.179,5.112C57.667,10.512 61.077,16.22 63.406,22.244C65.053,26.618 65.878,31.789 65.878,37.75L65.878,47.639C65.878,54.966 64.259,62.069 61.021,68.943C57.782,75.823 52.382,81.813 44.829,86.925C39.202,90.678 32.697,92.552 25.312,92.552L-13.208,92.552C-14.914,92.552 -16.136,92.211 -16.875,91.528C-17.613,90.846 -17.982,89.996 -17.982,88.973C-17.982,87.893 -17.613,87.026 -16.875,86.372C-16.136,85.723 -14.914,85.393 -13.208,85.393L-7.159,85.393Z" style="fill:white;fill-rule:nonzero;"/>
        </g>
        <g transform="matrix(1,0,0,1,626.427,487.801)">
            <path d="M0,3.409L0,44.401L55.053,44.401L55.053,23.264C55.053,21.564 55.38,20.339 56.035,19.601C56.686,18.863 57.553,18.493 58.633,18.493C59.712,18.493 60.579,18.863 61.233,19.601C61.885,20.339 62.212,21.564 62.212,23.264L62.212,51.56L-16.791,51.56C-18.494,51.56 -19.716,51.219 -20.454,50.536C-21.192,49.854 -21.562,49.004 -21.562,47.981C-21.562,46.901 -21.192,46.034 -20.454,45.38C-19.716,44.731 -18.494,44.401 -16.791,44.401L-7.159,44.401L-7.159,-40.992L-16.791,-40.992C-18.494,-40.992 -19.716,-41.319 -20.454,-41.973C-21.192,-42.625 -21.562,-43.492 -21.562,-44.571C-21.562,-45.651 -21.192,-46.518 -20.454,-47.172C-19.716,-47.824 -18.494,-48.151 -16.791,-48.151L58.462,-48.151L58.462,-23.522C58.462,-21.816 58.135,-20.594 57.483,-19.858C56.829,-19.117 55.962,-18.748 54.882,-18.748C53.803,-18.748 52.936,-19.117 52.285,-19.858C51.63,-20.594 51.303,-21.816 51.303,-23.522L51.303,-40.992L0,-40.992L0,-3.75L25.653,-3.75L25.653,-11.843C25.653,-13.549 25.991,-14.771 26.674,-15.509C27.356,-16.248 28.237,-16.62 29.316,-16.62C30.34,-16.62 31.19,-16.248 31.873,-15.509C32.555,-14.771 32.896,-13.549 32.896,-11.843L32.896,11.508C32.896,13.208 32.555,14.433 31.873,15.171C31.19,15.909 30.34,16.279 29.316,16.279C28.237,16.279 27.356,15.909 26.674,15.171C25.991,14.433 25.653,13.208 25.653,11.508L25.653,3.409L0,3.409Z" style="fill:white;fill-rule:nonzero;"/>
        </g>
        <g transform="matrix(1,0,0,1,774.5,532.714)">
            <path d="M0,-85.905L0,-88.29C0,-89.996 0.327,-91.218 0.981,-91.957C1.633,-92.695 2.5,-93.064 3.58,-93.064C4.659,-93.064 5.526,-92.695 6.177,-91.957C6.832,-91.218 7.159,-89.996 7.159,-88.29L7.159,-70.054C7.159,-68.348 6.832,-67.126 6.177,-66.391C5.526,-65.65 4.659,-65.28 3.58,-65.28C2.556,-65.28 1.717,-65.622 1.065,-66.304C0.411,-66.987 0.056,-68.094 0,-69.629C-0.286,-74.4 -2.741,-78.69 -7.372,-82.496C-12.003,-86.302 -18.069,-88.207 -25.566,-88.207C-33.464,-88.207 -39.742,-86.174 -44.401,-82.113C-49.06,-78.05 -51.39,-73.262 -51.39,-67.753C-51.39,-64.911 -50.738,-62.327 -49.429,-59.998C-48.124,-57.668 -46.39,-55.778 -44.23,-54.329C-42.072,-52.881 -39.63,-51.717 -36.901,-50.833C-34.174,-49.955 -29.912,-49.032 -24.118,-48.065C-14.402,-46.476 -7.699,-44.854 -4.005,-43.21C0.937,-40.995 4.673,-37.925 7.201,-34.004C9.729,-30.083 10.993,-25.452 10.993,-20.111C10.993,-11.933 7.727,-4.959 1.194,0.808C-5.342,6.574 -14.148,9.461 -25.225,9.461C-37.67,9.461 -47.611,5.568 -55.053,-2.218L-55.053,1.876C-55.053,3.576 -55.383,4.801 -56.035,5.54C-56.689,6.278 -57.556,6.647 -58.633,6.647C-59.656,6.647 -60.509,6.278 -61.191,5.54C-61.871,4.801 -62.212,3.576 -62.212,1.876L-62.212,-17.896C-62.212,-19.657 -61.888,-20.91 -61.233,-21.649C-60.579,-22.387 -59.712,-22.756 -58.633,-22.756C-57.612,-22.756 -56.773,-22.415 -56.119,-21.733C-55.467,-21.05 -55.112,-19.943 -55.053,-18.41C-54.771,-13.18 -51.974,-8.421 -46.661,-4.136C-41.347,0.159 -34.205,2.301 -25.225,2.301C-16.251,2.301 -9.162,0.058 -3.963,-4.433C1.236,-8.919 3.834,-14.232 3.834,-20.368C3.834,-24.121 2.841,-27.454 0.853,-30.385C-1.138,-33.31 -4.091,-35.626 -8.012,-37.326C-10.739,-38.523 -16.419,-39.854 -25.055,-41.336C-36.932,-43.322 -45.48,-46.364 -50.708,-50.453C-55.937,-54.542 -58.549,-60.367 -58.549,-67.923C-58.549,-75.424 -55.551,-81.869 -49.558,-87.27C-43.565,-92.667 -35.653,-95.366 -25.824,-95.366C-15.823,-95.366 -7.215,-92.211 0,-85.905" style="fill:white;fill-rule:nonzero;"/>
        </g>
        <g transform="matrix(1,0,0,1,851.667,532.202)">
            <path d="M0,-85.393L0,0L24.542,0C26.249,0 27.468,0.33 28.209,0.979C28.944,1.633 29.316,2.5 29.316,3.58C29.316,4.603 28.944,5.453 28.209,6.135C27.468,6.818 26.249,7.159 24.542,7.159L-31.705,7.159C-33.408,7.159 -34.63,6.818 -35.368,6.135C-36.106,5.453 -36.476,4.603 -36.476,3.58C-36.476,2.5 -36.106,1.633 -35.368,0.979C-34.63,0.33 -33.408,0 -31.705,0L-7.159,0L-7.159,-85.393L-31.705,-85.393C-33.408,-85.393 -34.63,-85.72 -35.368,-86.374C-36.106,-87.026 -36.476,-87.893 -36.476,-88.973C-36.476,-90.052 -36.106,-90.919 -35.368,-91.573C-34.63,-92.225 -33.408,-92.552 -31.705,-92.552L24.542,-92.552C26.249,-92.552 27.468,-92.225 28.209,-91.573C28.944,-90.919 29.316,-90.052 29.316,-88.973C29.316,-87.893 28.944,-87.026 28.209,-86.374C27.468,-85.72 26.249,-85.393 24.542,-85.393L0,-85.393Z" style="fill:white;fill-rule:nonzero;"/>
        </g>
        <g transform="matrix(1,0,0,1,986.098,477.149)">
            <path d="M0,25.225L0,55.903C-5.447,58.918 -10.893,61.188 -16.317,62.721C-21.743,64.259 -27.154,65.026 -32.552,65.026C-40.223,65.026 -46.971,63.89 -52.793,61.614C-58.618,59.343 -63.546,56.161 -67.579,52.072C-71.614,47.977 -74.751,43.408 -76.997,38.352C-79.24,33.296 -80.361,26.875 -80.361,19.089L-80.361,5.962C-80.361,-1.874 -78.418,-9.503 -74.525,-16.917C-70.632,-24.333 -65.308,-29.999 -58.545,-33.92C-51.784,-37.84 -44.429,-39.801 -36.472,-39.801C-24.939,-39.801 -15.196,-36.646 -7.24,-30.34C-7.24,-33.123 -7.142,-34.8 -6.943,-35.368C-6.745,-35.936 -6.331,-36.434 -5.705,-36.858C-5.078,-37.287 -4.373,-37.499 -3.579,-37.499C-2.55,-37.499 -1.7,-37.13 -1.018,-36.392C-0.335,-35.653 0,-34.431 0,-32.725L0,-16.533C0,-14.772 -0.335,-13.535 -1.018,-12.828C-1.7,-12.115 -2.55,-11.762 -3.579,-11.762C-4.541,-11.762 -5.357,-12.087 -6.007,-12.741C-6.658,-13.396 -7.014,-14.545 -7.069,-16.192C-7.41,-21.022 -10.551,-24.971 -16.488,-28.038C-22.425,-31.106 -28.888,-32.642 -35.876,-32.642C-42.468,-32.642 -48.419,-31.207 -53.73,-28.338C-59.043,-25.468 -63.999,-19.998 -68.602,-11.933C-71.67,-6.648 -73.202,-0.654 -73.202,6.052L-73.202,19.089C-73.202,30.963 -69.57,40.393 -62.296,47.385C-55.022,54.371 -44.994,57.866 -32.21,57.866C-27.896,57.866 -23.888,57.413 -20.193,56.501C-16.502,55.596 -12.185,54.001 -7.24,51.73L-7.24,25.225L-31.869,25.225C-33.575,25.225 -34.797,24.9 -35.536,24.246C-36.274,23.592 -36.643,22.725 -36.643,21.645C-36.643,20.566 -36.274,19.687 -35.536,19.005C-34.797,18.323 -33.575,17.982 -31.869,17.982L2.562,18.066C4.263,18.066 5.481,18.395 6.22,19.044C6.958,19.699 7.327,20.566 7.327,21.645C7.327,22.384 7.104,23.066 6.656,23.692C6.197,24.319 5.683,24.727 5.112,24.929C4.553,25.124 2.842,25.225 0,25.225" style="fill:white;fill-rule:nonzero;"/>
        </g>
        <g transform="matrix(1,0,0,1,1081.42,439.65)">
            <path d="M0,99.711L-9.201,99.711L-61.952,10.481L-61.952,92.552L-48.744,92.552C-46.988,92.552 -45.735,92.881 -44.997,93.53C-44.259,94.185 -43.89,95.052 -43.89,96.131C-43.89,97.155 -44.259,98.005 -44.997,98.687C-45.735,99.37 -46.988,99.711 -48.744,99.711L-75.079,99.711C-76.842,99.711 -78.089,99.37 -78.827,98.687C-79.565,98.005 -79.935,97.155 -79.935,96.131C-79.935,95.052 -79.565,94.185 -78.827,93.53C-78.089,92.881 -76.842,92.552 -75.079,92.552L-69.111,92.552L-69.111,7.159L-78.743,7.159C-80.449,7.159 -81.668,6.832 -82.406,6.177C-83.145,5.525 -83.514,4.659 -83.514,3.579C-83.514,2.5 -83.145,1.633 -82.406,0.979C-81.668,0.327 -80.449,0 -78.743,0L-59.995,0L-7.159,89.397L-7.159,7.159L-20.365,7.159C-22.07,7.159 -23.296,6.832 -24.034,6.177C-24.772,5.525 -25.142,4.659 -25.142,3.579C-25.142,2.5 -24.783,1.633 -24.073,0.979C-23.362,0.327 -22.127,0 -20.365,0L6.052,0C7.757,0 8.977,0.327 9.715,0.979C10.453,1.633 10.822,2.5 10.822,3.579C10.822,4.659 10.453,5.525 9.715,6.177C8.977,6.832 7.757,7.159 6.052,7.159L0,7.159L0,99.711Z" style="fill:white;fill-rule:nonzero;"/>
        </g>
        <g transform="matrix(1,0,0,1,573.091,655.185)">
            <path d="M0,-85.907L0,-88.29C0,-89.995 0.327,-91.215 0.981,-91.953C1.633,-92.691 2.5,-93.066 3.58,-93.066C4.659,-93.066 5.526,-92.691 6.178,-91.953C6.832,-91.215 7.159,-89.995 7.159,-88.29L7.159,-70.053C7.159,-68.352 6.832,-67.128 6.178,-66.389C5.526,-65.651 4.659,-65.282 3.58,-65.282C2.556,-65.282 1.717,-65.623 1.065,-66.305C0.411,-66.988 0.056,-68.095 0,-69.628C-0.285,-74.404 -2.741,-78.689 -7.372,-82.498C-12.003,-86.303 -18.068,-88.206 -25.566,-88.206C-33.463,-88.206 -39.742,-86.176 -44.401,-82.117C-49.06,-78.052 -51.39,-73.263 -51.39,-67.755C-51.39,-64.913 -50.738,-62.329 -49.429,-59.997C-48.123,-57.67 -46.389,-55.779 -44.23,-54.331C-42.071,-52.883 -39.63,-51.719 -36.9,-50.835C-34.174,-49.957 -29.912,-49.034 -24.118,-48.066C-14.402,-46.478 -7.699,-44.856 -4.004,-43.212C0.937,-40.997 4.673,-37.927 7.201,-34.006C9.729,-30.085 10.993,-25.454 10.993,-20.112C10.993,-11.935 7.727,-4.961 1.194,0.806C-5.341,6.572 -14.148,9.458 -25.225,9.458C-37.669,9.458 -47.611,5.566 -55.053,-2.219L-55.053,1.874C-55.053,3.574 -55.383,4.8 -56.035,5.538C-56.689,6.277 -57.556,6.646 -58.632,6.646C-59.656,6.646 -60.509,6.277 -61.191,5.538C-61.871,4.8 -62.212,3.574 -62.212,1.874L-62.212,-17.897C-62.212,-19.659 -61.888,-20.912 -61.233,-21.65C-60.579,-22.388 -59.712,-22.758 -58.632,-22.758C-57.612,-22.758 -56.773,-22.417 -56.119,-21.734C-55.467,-21.052 -55.112,-19.944 -55.053,-18.412C-54.771,-13.182 -51.974,-8.423 -46.661,-4.138C-41.347,0.157 -34.205,2.299 -25.225,2.299C-16.25,2.299 -9.162,0.057 -3.963,-4.434C1.236,-8.921 3.834,-14.234 3.834,-20.369C3.834,-24.123 2.841,-27.456 0.853,-30.386C-1.138,-33.312 -4.091,-35.628 -8.012,-37.328C-10.739,-38.524 -16.418,-39.856 -25.054,-41.338C-36.931,-43.323 -45.48,-46.366 -50.707,-50.455C-55.937,-54.544 -58.549,-60.366 -58.549,-67.928C-58.549,-75.423 -55.551,-81.871 -49.558,-87.265C-43.564,-92.663 -35.653,-95.365 -25.823,-95.365C-15.823,-95.365 -7.215,-92.21 0,-85.907" style="fill:white;fill-rule:nonzero;"/>
        </g>
        <g transform="matrix(1,0,0,1,688.74,612.232)">
            <path d="M0,-0.001C0,-11.647 -3.381,-22.1 -10.143,-31.362C-16.905,-40.624 -25.653,-45.253 -36.392,-45.253C-46.448,-45.253 -55.042,-40.837 -62.17,-32.005C-69.302,-23.168 -72.867,-12.502 -72.867,-0.001C-72.867,13.293 -69.131,24.161 -61.659,32.595C-54.189,41.035 -45.766,45.252 -36.392,45.252C-25.653,45.252 -16.905,40.638 -10.143,31.404C-3.381,22.17 0,11.705 0,-0.001M7.243,-0.001C7.243,9.546 5.311,18.395 1.449,26.544C-2.417,34.698 -7.744,41.047 -14.531,45.594C-21.321,50.135 -28.609,52.411 -36.392,52.411C-47.925,52.411 -58.082,47.512 -66.857,37.707C-75.636,27.908 -80.026,15.341 -80.026,-0.001C-80.026,-15.399 -75.636,-27.983 -66.857,-37.755C-58.082,-47.523 -47.925,-52.412 -36.392,-52.412C-28.609,-52.412 -21.335,-50.141 -14.573,-45.594C-7.813,-41.047 -2.486,-34.718 1.407,-26.591C5.296,-18.464 7.243,-9.605 7.243,-0.001" style="fill:white;fill-rule:nonzero;"/>
        </g>
        <g transform="matrix(1,0,0,1,744.56,654.672)">
            <path d="M0,-85.394L0,0L47.555,0L47.555,-28.464C47.555,-30.17 47.896,-31.389 48.579,-32.127C49.261,-32.866 50.139,-33.235 51.222,-33.235C52.242,-33.235 53.095,-32.882 53.778,-32.172C54.46,-31.462 54.801,-30.226 54.801,-28.464L54.801,7.159L-24.288,7.159C-25.991,7.159 -27.213,6.817 -27.952,6.135C-28.69,5.453 -29.059,4.602 -29.059,3.579C-29.059,2.5 -28.69,1.632 -27.952,0.978C-27.213,0.33 -25.991,0 -24.288,0L-7.243,0L-7.243,-85.394L-24.288,-85.394C-25.991,-85.394 -27.213,-85.718 -27.952,-86.373C-28.69,-87.021 -29.059,-87.888 -29.059,-88.973C-29.059,-90.047 -28.69,-90.915 -27.952,-91.569C-27.213,-92.223 -25.991,-92.553 -24.288,-92.553L17.045,-92.553C18.751,-92.553 19.97,-92.223 20.711,-91.569C21.449,-90.915 21.818,-90.047 21.818,-88.973C21.818,-87.888 21.449,-87.021 20.711,-86.373C19.97,-85.718 18.751,-85.394 17.045,-85.394L0,-85.394Z" style="fill:white;fill-rule:nonzero;"/>
        </g>
        <g transform="matrix(1,0,0,1,896.342,657.484)">
            <path d="M0,-88.206L0,-28.379C0,-18.322 -3.353,-9.888 -10.056,-3.07C-16.76,3.748 -24.855,7.159 -34.344,7.159C-40.707,7.159 -46.361,5.767 -51.303,2.982C-56.247,0.202 -60.45,-4.02 -63.915,-9.676C-67.383,-15.324 -69.114,-21.56 -69.114,-28.379L-69.114,-88.206L-75.166,-88.206C-76.872,-88.206 -78.094,-88.53 -78.829,-89.185C-79.57,-89.833 -79.939,-90.7 -79.939,-91.785C-79.939,-92.859 -79.542,-93.77 -78.745,-94.509C-78.063,-95.08 -76.872,-95.365 -75.166,-95.365L-48.747,-95.365C-47.043,-95.365 -45.821,-95.035 -45.083,-94.381C-44.345,-93.727 -43.973,-92.859 -43.973,-91.785C-43.973,-90.7 -44.345,-89.833 -45.083,-89.185C-45.821,-88.53 -47.043,-88.206 -48.747,-88.206L-61.958,-88.206L-61.958,-28.379C-61.958,-20.481 -59.259,-13.775 -53.859,-8.267C-48.464,-2.757 -42.071,0 -34.686,0C-29.971,0 -25.667,-1.079 -21.774,-3.238C-17.884,-5.396 -14.475,-8.719 -11.547,-13.211C-8.622,-17.696 -7.159,-22.752 -7.159,-28.379L-7.159,-88.206L-20.367,-88.206C-22.073,-88.206 -23.295,-88.53 -24.031,-89.185C-24.771,-89.833 -25.141,-90.7 -25.141,-91.785C-25.141,-92.859 -24.771,-93.727 -24.031,-94.381C-23.295,-95.035 -22.073,-95.365 -20.367,-95.365L6.052,-95.365C7.758,-95.365 8.977,-95.035 9.715,-94.381C10.454,-93.727 10.826,-92.859 10.826,-91.785C10.826,-90.7 10.454,-89.833 9.715,-89.185C8.977,-88.53 7.758,-88.206 6.052,-88.206L0,-88.206Z" style="fill:white;fill-rule:nonzero;"/>
        </g>
        <g transform="matrix(1,0,0,1,969.976,654.672)">
            <path d="M0,-85.394L0,0L18.581,0C20.283,0 21.503,0.33 22.241,0.978C22.979,1.632 23.349,2.5 23.349,3.579C23.349,4.602 22.979,5.453 22.241,6.135C21.503,6.817 20.283,7.159 18.581,7.159L-25.823,7.159C-27.526,7.159 -28.749,6.817 -29.487,6.135C-30.225,5.453 -30.594,4.602 -30.594,3.579C-30.594,2.5 -30.225,1.632 -29.487,0.978C-28.749,0.33 -27.526,0 -25.823,0L-7.243,0L-7.243,-85.394L-36.559,-85.394L-36.559,-60.596C-36.559,-58.834 -36.886,-57.582 -37.541,-56.843C-38.195,-56.105 -39.062,-55.736 -40.139,-55.736C-41.162,-55.736 -42.015,-56.105 -42.695,-56.843C-43.377,-57.582 -43.718,-58.834 -43.718,-60.596L-43.718,-92.553L36.476,-92.553L36.476,-60.596C36.476,-58.834 36.151,-57.582 35.497,-56.843C34.843,-56.105 33.976,-55.736 32.896,-55.736C31.816,-55.736 30.95,-56.105 30.295,-56.843C29.646,-57.582 29.316,-58.834 29.316,-60.596L29.316,-85.394L0,-85.394Z" style="fill:white;fill-rule:nonzero;"/>
        </g>
        <g transform="matrix(1,0,0,1,1074.8,654.672)">
            <path d="M0,-85.394L0,0L24.543,0C26.249,0 27.468,0.33 28.206,0.978C28.944,1.632 29.313,2.5 29.313,3.579C29.313,4.602 28.944,5.453 28.206,6.135C27.468,6.817 26.249,7.159 24.543,7.159L-31.701,7.159C-33.407,7.159 -34.632,6.817 -35.37,6.135C-36.108,5.453 -36.478,4.602 -36.478,3.579C-36.478,2.5 -36.108,1.632 -35.37,0.978C-34.632,0.33 -33.407,0 -31.701,0L-7.159,0L-7.159,-85.394L-31.701,-85.394C-33.407,-85.394 -34.632,-85.718 -35.37,-86.373C-36.108,-87.021 -36.478,-87.888 -36.478,-88.973C-36.478,-90.047 -36.108,-90.915 -35.37,-91.569C-34.632,-92.223 -33.407,-92.553 -31.701,-92.553L24.543,-92.553C26.249,-92.553 27.468,-92.223 28.206,-91.569C28.944,-90.915 29.313,-90.047 29.313,-88.973C29.313,-87.888 28.944,-87.021 28.206,-86.373C27.468,-85.718 26.249,-85.394 24.543,-85.394L0,-85.394Z" style="fill:white;fill-rule:nonzero;"/>
        </g>
        <g transform="matrix(1,0,0,1,1212.43,612.232)">
            <path d="M0,-0.001C0,-11.647 -3.378,-22.1 -10.141,-31.362C-16.902,-40.624 -25.65,-45.253 -36.389,-45.253C-46.445,-45.253 -55.036,-40.837 -62.167,-32.005C-69.299,-23.168 -72.861,-12.502 -72.861,-0.001C-72.861,13.293 -69.131,24.161 -61.658,32.595C-54.187,41.035 -45.763,45.252 -36.389,45.252C-25.65,45.252 -16.902,40.638 -10.141,31.404C-3.378,22.17 0,11.705 0,-0.001M7.249,-0.001C7.249,9.546 5.313,18.395 1.448,26.544C-2.41,34.698 -7.741,41.047 -14.531,45.594C-21.321,50.135 -28.604,52.411 -36.389,52.411C-47.922,52.411 -58.079,47.512 -66.854,37.707C-75.636,27.908 -80.021,15.341 -80.021,-0.001C-80.021,-15.399 -75.636,-27.983 -66.854,-37.755C-58.079,-47.523 -47.922,-52.412 -36.389,-52.412C-28.604,-52.412 -21.332,-50.141 -14.57,-45.594C-7.808,-41.047 -2.483,-34.718 1.409,-26.591C5.297,-18.464 7.249,-9.605 7.249,-0.001" style="fill:white;fill-rule:nonzero;"/>
        </g>
        <g transform="matrix(1,0,0,1,1315.73,562.119)">
            <path d="M0,99.712L-9.201,99.712L-61.955,10.484L-61.955,92.553L-48.744,92.553C-46.988,92.553 -45.735,92.883 -44.997,93.531C-44.259,94.186 -43.89,95.053 -43.89,96.132C-43.89,97.155 -44.259,98.006 -44.997,98.689C-45.735,99.37 -46.988,99.712 -48.744,99.712L-75.082,99.712C-76.844,99.712 -78.092,99.37 -78.83,98.689C-79.568,98.006 -79.938,97.155 -79.938,96.132C-79.938,95.053 -79.568,94.186 -78.83,93.531C-78.092,92.883 -76.844,92.553 -75.082,92.553L-69.114,92.553L-69.114,7.159L-78.746,7.159C-80.451,7.159 -81.671,6.835 -82.409,6.181C-83.147,5.532 -83.517,4.665 -83.517,3.58C-83.517,2.506 -83.147,1.639 -82.409,0.984C-81.671,0.33 -80.451,0 -78.746,0L-59.998,0L-7.159,89.398L-7.159,7.159L-20.365,7.159C-22.07,7.159 -23.296,6.835 -24.034,6.181C-24.772,5.532 -25.142,4.665 -25.142,3.58C-25.142,2.506 -24.783,1.639 -24.073,0.984C-23.362,0.33 -22.127,0 -20.365,0L6.052,0C7.758,0 8.977,0.33 9.715,0.984C10.453,1.639 10.822,2.506 10.822,3.58C10.822,4.665 10.453,5.532 9.715,6.181C8.977,6.835 7.758,7.159 6.052,7.159L0,7.159L0,99.712Z" style="fill:white;fill-rule:nonzero;"/>
        </g>
        <g transform="matrix(1,0,0,1,1411,655.185)">
            <path d="M0,-85.907L0,-88.29C0,-89.995 0.324,-91.215 0.979,-91.953C1.633,-92.691 2.5,-93.066 3.58,-93.066C4.659,-93.066 5.526,-92.691 6.181,-91.953C6.829,-91.215 7.159,-89.995 7.159,-88.29L7.159,-70.053C7.159,-68.352 6.829,-67.128 6.181,-66.389C5.526,-65.651 4.659,-65.282 3.58,-65.282C2.556,-65.282 1.717,-65.623 1.062,-66.305C0.414,-66.988 0.056,-68.095 0,-69.628C-0.285,-74.404 -2.74,-78.689 -7.372,-82.498C-12.003,-86.303 -18.065,-88.206 -25.566,-88.206C-33.464,-88.206 -39.744,-86.176 -44.403,-82.117C-49.063,-78.052 -51.39,-73.263 -51.39,-67.755C-51.39,-64.913 -50.735,-62.329 -49.432,-59.997C-48.123,-57.67 -46.39,-55.779 -44.23,-54.331C-42.071,-52.883 -39.627,-51.719 -36.903,-50.835C-34.174,-49.957 -29.912,-49.034 -24.117,-48.066C-14.402,-46.478 -7.702,-44.856 -4.005,-43.212C0.939,-40.997 4.67,-37.927 7.204,-34.006C9.727,-30.085 10.996,-25.454 10.996,-20.112C10.996,-11.935 7.725,-4.961 1.191,0.806C-5.342,6.572 -14.145,9.458 -25.225,9.458C-37.67,9.458 -47.614,5.566 -55.053,-2.219L-55.053,1.874C-55.053,3.574 -55.383,4.8 -56.032,5.538C-56.687,6.277 -57.553,6.646 -58.633,6.646C-59.656,6.646 -60.506,6.277 -61.188,5.538C-61.871,4.8 -62.212,3.574 -62.212,1.874L-62.212,-17.897C-62.212,-19.659 -61.888,-20.912 -61.233,-21.65C-60.579,-22.388 -59.712,-22.758 -58.633,-22.758C-57.609,-22.758 -56.775,-22.417 -56.121,-21.734C-55.467,-21.052 -55.109,-19.944 -55.053,-18.412C-54.768,-13.182 -51.971,-8.423 -46.657,-4.138C-41.35,0.157 -34.202,2.299 -25.225,2.299C-16.248,2.299 -9.161,0.057 -3.96,-4.434C1.236,-8.921 3.837,-14.234 3.837,-20.369C3.837,-24.123 2.842,-27.456 0.851,-30.386C-1.136,-33.312 -4.089,-35.628 -8.01,-37.328C-10.738,-38.524 -16.421,-39.856 -25.057,-41.338C-36.932,-43.323 -45.483,-46.366 -50.707,-50.455C-55.937,-54.544 -58.549,-60.366 -58.549,-67.928C-58.549,-75.423 -55.551,-81.871 -49.555,-87.265C-43.564,-92.663 -35.65,-95.365 -25.823,-95.365C-15.823,-95.365 -7.215,-92.21 0,-85.907" style="fill:white;fill-rule:nonzero;"/>
        </g>
        <g transform="matrix(-1,0,0,1,1115.67,307.014)">
            <path d="M-118.299,233.297L0,233.297L0,0L-118.299,126.077L-118.299,233.297Z" style="fill:white;fill-rule:nonzero;"/>
        </g>
        <g transform="matrix(-1,0,0,1,498.212,684.352)">
            <path d="M-735.76,39.412L-103.766,39.412L0,0L-735.76,0L-735.76,39.412Z" style="fill:white;fill-rule:nonzero;"/>
        </g>
        <g transform="matrix(1,0,0,1,1256.43,724.77)">
            <path d="M0,-9.094L1.354,-9.094C2.758,-9.094 3.96,-8.653 4.967,-7.769C5.968,-6.885 6.472,-5.817 6.472,-4.564C6.472,-3.266 5.962,-2.181 4.944,-1.309C3.932,-0.436 2.729,0 1.354,0L0,0C-1.403,0 -2.612,-0.442 -3.613,-1.325C-4.614,-2.209 -5.117,-3.278 -5.117,-4.531C-5.117,-5.827 -4.608,-6.913 -3.597,-7.785C-2.578,-8.657 -1.382,-9.094 0,-9.094" style="fill:white;fill-rule:nonzero;"/>
        </g>
        <g transform="matrix(1,0,0,1,1316.77,720.106)">
            <path d="M0,-31.748L0,-33.727C0,-34.398 0.146,-34.88 0.431,-35.171C0.722,-35.462 1.102,-35.606 1.577,-35.606C2.053,-35.606 2.438,-35.462 2.729,-35.171C3.015,-34.88 3.16,-34.398 3.16,-33.727L3.16,-25.908C3.16,-25.215 3.015,-24.723 2.729,-24.432C2.438,-24.141 2.053,-23.995 1.577,-23.995C1.152,-23.995 0.794,-24.13 0.509,-24.398C0.218,-24.667 0.051,-25.102 0,-25.707C-0.129,-27.586 -1.27,-29.253 -3.423,-30.707C-6.337,-32.698 -9.643,-33.694 -13.356,-33.694C-15.789,-33.694 -18.083,-33.213 -20.241,-32.251C-21.847,-31.558 -23.128,-30.707 -24.078,-29.7C-25.734,-27.955 -27.048,-26.02 -28.027,-23.894C-28.731,-22.329 -29.084,-20.561 -29.084,-18.593L-29.084,-13.659C-29.084,-9.453 -27.378,-5.801 -23.967,-2.702C-20.555,0.396 -16.595,1.945 -12.075,1.945C-9.368,1.945 -6.941,1.42 -4.799,0.368C-2.651,-0.684 -0.576,-2.271 1.426,-4.397C1.856,-4.867 2.332,-5.102 2.858,-5.102C3.312,-5.102 3.675,-4.978 3.948,-4.732C4.223,-4.486 4.362,-4.174 4.362,-3.793C4.362,-3.278 3.825,-2.496 2.746,-1.444C0.687,0.614 -1.628,2.163 -4.195,3.204C-6.768,4.244 -9.368,4.765 -12.003,4.765C-14.285,4.765 -16.606,4.373 -18.961,3.59C-20.768,2.985 -22.261,2.281 -23.44,1.476C-24.621,0.67 -26.069,-0.689 -27.786,-2.602C-29.504,-4.515 -30.679,-6.282 -31.305,-7.904C-31.931,-9.526 -32.244,-11.311 -32.244,-13.257L-32.244,-18.995C-32.244,-21.769 -31.411,-24.605 -29.738,-27.503C-28.072,-30.399 -25.79,-32.626 -22.893,-34.181C-19.995,-35.735 -16.857,-36.513 -13.468,-36.513C-8.256,-36.513 -3.765,-34.925 0,-31.748" style="fill:white;fill-rule:nonzero;"/>
        </g>
        <g transform="matrix(1,0,0,1,1364.76,704.232)">
            <path d="M0,0C0,-4.587 -1.493,-8.703 -4.479,-12.35C-7.461,-15.997 -11.326,-17.82 -16.063,-17.82C-20.504,-17.82 -24.302,-16.08 -27.445,-12.602C-30.594,-9.123 -32.166,-4.922 -32.166,0C-32.166,5.234 -30.521,9.514 -27.222,12.836C-23.922,16.158 -20.202,17.819 -16.063,17.819C-11.326,17.819 -7.461,16.002 -4.479,12.366C-1.493,8.73 0,4.608 0,0M3.194,0C3.194,3.758 2.344,7.243 0.638,10.453C-1.068,13.664 -3.417,16.164 -6.415,17.953C-9.413,19.743 -12.629,20.639 -16.063,20.639C-21.158,20.639 -25.639,18.709 -29.515,14.85C-33.391,10.99 -35.326,6.04 -35.326,0C-35.326,-6.063 -33.391,-11.019 -29.515,-14.867C-25.639,-18.715 -21.158,-20.639 -16.063,-20.639C-12.629,-20.639 -9.419,-19.744 -6.437,-17.954C-3.45,-16.164 -1.102,-13.67 0.621,-10.471C2.338,-7.271 3.194,-3.781 3.194,0" style="fill:white;fill-rule:nonzero;"/>
        </g>
        <g transform="matrix(1,0,0,1,1396.51,696.279)">
            <path d="M0,15.705L-3.613,15.705L-15.768,-8.961L-16.365,-8.961L-16.365,24.665L-10.538,24.665C-9.782,24.665 -9.246,24.794 -8.916,25.051C-8.591,25.309 -8.429,25.649 -8.429,26.074C-8.429,26.477 -8.591,26.812 -8.916,27.081C-9.246,27.35 -9.782,27.484 -10.538,27.484L-22.199,27.484C-22.949,27.484 -23.491,27.35 -23.815,27.081C-24.14,26.812 -24.308,26.477 -24.308,26.074C-24.308,25.649 -24.14,25.309 -23.815,25.051C-23.491,24.794 -22.949,24.665 -22.199,24.665L-19.525,24.665L-19.525,-8.961L-21.522,-8.961C-22.272,-8.961 -22.814,-9.09 -23.139,-9.347C-23.463,-9.604 -23.626,-9.945 -23.626,-10.37C-23.626,-10.795 -23.463,-11.137 -23.139,-11.394C-22.814,-11.651 -22.272,-11.779 -21.522,-11.779L-13.771,-11.779L-1.807,12.517L9.967,-11.779L17.719,-11.779C18.496,-11.779 19.05,-11.651 19.374,-11.394C19.698,-11.137 19.861,-10.795 19.861,-10.37C19.861,-9.945 19.698,-9.604 19.374,-9.347C19.05,-9.09 18.496,-8.961 17.719,-8.961L15.761,-8.961L15.761,24.665L18.396,24.665C19.173,24.665 19.727,24.794 20.051,25.051C20.375,25.309 20.538,25.649 20.538,26.074C20.538,26.477 20.375,26.812 20.051,27.081C19.727,27.35 19.173,27.484 18.396,27.484L6.773,27.484C6.018,27.484 5.47,27.35 5.134,27.081C4.793,26.812 4.625,26.477 4.625,26.074C4.625,25.649 4.787,25.309 5.117,25.051C5.441,24.794 5.99,24.665 6.773,24.665L12.601,24.665L12.601,-8.961L11.924,-8.961L0,15.705Z" style="fill:white;fill-rule:nonzero;"/>
        </g>
    </g>
</svg>
