<?xml version="1.0" encoding="utf-8"?>
<!-- Generator: Adobe Illustrator 27.1.1, SVG Export Plug-In . SVG Version: 6.00 Build 0)  -->
<svg version="1.1" xmlns="http://www.w3.org/2000/svg" xmlns:xlink="http://www.w3.org/1999/xlink" x="0px" y="0px"
	 viewBox="0 0 252 144" style="enable-background:new 0 0 252 144;" xml:space="preserve">
<style type="text/css">
	.st0{fill:#B3B3B3;}
	.st1{fill:#00AEEF;}
	.st2{fill:none;}
	.st3{fill:#4C1D34;}
	.st4{fill:#262626;}
	.st5{fill:#4D4D4D;}
	.st6{fill:#4C4921;}
	.st7{fill:#6B344F;}
	.st8{fill:#003C4E;}
	.st9{fill:#CE1F40;}
	.st10{fill:#808285;}
	.st11{fill:#EC008C;}
	.st12{fill:#FFF200;}
	.st13{fill:#F173AC;}
	.st14{fill:#4D4D4F;}
	.st15{fill:#D8C800;}
	.st16{fill:#FFF56D;}
	.st17{fill:#C40075;}
	.st18{fill:#080808;}
	.st19{fill:#0092C8;}
	.st20{fill:#00C0F3;}
	.st21{fill:#EE4D9B;}
	.st22{fill:#00B6F1;}
	.st23{fill:#FFF78F;}
	.st24{fill:#0D0D0D;}
	.st25{fill:#333333;}
</style>
<g id="Layer_9">
	<rect width="252" height="144"/>
</g>
<g id="Layer_10">
</g>
<g id="Layer_6">
	<path class="st0" d="M127.62,80.27"/>
	<path class="st1" d="M126,110.51"/>
	<g>
		<polygon class="st2" points="153.79,99.63 127.62,90.98 124.38,92.06 101.78,99.59 101.7,99.62 101.57,99.66 101.7,99.71 
			106.56,101.33 111.42,102.95 116.28,104.57 117.9,105.11 121.14,106.19 126,107.81 127.62,108.35 124.38,109.43 130.86,111.05 
			130.92,111.05 124.44,109.43 127.68,108.35 129.3,107.81 132.54,106.73 134.16,106.19 135.75,105.66 134.1,105.11 124.38,101.87 
			121.95,101.06 126,99.71 128.43,98.9 130.86,99.71 135.72,101.33 140.58,102.95 142.23,103.5 143.88,102.95 148.74,101.33 		"/>
		<path class="st3" d="M155.16,107.81l-4.86-1.62l-1.59-0.53l17.79-5.95l-38.88-12.96l-0.13,0.04L95.71,97.38l-6.97,2.32l6.48,2.16
			l32.4,10.8l4.86-1.62h0.06l9.69-3.23l14.55,4.85l6.48-2.16l-3.24-1.08L155.16,107.81z M142.23,103.5l-1.65-0.55l-4.86-1.62
			l-4.86-1.62l-2.43-0.81L126,99.71l-4.05,1.35l2.43,0.81l9.72,3.24l1.65,0.55l-1.59,0.53l-1.62,0.54l-3.24,1.08l-1.62,0.54
			l-3.24,1.08l6.48,1.62h-0.06l-6.48-1.62l3.24-1.08l-1.62-0.54l-4.86-1.62l-3.24-1.08l-1.62-0.54l-4.86-1.62l-4.86-1.62l-4.86-1.62
			l-0.13-0.04l0.13-0.04l0.08-0.03l22.6-7.53l3.24-1.08l26.17,8.66l-5.04,1.69l-4.86,1.62L142.23,103.5z"/>
	</g>
	<g id="Layer_8">
	</g>
	<polygon class="st4" points="108.18,70.55 127.62,77.03 127.62,57.59 127.62,31.67 88.74,18.71 88.74,64.07 101.7,68.39 
		103.32,68.93 	"/>
</g>
<g id="Layer_7">
	<path class="st5" d="M117.9,83.51"/>
	<polygon class="st2" points="127.62,87.83 101.7,96.47 113.21,92.63 126,96.47 139.77,91.88 130.86,88.91 	"/>
	<path class="st6" d="M176.22,73.79l-4.86-1.62l-4.86,1.62l-25.92,8.64l-8.1,2.7h0l6.48,2.16l8.1,2.7l1.62,0.54l22.68,7.56
		l4.86-1.62l1.62-0.54l3.24-1.08l14.58-4.86l8.1-2.7l1.62-0.54l4.86-1.62L176.22,73.79z M192.42,86.75l-1.62,0.54l-1.62,0.54
		l-1.62,0.54l-4.86,1.62l-4.86,1.62l-1.62,0.54l-1.62,0.54l-3.24-1.08l-4.86-1.62l-4.86-1.62l-3.24-1.08l-1.62-0.54l-4.86-1.62
		l-3.24-1.08l17.82-5.94l4.83-1.61l0.03-0.01l1.62,0.54l1.62,0.54l3.24,1.08l19.44,6.48L192.42,86.75z"/>
	<path class="st7" d="M88.74,101.33"/>
	<polygon class="st8" points="80.64,77.48 83.88,76.4 116.54,87.2 122.76,85.13 117.9,83.51 83.88,72.17 83.75,72.21 45,85.13 
		51.48,87.29 83.88,98.09 88.74,96.47 90.36,95.93 88.74,95.39 87.12,94.85 82.26,93.23 77.4,91.61 72.54,89.99 67.68,88.37 
		62.82,86.75 57.83,85.08 57.96,85.04 	"/>
	<path d="M93,133"/>
	<path class="st9" d="M146,144"/>
	<g>
		<path class="st1" d="M51.69,116.67c1.07,0,1.97,0.89,2,2h-1c0-0.55-0.45-1-1-1h-3c-0.55,0-1,0.45-1,1v3c0,0.55,0.45,1,1,1h3
			c0.55,0,1-0.45,1-1h1c0,1.06-0.88,2-2,2h-3c-1.07,0-2-0.87-2-2v-3c0-1.08,0.88-1.97,2-2H51.69z"/>
		<path class="st10" d="M61.76,123.67h-1v-2h-5v2h-1v-5c0-1.06,0.88-2,2-2h3c1.07,0,1.97,0.89,2,2V123.67z M56.76,117.67
			c-0.55,0-1,0.45-1,1v2h5v-2c0-0.55-0.45-1-1-1H56.76z"/>
		<path class="st10" d="M69.28,123.67l-2-2h-3.29v2h-1v-7h5c1.05,0,2,0.89,2,2v1c0,0.85-0.56,1.62-1.39,1.9l1.39,1.39v0.71H69.28z
			 M68.99,118.67c0-0.55-0.45-1-1-1h-4v3h4c0.55,0,1-0.45,1-1V118.67z"/>
		<path class="st10" d="M78.02,121.67c0,1.1-0.9,2-2,2h-3c-1.11,0-2-0.89-2-2v-3c0-1.1,0.9-2,2-2h3c1.06,0,2,0.91,2,2V121.67z
			 M77.02,118.67c0-0.55-0.45-1-1-1h-3c-0.55,0-1,0.45-1,1v3c0,0.55,0.45,1,1,1h3c0.55,0,1-0.45,1-1V118.67z"/>
		<path class="st10" d="M80.15,122.67h6v1h-7v-7h1V122.67z"/>
		<path class="st10" d="M86.88,116.67h1v7h-1V116.67z"/>
		<path class="st10" d="M96.11,123.67h-1l-5-5.38v5.38h-1v-7h1l5,5.3v-5.3h1V123.67z"/>
		<path class="st10" d="M104.34,123.67h-1v-2h-5v2h-1v-5c0-1.06,0.88-2,2-2h3c1.07,0,1.97,0.89,2,2V123.67z M99.34,117.67
			c-0.55,0-1,0.45-1,1v2h5v-2c0-0.55-0.45-1-1-1H99.34z"/>
		<path class="st11" d="M116.7,122.96v0.71h-0.71l-0.27-0.28c-0.31,0.19-0.65,0.28-1.02,0.28h-3c-1.07,0-2-0.87-2-2v-3
			c0-1.06,0.88-2,2-2h3c1.05,0,2,0.89,2,2v3c0,0.37-0.09,0.71-0.28,1.02L116.7,122.96z M114.41,120.67l1.26,1.26
			c0.02-0.09,0.03-0.17,0.03-0.26v-3c0-0.55-0.45-1-1-1h-3c-0.55,0-1,0.45-1,1v3c0,0.55,0.45,1,1,1h3c0.09,0,0.17-0.01,0.26-0.03
			l-1.26-1.26v-0.71H114.41z"/>
		<path class="st10" d="M123.87,116.67h1v5c0,1.06-0.88,2-2,2h-3c-1.07,0-2-0.87-2-2v-5h1v5c0,0.55,0.45,1,1,1h3c0.55,0,1-0.45,1-1
			V116.67z"/>
		<path class="st10" d="M126.07,116.67h1v7h-1V116.67z"/>
		<path class="st10" d="M133.17,116.67c1.07,0,1.97,0.89,2,2h-1c0-0.55-0.45-1-1-1h-3c-0.55,0-1,0.45-1,1v3c0,0.55,0.45,1,1,1h3
			c0.55,0,1-0.45,1-1h1c0,1.06-0.88,2-2,2h-3c-1.07,0-2-0.87-2-2v-3c0-1.08,0.88-1.97,2-2H133.17z"/>
		<path class="st10" d="M139.67,120.17l3.5,3.5h-1.41l-3-3h-1.59v3h-1v-7h1v3h1.59l3-3h1.41L139.67,120.17z"/>
		<path class="st12" d="M155.07,119.67c0,1.06-0.88,2-2,2h-4v2h-1v-7h5c1.07,0,1.97,0.89,2,2V119.67z M154.07,118.67
			c0-0.55-0.45-1-1-1h-4v3h4c0.55,0,1-0.45,1-1V118.67z"/>
		<path class="st10" d="M162.43,123.67l-2-2h-3.29v2h-1v-7h5c1.05,0,2,0.89,2,2v1c0,0.85-0.56,1.62-1.39,1.9l1.39,1.39v0.71H162.43z
			 M162.14,118.67c0-0.55-0.45-1-1-1h-4v3h4c0.55,0,1-0.45,1-1V118.67z"/>
		<path class="st10" d="M164.27,116.67h1v7h-1V116.67z"/>
		<path class="st10" d="M173.5,123.67h-1l-5-5.38v5.38h-1v-7h1l5,5.3v-5.3h1V123.67z"/>
		<path class="st10" d="M178.23,117.67v6h-1v-6h-3v-1h7v1H178.23z"/>
		<path class="st10" d="M181.96,122.67h1v2h-1V122.67z"/>
		<path class="st10" d="M189.42,122.67h6v1h-7v-7h1V122.67z"/>
		<path class="st10" d="M197.15,122.67h6v1h-7v-7h1V122.67z"/>
		<path class="st10" d="M208.78,116.67c1.07,0,1.97,0.89,2,2h-1c0-0.55-0.45-1-1-1h-3c-0.55,0-1,0.45-1,1v3c0,0.55,0.45,1,1,1h3
			c0.55,0,1-0.45,1-1h1c0,1.06-0.88,2-2,2h-3c-1.07,0-2-0.87-2-2v-3c0-1.08,0.88-1.97,2-2H208.78z"/>
	</g>
	<polygon class="st13" points="101.7,54.35 127.62,45.71 127.62,45.69 127.62,39.23 101.7,47.87 101.7,47.79 95.22,49.95 
		95.22,50.04 95.22,68.39 95.22,72.71 95.22,88.92 101.7,86.76 101.7,74.87 101.7,66.23 	"/>
	<polyline class="st14" points="88.74,18.71 88.74,25.19 127.62,38.15 127.62,31.67 88.74,18.71 	"/>
</g>
<g id="Layer_5">
	<g>
		<polygon class="st2" points="177.84,39.77 182.7,38.15 187.56,36.53 192.42,34.91 197.28,33.29 174.6,25.73 171.36,24.65 
			148.68,32.21 151.92,33.29 156.78,34.91 161.64,36.53 166.5,38.15 171.36,39.77 174.6,40.85 176.22,40.31 		"/>
		<g>
			<polygon class="st2" points="171.36,24.65 148.68,32.21 151.92,33.29 156.78,34.91 161.64,36.53 166.5,38.15 171.36,39.77 
				174.6,40.85 176.22,40.31 177.84,39.77 182.7,38.15 187.56,36.53 192.42,34.91 197.28,33.29 174.6,25.73 			"/>
			<g>
				<polygon class="st2" points="179.46,32.75 174.6,31.13 172.98,30.59 158.4,35.45 161.64,36.53 166.5,38.15 171.36,39.77 
					174.6,40.85 176.22,40.31 177.84,39.77 182.7,38.15 187.56,36.53 189.18,35.99 184.32,34.37 				"/>
				<g>
					<polygon class="st2" points="177.84,33.29 172.98,31.67 171.36,31.13 171.33,29.91 171.33,24.66 148.68,32.21 151.92,33.29 
						156.78,34.91 158.4,35.45 161.64,36.53 166.5,38.15 171.36,39.77 174.6,40.85 176.22,40.31 177.84,39.77 182.7,38.15 
						187.56,36.53 182.7,34.91 					"/>
					<polygon class="st15" points="174.6,25.73 172.98,25.19 171.36,24.65 171.33,24.66 171.33,29.91 171.36,31.13 172.98,31.67 
						177.84,33.29 182.7,34.91 187.56,36.53 189.18,35.99 190.8,35.45 192.42,34.91 197.28,33.29 177.84,26.81 					"/>
					<g>
						<polygon class="st2" points="174.6,25.73 172.98,25.19 171.36,24.65 171.33,24.66 166.5,26.27 166.5,38.15 171.36,39.77 
							174.6,40.85 176.22,40.31 177.84,39.77 182.7,38.15 187.56,36.53 189.18,35.99 190.8,35.45 192.42,34.91 197.28,33.29 
							177.84,26.81 						"/>
						<polygon class="st5" points="148.68,32.21 151.92,33.29 156.78,34.91 158.4,35.45 161.64,36.53 166.5,38.15 166.5,26.27 
													"/>
						<polygon class="st16" points="132.48,33.29 132.48,33.29 132.48,33.29 						"/>
						<polygon class="st15" points="148.68,38.69 147.06,38.15 138.96,35.45 132.48,33.29 132.48,34.3 132.48,36.53 166.5,47.87 
							166.5,64.07 166.5,86.75 166.5,89.99 171.36,91.61 171.36,88.37 171.36,85.13 171.36,46.25 						"/>
						<path class="st12" d="M176.22,21.95l-4.86-1.62l-4.86,1.62l-25.92,8.64l-8.1,2.7l0,0l6.48,2.16l8.1,2.7l1.62,0.54l22.68,7.56
							l4.86-1.62l1.62-0.54l3.24-1.08l14.58-4.86l8.1-2.7l1.62-0.54l4.86-1.62L176.22,21.95z M192.42,34.91l-1.62,0.54l-1.62,0.54
							l-1.62,0.54l-4.86,1.62l-4.86,1.62l-1.62,0.54l-1.62,0.54l-3.24-1.08l-4.86-1.62l-4.86-1.62l-3.24-1.08l-1.62-0.54l-4.86-1.62
							l-3.24-1.08l17.82-5.94l4.83-1.61l0.03-0.01l1.62,0.54l1.62,0.54l3.24,1.08l19.44,6.48L192.42,34.91z"/>
					</g>
				</g>
			</g>
		</g>
	</g>
	<g>
		<polygon class="st17" points="130.05,96.2 131.67,96.74 133.29,96.2 136.53,95.12 136.53,92.96 131.67,91.34 126.81,89.72 
			121.95,88.1 121.95,93.5 125.19,94.58 		"/>
		<g>
			<polygon class="st5" points="132.48,33.29 132.48,33.29 132.48,33.29 140.58,30.59 166.5,21.95 166.5,18.71 127.62,31.67 
				127.62,34.91 132.48,36.53 132.48,34.3 			"/>
			<g>
				<polygon class="st18" points="108.18,70.55 103.32,68.93 101.7,68.39 101.7,74.87 122.76,81.89 127.62,83.51 151.92,75.41 
					153.6,74.85 153.6,68.37 127.62,77.03 				"/>
				<polygon class="st5" points="153.54,54.35 143.82,51.11 138.96,49.49 134.1,47.87 129.24,46.25 127.62,45.71 127.62,57.59 
					127.62,77.03 153.6,68.37 153.6,66.25 153.6,54.37 				"/>
			</g>
			<polygon class="st11" points="88.74,47.87 95.22,50.03 101.7,47.87 127.62,39.23 130.86,40.31 158.4,49.49 160.02,50.03 
				166.5,47.87 132.48,36.53 127.62,34.91 			"/>
			<g>
				<polygon class="st17" points="160.02,56.49 160.02,50.03 158.4,49.49 130.86,40.31 127.62,39.23 127.62,45.69 127.62,45.71 
					129.24,46.25 134.1,47.87 138.96,49.49 143.82,51.11 153.54,54.35 153.6,54.37 153.6,66.25 153.6,68.37 153.6,74.85 
					153.6,86.75 160.02,88.89 160.08,88.91 160.08,88.04 160.05,73.79 160.04,68.39 				"/>
				<polygon class="st13" points="160.02,50.03 160.02,56.49 160.08,88.04 160.08,88.91 160.02,88.89 160.02,88.91 142.2,94.85 
					127.62,99.71 127.62,106.19 142.2,101.33 166.5,93.23 166.5,91.61 166.5,89.99 166.5,86.75 166.5,64.07 166.5,47.87 				"/>
			</g>
		</g>
	</g>
</g>
<g id="Layer_3">
	<g>
		<polygon class="st19" points="116.54,35.36 83.88,24.56 83.88,31.11 111.65,40.23 116.59,38.58 		"/>
		<polygon class="st20" points="122.76,36.53 122.76,33.29 116.54,35.36 116.59,38.58 		"/>
	</g>
	<g>
		<polygon class="st1" points="88.74,82.43 87.12,81.89 82.26,80.27 77.4,78.65 72.54,77.03 67.68,75.41 62.82,73.79 57.96,72.17 
			51.48,74.33 83.88,85.13 88.74,83.51 		"/>
		<polygon class="st20" points="88.74,83.51 83.88,85.13 83.88,91.61 88.74,89.99 88.74,86.75 		"/>
	</g>
</g>
<g id="Layer_4">
</g>
<g id="Layer_1">
	<path class="st11" d="M127.62,99.71"/>
	<path class="st11" d="M88.74,93.23"/>
	<polygon class="st21" points="147.06,102.95 142.2,101.33 142.2,94.85 147.06,96.47 151.92,98.09 156.78,99.71 156.78,106.19 	"/>
	<polygon class="st2" points="127.62,38.87 95.22,50.03 95.22,88.91 127.62,99.71 160.02,88.91 160.02,50.03 	"/>
	<path class="st12" d="M171.36,46.25"/>
	<polygon class="st2" points="177.84,44.09 210.24,33.29 171.36,20.33 132.48,33.29 171.36,46.25 	"/>
	<g>
		<polygon class="st2" points="98.46,51.11 95.22,50.03 95.22,88.91 127.62,99.71 160.02,88.91 160.02,50.03 127.62,38.87 
			99.33,48.61 103.32,51.11 		"/>
		<line class="st11" x1="88.74" y1="47.87" x2="95.22" y2="50.03"/>
	</g>
	<g>
		<polygon class="st2" points="95.22,88.91 127.62,99.71 160.02,88.91 160.02,55.56 156.78,55.97 156.78,51.11 160.02,50.03 
			160.02,50.03 127.62,38.87 95.22,50.03 88.74,47.87 95.22,50.03 		"/>
		<polygon class="st2" points="95.22,88.91 127.62,99.71 160.02,88.91 160.02,55.97 160.02,50.03 160.02,50.03 127.62,38.87 
			95.22,50.03 88.74,47.87 95.22,50.03 		"/>
	</g>
	<path class="st11" d="M160.02,55.56"/>
	<g>
		<line class="st13" x1="127.62" y1="99.71" x2="127.62" y2="106.19"/>
		<polygon class="st17" points="95.22,88.91 95.22,50.03 88.74,47.87 88.74,86.75 88.74,93.23 127.62,106.19 127.62,99.71 		"/>
	</g>
	<g>
		<polygon class="st19" points="51.48,35.45 45,33.29 45,78.65 83.88,91.61 83.88,85.13 51.48,74.33 		"/>
		<g>
			<line class="st22" x1="90.36" y1="82.97" x2="90.36" y2="83.14"/>
		</g>
	</g>
	<g>
		<polygon class="st1" points="116.54,35.36 122.76,33.29 83.88,20.33 83.75,20.37 45,33.29 51.48,35.45 51.48,35.36 57.96,33.2 
			80.64,25.64 83.88,24.56 		"/>
		<polygon class="st20" points="80.64,25.64 57.96,33.2 51.48,35.36 51.48,35.45 51.48,74.33 57.96,72.17 57.96,39.77 82.26,31.67 
			83.88,31.13 83.88,31.11 83.88,24.56 		"/>
		<path class="st1" d="M83.88,31.13"/>
	</g>
	<polygon class="st17" points="147.06,102.95 142.2,101.33 142.2,94.85 147.06,96.47 151.92,98.09 156.78,99.71 156.78,106.19 	"/>
	<path class="st13" d="M164.88,104.57"/>
	<g>
		<polygon class="st13" points="156.78,99.71 156.78,106.19 163.26,104.03 163.26,97.55 		"/>
	</g>
	<polygon class="st11" points="160.02,96.47 155.16,94.85 150.3,93.23 148.71,92.7 160.08,88.91 153.6,86.75 148.74,88.37 
		143.88,89.99 142.23,90.54 140.58,89.99 135.72,88.37 130.86,86.75 128.43,85.94 126,86.75 121.95,88.1 124.38,88.91 134.1,92.15 
		135.75,92.7 134.16,93.23 132.54,93.77 127.61,95.39 125.99,94.85 121.12,93.23 117.89,92.15 116.27,91.61 111.41,89.99 
		106.55,88.37 101.69,86.75 95.21,88.91 127.61,99.71 131.17,98.52 132.54,98.09 142.23,94.86 156.78,99.71 163.26,97.55 	"/>
	<g>
		<polygon class="st23" points="148.68,32.21 151.92,33.29 156.78,34.91 158.4,35.45 171.36,31.13 171.36,24.65 		"/>
	</g>
	<g>
		<polygon class="st2" points="187.56,53.81 187.56,53.8 182.71,55.42 182.7,55.43 182.7,55.43 		"/>
		<polygon class="st23" points="210.24,39.77 210.24,33.29 181.08,43.01 177.84,44.09 176.22,44.63 171.36,46.25 171.36,85.13 
			171.36,88.37 171.36,91.61 177.84,89.45 181.08,88.37 181.08,87.29 181.08,54.89 181.08,52.72 181.08,49.49 		"/>
	</g>
	<g>
		<polygon points="187.56,77.56 187.56,79.73 190.8,78.65 190.8,78.66 190.83,78.65 		"/>
		<polygon class="st19" points="182.7,55.43 182.7,55.43 181.08,54.89 181.08,87.29 182.7,87.83 182.7,81.35 		"/>
		<polygon class="st23" points="187.56,79.73 187.56,77.56 187.56,53.81 182.7,55.43 182.7,81.35 182.7,87.83 184.32,87.29 
			185.94,86.75 190.8,85.13 190.8,84.05 190.8,78.66 190.8,78.65 		"/>
	</g>
	<g>
		<g>
			<polygon points="210.23,46.25 205.36,44.63 202.14,45.7 200.49,46.25 200.5,46.26 197.31,47.32 197.29,47.33 202.14,48.95 
				203.78,48.4 			"/>
			<g>
				<polygon points="195.67,77.02 195.68,77.03 195.68,77.02 195.68,77.02 				"/>
				<g>
					<polygon points="200.54,75.41 200.52,75.41 200.52,75.42 					"/>
					<polygon points="195.67,77.02 195.68,77.03 195.68,77.02 195.68,77.02 					"/>
					<polygon class="st17" points="192.42,75.94 192.42,74.86 192.42,52.2 192.42,52.19 187.56,50.57 187.56,52.73 187.56,53.8 
						187.56,53.81 187.56,77.56 190.83,78.65 190.8,78.66 190.8,84.05 192.42,84.59 192.42,78.11 					"/>
				</g>
			</g>
		</g>
		<g>
			<polygon points="210.24,72.17 210.24,72.18 210.27,72.17 207,71.08 207,73.25 			"/>
			<g>
				<polygon class="st4" points="195.67,77.02 195.68,77.03 195.68,77.02 195.68,77.02 				"/>
				<polygon points="197.28,76.49 200.52,75.41 197.28,74.33 197.28,76.48 				"/>
				<g>
					<polygon class="st2" points="195.68,77.03 195.68,77.02 195.67,77.02 					"/>
					<path class="st23" d="M197.28,76.49L197.28,76.49v-2.16v-0.02v0V50.57l-3.24,1.08l-1.62,0.54v0.01v22.66v1.08v2.17v6.48
						l1.62-0.54l1.62-0.54l4.86-1.62v-1.08v-5.39v-0.01L197.28,76.49z M195.68,77.03L195.68,77.03L195.68,77.03L195.68,77.03z"/>
				</g>
				<polygon class="st23" points="207,53.81 210.24,52.73 210.24,46.25 210.23,46.25 203.78,48.4 202.14,48.95 202.14,48.96 
					202.14,55.43 202.14,74.87 202.14,81.35 203.71,80.82 203.76,80.81 205.38,80.27 210.24,78.65 210.24,72.18 210.24,72.17 
					207,73.25 207,71.08 				"/>
			</g>
		</g>
	</g>
	<path class="st11" d="M202.14,48.95"/>
	<g>
		<polygon class="st11" points="189.18,50.02 187.53,50.57 190.74,51.64 192.42,52.2 192.42,52.19 197.28,50.57 192.4,48.94 		"/>
	</g>
	<g>
		<polygon class="st1" points="182.69,52.18 181.08,52.72 181.08,54.89 182.7,55.43 182.71,55.42 187.56,53.81 187.5,53.79 		"/>
	</g>
	<g>
		<polygon class="st4" points="197.28,47.33 197.28,50.57 197.28,54.35 197.28,74.31 197.28,74.31 197.28,74.33 200.52,75.41 
			200.52,75.42 200.52,80.81 202.14,81.35 202.14,74.87 202.14,55.43 202.14,48.96 202.14,48.95 		"/>
	</g>
	<g>
		<polygon class="st2" points="126,104.57 139.77,99.98 130.86,97.01 127.62,95.93 101.7,104.57 113.21,100.73 		"/>
	</g>
</g>
<g id="Layer_2">
	<polygon class="st24" points="127.62,5.75 113.24,10.54 110.84,11.34 88.74,18.71 127.62,31.67 166.5,18.71 144.4,11.34 142,10.54 
			"/>
	<polygon class="st20" points="122.76,36.53 122.76,33.29 116.54,35.36 116.59,38.58 	"/>
	<rect x="96.5" y="126" class="st25" width="61.75" height="0.08"/>
</g>
<g id="Layer_11">
	<path class="st2" d="M188.75,126.08H165.4l-7.15,2.38v-2.38H96.5v2.22l-4.38-1.46l-2.28-0.76H69.75l-24.38-1.4h46.46h71.57H210
		L188.75,126.08z"/>
	<polygon class="st6" points="9.5,9.5 109.23,9.5 110.7,9.01 110.71,9.01 112.23,8.5 8.5,8.5 8.5,135.5 110.87,135.5 110.87,135.5 
		107.87,134.5 9.5,134.5 	"/>
	<polygon class="st8" points="142.68,8.5 144.2,9.01 144.21,9.01 145.68,9.5 242.5,9.5 242.5,134.5 147.37,134.5 144.37,135.5 
		144.37,135.5 243.5,135.5 243.5,135 243.5,8.5 	"/>
	<polygon class="st3" points="117.75,135.38 119.24,135.88 119.25,135.88 127.62,138.67 135.99,135.88 136,135.88 137.49,135.38 
		165.4,126.08 90.33,126.08 	"/>
	<polygon class="st3" points="91.84,124.67 45.38,124.67 69.75,126.08 89.84,126.08 90.33,126.08 92.69,126.25 97.06,127.69 
		96.5,126.08 158.25,126.08 158.25,128.46 165.4,126.08 188.75,126.08 210,124.67 163.4,124.67 	"/>
	<g>
	</g>
</g>
</svg>
