<?xml version="1.0" encoding="utf-8"?>
<!-- Generator: Adobe Illustrator 27.1.1, SVG Export Plug-In . SVG Version: 6.00 Build 0)  -->
<svg version="1.1" xmlns="http://www.w3.org/2000/svg" xmlns:xlink="http://www.w3.org/1999/xlink" x="0px" y="0px"
	 viewBox="0 0 1621 866.5" style="enable-background:new 0 0 1621 866.5;" xml:space="preserve">
<style type="text/css">
	.st0{display:none;}
	.st1{display:inline;stroke:#FFFFFF;stroke-miterlimit:10;}
	.st2{fill:#2FF3E0;}
	.st3{enable-background:new    ;}
	.st4{fill:#FFFFFF;}
	.st5{fill:#F8D210;}
</style>
<g id="Layer_2" class="st0">
	<rect x="-62" y="-47" class="st1" width="1935" height="989"/>
</g>
<g id="svg5" xmlns:svg="http://www.w3.org/2000/svg">
	<g id="layer2" transform="translate(-4.1699667,-76.165289)">
		<path id="path589" class="st2" d="M1098.2,538.4V76.1l132,228.7v233.8L1098.2,538.4z"/>
		<path id="path3625" class="st2" d="M4.1,807.6h1227.1v135H194.4L4.1,807.6z"/>
	</g>
	<g class="st3">
		<path class="st4" d="M7.7,19c0-3.6,1.3-6.7,4-9.4c2.6-2.6,5.8-4,9.4-4h69.3c0.8,0,1.5,0.1,1.9,0.3c0.4-0.2,1.2-0.3,2.2-0.3
			c0.8,0,1.5,0.1,1.9,0.3c0.4-0.2,1.2-0.3,2.2-0.3h69.3c3.6,0,6.7,1.3,9.4,4c2.6,2.7,4,5.8,4,9.4v65.2c0,3.6-1.3,6.7-4,9.4
			c-2.7,2.7-5.8,4-9.4,4c-3.6,0-6.7-1.3-9.4-4c-2.7-2.6-4-5.8-4-9.4V32.1h-47v169.4h19.7c3.6,0,6.7,1.3,9.2,4
			c2.5,2.7,3.8,5.8,3.8,9.4c0,3.6-1.3,6.7-3.8,9.4c-2.5,2.7-5.6,4-9.2,4H61.7c-3.6,0-6.7-1.3-9.4-4c-2.7-2.6-4-5.8-4-9.4
			c0-3.6,1.3-6.7,4-9.4c2.6-2.6,5.8-4,9.4-4h19.4V32.1h-47v52.1c0,3.6-1.3,6.7-3.8,9.4c-2.5,2.7-5.6,4-9.2,4c-3.6,0-6.7-1.3-9.4-4
			c-2.7-2.6-4-5.8-4-9.4V19z"/>
		<path class="st4" d="M207.6,201.5H227V32.1h-19.4c-3.6,0-6.7-1.3-9.4-3.8c-2.7-2.5-4-5.6-4-9.2c0-3.6,1.3-6.7,4-9.4
			c2.6-2.6,5.8-4,9.4-4h101.7c8.7,0,16.8,1.6,24.3,4.9c7.5,3.3,14,7.7,19.5,13.3c5.5,5.6,9.9,12.2,13.2,19.7
			c3.3,7.5,4.9,15.6,4.9,24.3c0,9.5-2.1,18.6-6.2,27.2c-4.1,8.6-10,15.8-17.6,21.8c7.6,5.9,13.5,13.2,17.6,21.8
			c4.1,8.6,6.2,17.6,6.2,27.2v35.6H391c3.6,0,6.7,1.3,9.2,4c2.5,2.7,3.8,5.8,3.8,9.4c0,3.6-1.3,6.7-3.8,9.4c-2.5,2.7-5.6,4-9.2,4
			h-32.7c-3.6,0-6.7-1.3-9.4-4c-2.7-2.6-4-5.8-4-9.4v-48.9c0-4.9-1-9.5-2.9-13.8c-1.9-4.3-4.4-8.1-7.6-11.3
			c-3.2-3.2-6.9-5.7-11.3-7.6c-4.3-1.9-9-2.9-13.8-2.9h-55.9v71.2h19.4c3.6,0,6.7,1.3,9.4,4c2.6,2.7,4,5.8,4,9.4
			c0,3.6-1.3,6.7-4,9.4c-2.7,2.7-5.8,4-9.4,4h-65.2c-3.6,0-6.7-1.3-9.4-4c-2.7-2.6-4-5.8-4-9.4c0-3.6,1.3-6.7,4-9.4
			C200.9,202.8,204,201.5,207.6,201.5z M253.4,103.6h55.9c4.9,0,9.5-1,13.8-2.9c4.3-1.9,8.1-4.4,11.3-7.6c3.2-3.2,5.7-6.9,7.6-11.3
			c1.9-4.3,2.9-8.9,2.9-13.8c0-4.9-1-9.5-2.9-13.8c-1.9-4.3-4.4-8.2-7.6-11.4c-3.2-3.3-6.9-5.9-11.3-7.8c-4.3-1.9-9-2.9-13.8-2.9
			h-55.9V103.6z"/>
		<path class="st4" d="M406.6,214.8c0-3.6,1.3-6.7,4-9.4c2.6-2.6,5.8-4,9.4-4h19.4l70.6-187.2c1.1-2.5,2.7-4.6,4.9-6.2
			c2.2-1.6,4.7-2.4,7.5-2.4c3,0,5.5,0.8,7.6,2.4c2.1,1.6,3.7,3.7,4.8,6.2l70.9,187.2h19.4c3.4,0,6.5,1.4,9.2,4.1
			c2.5,2.1,3.8,5.2,3.8,9.2c0,3.6-1.3,6.7-3.8,9.4c-2.5,2.7-5.6,4-9.2,4h-65.5c-3.6,0-6.7-1.3-9.2-4c-2.5-2.6-3.8-5.8-3.8-9.4
			c0-3.6,1.3-6.7,3.8-9.4c2.5-2.6,5.6-4,9.2-4h17.8l-14.6-38.8h-80.4l-14.6,38.8h17.5c3.6,0,6.7,1.3,9.4,4c2.6,2.7,4,5.8,4,9.4
			c0,3.6-1.3,6.7-4,9.4c-2.7,2.7-5.8,4-9.4,4h-65.2c-3.6,0-6.7-1.3-9.4-4C407.9,221.5,406.6,218.4,406.6,214.8z M492.1,136.3h60.4
			l-30.2-79.8L492.1,136.3z"/>
		<path class="st4" d="M617.6,5.7h65.2c3.6,0,6.7,1.3,9.4,4c2.6,2.7,4,5.8,4,9.4c0,3.6-1.3,6.7-4,9.2c-2.7,2.5-5.8,3.8-9.4,3.8
			h-17.2l36.9,135.1l41-135.1h-16.8c-3.6,0-6.7-1.3-9.4-3.8c-2.7-2.5-4-5.6-4-9.2c0-3.6,1.3-6.7,4-9.4c2.6-2.6,5.8-4,9.4-4h65.2
			c3.6,0,6.7,1.3,9.4,4c2.6,2.7,4,5.8,4,9.4c0,3.6-1.3,6.7-4,9.2c-2.7,2.5-5.8,3.8-9.4,3.8h-20.7l-56.6,186.6c-1.1,3-2.7,5.3-4.9,7
			c-2.2,1.7-4.8,2.5-7.8,2.5h-0.3c-3,0-5.6-0.9-7.9-2.7c-2.3-1.8-3.8-4.2-4.4-7.2L637.9,32.1h-20.3c-3.6,0-6.7-1.3-9.4-3.8
			c-2.7-2.5-4-5.6-4-9.2c0-3.6,1.3-6.7,4-9.4C610.9,7,614,5.7,617.6,5.7z"/>
		<path class="st4" d="M811.1,19c0-3.6,1.3-6.7,4-9.4c2.6-2.6,5.8-4,9.4-4h65.2c3.6,0,6.7,1.3,9.4,4c2.6,2.7,4,5.8,4,9.4
			c0,3.6-1.3,6.7-4,9.2c-2.7,2.5-5.8,3.8-9.4,3.8h-19.4v169.4h19.4c3.6,0,6.7,1.3,9.4,4c2.6,2.7,4,5.8,4,9.4c0,3.6-1.3,6.7-4,9.4
			c-2.7,2.7-5.8,4-9.4,4h-65.2c-3.6,0-6.7-1.3-9.4-4c-2.7-2.6-4-5.8-4-9.4c0-3.6,1.3-6.7,4-9.4c2.6-2.6,5.8-4,9.4-4h19.4V32.1h-19.4
			c-3.6,0-6.7-1.3-9.4-3.8C812.5,25.7,811.1,22.6,811.1,19z"/>
		<path class="st4" d="M1066.7,1.5c3.6,0,6.7,1.3,9.2,4c2.5,2.7,3.8,5.8,3.8,9.4v48.9c0,3.6-1.3,6.7-3.8,9.4c-2.5,2.7-5.6,4-9.2,4
			c-3.6,0-6.7-1.3-9.4-4c-2.7-2.6-4-5.8-4-9.4c0-4.9-1.4-9.5-4.1-13.8c-2.8-4.3-6.5-8.2-11.3-11.4c-4.8-3.3-10.3-5.9-16.7-7.8
			c-6.4-1.9-13-2.9-20-2.9s-13.7,1-20,2.9c-6.4,1.9-11.9,4.5-16.7,7.8c-4.8,3.3-8.5,7.1-11.3,11.4c-2.8,4.3-4.1,9-4.1,13.8
			c0,5.7,1.1,10.5,3.3,14.5c2.2,3.9,5.6,7.4,10.2,10.3c4.6,3,10.3,5.6,17.3,7.9c7,2.3,15.1,4.8,24.5,7.3c8.5,2.1,17.2,4.6,26.1,7.5
			c8.9,2.9,17,6.7,24.3,11.6c7.3,4.9,13.3,11.1,18,18.6c4.7,7.5,7,17,7,28.4c0,8.5-2.1,16.5-6.2,24.2s-9.7,14.3-16.8,19.9
			c-7.1,5.6-15.4,10.1-24.9,13.3c-9.5,3.3-19.7,4.9-30.5,4.9c-9.3,0-18.4-1.3-27.2-4c-8.8-2.6-17.1-6.6-24.9-11.9v2.5
			c0,3.6-1.3,6.7-3.8,9.4c-2.5,2.6-5.6,4-9.2,4c-3.6,0-6.7-1.3-9.4-4c-2.7-2.6-4-5.8-4-9.4V170c0-3.6,1.3-6.7,4-9.4
			c2.6-2.6,5.8-4,9.4-4c3.6,0,6.7,1.3,9.2,4c2.5,2.7,3.8,5.8,3.8,9.4c0,4.9,1.4,9.5,4.1,13.8c2.8,4.3,6.5,8.1,11.3,11.3
			c4.8,3.2,10.3,5.7,16.7,7.6s13,2.9,20,2.9s13.7-1,20-2.9s11.9-4.4,16.7-7.6c4.8-3.2,8.5-6.9,11.3-11.3c2.8-4.3,4.1-8.9,4.1-13.8
			c0-5.7-1.1-10.6-3.3-14.6c-2.2-4-5.7-7.6-10.3-10.6c-4.7-3.1-10.4-5.8-17.3-8.1c-6.9-2.3-15.1-4.8-24.6-7.3
			c-8.3-2.3-16.8-4.9-25.7-7.6c-8.9-2.8-17-6.5-24.3-11.3c-7.3-4.8-13.3-10.9-18-18.3c-4.7-7.4-7-16.8-7-28.3
			c0-8.7,2.1-16.8,6.2-24.3c4.1-7.5,9.7-14.1,16.8-19.7c7.1-5.6,15.4-10.1,24.9-13.3c9.5-3.3,19.7-4.9,30.5-4.9
			c19.3,0,36.7,5.3,52.1,15.9v-2.5c0-3.6,1.3-6.7,4-9.4C1059.9,2.9,1063.1,1.5,1066.7,1.5z"/>
	</g>
	<g class="st3">
		<path class="st4" d="M20.1,446.4h19.4V277H20.1c-3.6,0-6.7-1.3-9.4-3.8c-2.7-2.5-4-5.6-4-9.2c0-3.6,1.3-6.7,4-9.4
			c2.6-2.6,5.8-4,9.4-4h71.2c15.5,0,29.9,2.9,43.4,8.7c13.5,5.8,25.2,13.8,35.3,23.8c10.1,10.1,18,21.9,23.8,35.4
			c5.8,13.6,8.7,28,8.7,43.2c0,15.3-2.9,29.7-8.7,43.2c-5.8,13.6-13.8,25.4-23.8,35.4c-10.1,10.1-21.8,18-35.3,23.8
			c-13.5,5.8-27.9,8.7-43.4,8.7H20.1c-3.6,0-6.7-1.3-9.4-4c-2.7-2.6-4-5.8-4-9.4c0-3.6,1.3-6.7,4-9.4
			C13.4,447.7,16.5,446.4,20.1,446.4z M65.9,277v169.4h25.4c11.9,0,22.9-2.2,33.2-6.7c10.3-4.4,19.2-10.5,26.9-18.1
			c7.6-7.6,13.7-16.6,18.1-26.9c4.4-10.3,6.7-21.2,6.7-32.9c0-11.7-2.2-22.6-6.7-32.9c-4.4-10.3-10.5-19.3-18.1-27
			c-7.6-7.7-16.6-13.8-26.9-18.3c-10.3-4.5-21.3-6.7-33.2-6.7H65.9z"/>
		<path class="st4" d="M205.7,459.8c0-3.6,1.3-6.7,4-9.4c2.6-2.6,5.8-4,9.4-4h19.4V277h-19.4c-3.6,0-6.7-1.3-9.4-3.8
			c-2.7-2.5-4-5.6-4-9.2c0-3.6,1.3-6.7,4-9.4c2.6-2.6,5.8-4,9.4-4h139.8c3.6,0,6.7,1.3,9.2,4c2.5,2.7,3.8,5.8,3.8,9.4v65.2
			c0,3.6-1.3,6.7-3.8,9.4c-2.5,2.7-5.6,4-9.2,4c-3.6,0-6.7-1.3-9.4-4c-2.7-2.6-4-5.8-4-9.4V277h-80.7v71.5h38.8v-19.4
			c0-3.6,1.3-6.7,4-9.4c2.6-2.6,5.8-4,9.4-4c3.6,0,6.7,1.3,9.4,4c2.6,2.7,4,5.8,4,9.4v65.5c0,3.6-1.3,6.7-4,9.2
			c-2.7,2.5-5.8,3.8-9.4,3.8c-3.6,0-6.7-1.3-9.4-3.8c-2.7-2.5-4-5.6-4-9.2v-19.4h-38.8v71.2h80.7v-51.8c0-3.6,1.3-6.7,4-9.4
			c2.6-2.6,5.8-4,9.4-4c3.6,0,6.7,1.3,9.2,4c2.5,2.7,3.8,5.8,3.8,9.4v65.2c0,3.6-1.3,6.7-3.8,9.4c-2.5,2.7-5.6,4-9.2,4H219.1
			c-3.6,0-6.7-1.3-9.4-4C207,466.5,205.7,463.4,205.7,459.8z"/>
		<path class="st4" d="M546.7,246.5c3.6,0,6.7,1.3,9.2,4c2.5,2.7,3.8,5.8,3.8,9.4v48.9c0,3.6-1.3,6.7-3.8,9.4c-2.5,2.7-5.6,4-9.2,4
			c-3.6,0-6.7-1.3-9.4-4c-2.7-2.6-4-5.8-4-9.4c0-4.9-1.4-9.5-4.1-13.8c-2.8-4.3-6.5-8.2-11.3-11.4c-4.8-3.3-10.3-5.9-16.7-7.8
			c-6.4-1.9-13-2.9-20-2.9c-7,0-13.7,1-20,2.9c-6.4,1.9-11.9,4.5-16.7,7.8c-4.8,3.3-8.5,7.1-11.3,11.4c-2.8,4.3-4.1,9-4.1,13.8
			c0,5.7,1.1,10.5,3.3,14.5c2.2,3.9,5.6,7.4,10.2,10.3c4.6,3,10.3,5.6,17.3,7.9c7,2.3,15.1,4.8,24.5,7.3c8.5,2.1,17.2,4.6,26.1,7.5
			s17,6.7,24.3,11.6c7.3,4.9,13.3,11.1,18,18.6c4.7,7.5,7,17,7,28.4c0,8.5-2.1,16.5-6.2,24.2c-4.1,7.6-9.7,14.3-16.8,19.9
			c-7.1,5.6-15.4,10.1-24.9,13.3c-9.5,3.3-19.7,4.9-30.5,4.9c-9.3,0-18.4-1.3-27.2-4c-8.8-2.6-17.1-6.6-24.9-11.9v2.5
			c0,3.6-1.3,6.7-3.8,9.4c-2.5,2.6-5.6,4-9.2,4c-3.6,0-6.7-1.3-9.4-4c-2.7-2.6-4-5.8-4-9.4V415c0-3.6,1.3-6.7,4-9.4
			c2.6-2.6,5.8-4,9.4-4c3.6,0,6.7,1.3,9.2,4c2.5,2.7,3.8,5.8,3.8,9.4c0,4.9,1.4,9.5,4.1,13.8c2.8,4.3,6.5,8.1,11.3,11.3
			c4.8,3.2,10.3,5.7,16.7,7.6s13,2.9,20,2.9c7,0,13.7-1,20-2.9s11.9-4.4,16.7-7.6c4.8-3.2,8.5-6.9,11.3-11.3
			c2.8-4.3,4.1-8.9,4.1-13.8c0-5.7-1.1-10.6-3.3-14.6c-2.2-4-5.7-7.6-10.3-10.6c-4.7-3.1-10.4-5.8-17.3-8.1
			c-6.9-2.3-15.1-4.8-24.6-7.3c-8.3-2.3-16.8-4.9-25.7-7.6c-8.9-2.8-17-6.5-24.3-11.3c-7.3-4.8-13.3-10.9-18-18.3
			c-4.7-7.4-7-16.8-7-28.3c0-8.7,2.1-16.8,6.2-24.3c4.1-7.5,9.7-14.1,16.8-19.7c7.1-5.6,15.4-10.1,24.9-13.3
			c9.5-3.3,19.7-4.9,30.5-4.9c19.3,0,36.7,5.3,52.1,15.9v-2.5c0-3.6,1.3-6.7,4-9.4C540,247.8,543.1,246.5,546.7,246.5z"/>
		<path class="st4" d="M579.5,264c0-3.6,1.3-6.7,4-9.4c2.6-2.6,5.8-4,9.4-4H658c3.6,0,6.7,1.3,9.4,4c2.6,2.7,4,5.8,4,9.4
			c0,3.6-1.3,6.7-4,9.2c-2.7,2.5-5.8,3.8-9.4,3.8h-19.4v169.4H658c3.6,0,6.7,1.3,9.4,4c2.6,2.7,4,5.8,4,9.4c0,3.6-1.3,6.7-4,9.4
			c-2.7,2.7-5.8,4-9.4,4h-65.2c-3.6,0-6.7-1.3-9.4-4c-2.7-2.6-4-5.8-4-9.4c0-3.6,1.3-6.7,4-9.4c2.6-2.6,5.8-4,9.4-4h19.4V277h-19.4
			c-3.6,0-6.7-1.3-9.4-3.8C580.8,270.7,579.5,267.6,579.5,264z"/>
		<path class="st4" d="M676.7,361.9c0-15.9,2.5-30.8,7.6-44.8c5.1-14,12-26.2,20.8-36.7c8.8-10.5,19.1-18.8,30.8-24.8
			c11.8-6,24.3-9.1,37.7-9.1c17.6,0.4,33.6,5.4,48,14.9v-1.6c0-3.6,1.3-6.7,3.8-9.4c2.5-2.6,5.6-4,9.2-4c3.6,0,6.7,1.3,9.4,4
			c2.6,2.7,4,5.8,4,9.4V292c0,2.8-0.8,5.2-2.4,7.5c-1.6,2.2-3.8,3.9-6.5,4.9c-0.8,0.4-2.3,0.6-4.4,0.6c-4.2,0-7.7-1.7-10.5-5.1
			c-6.8-8.7-14.5-15.4-23-20c-8.6-4.7-17.7-7-27.5-7c-9.7,0-18.9,2.3-27.5,7c-8.6,4.7-16,11-22.4,19.1c-6.4,8.1-11.4,17.5-15.1,28.3
			c-3.7,10.8-5.6,22.4-5.6,34.6c0,12.3,1.9,23.8,5.6,34.5c3.7,10.7,8.7,20.1,15.1,28.1c6.4,8.1,13.8,14.4,22.4,19.1
			c8.6,4.7,17.7,7,27.5,7c9.3,0,18.1-2.1,26.4-6.2s15.7-10.2,22.2-18.3v-54h-21.9c-3.6,0-6.7-1.3-9.4-4c-2.7-2.6-4-5.8-4-9.4
			c0-3.6,1.3-6.7,4-9.2c2.6-2.5,5.8-3.8,9.4-3.8h65.2c3.8,0,7,1.3,9.5,3.8c2.5,3,3.8,6,3.8,9.2c0,3.6-1.3,6.7-4,9.4
			c-2.7,2.7-5.8,4-9.4,4h-16.8v87.7c0,3.6-1.3,6.7-3.8,9.4c-2.5,2.7-5.6,4-9.2,4c-3.4,0-6.3-1.1-8.7-3.3c-2.4-2.2-3.9-4.9-4.3-8.1
			c-14.6,10-30.9,15.1-48.9,15.6c-13.3,0-25.9-3-37.7-9.1c-11.8-6-22-14.3-30.8-24.8c-8.8-10.5-15.7-22.7-20.8-36.7
			C679.3,392.7,676.7,377.8,676.7,361.9z"/>
		<path class="st4" d="M893.8,446.4h19.4V277h-19.4c-3.6,0-6.7-1.3-9.4-3.8c-2.7-2.5-4-5.6-4-9.2c0-3.6,1.3-6.7,4-9.4
			c2.6-2.6,5.8-4,9.4-4h34.3c0.2,0.2,0.4,0.3,0.6,0.3h0.6c0.2,0,0.4,0.1,0.6,0.3h0.6c0.2,0.2,0.4,0.3,0.6,0.3h0.3l0.6,0.6h0.6
			l0.6,0.6c0.2,0,0.6,0.2,1.1,0.6c0.5,0.4,0.9,0.8,1.1,1.3c0.4,0,0.6,0.2,0.6,0.6l0.3,0.3c0.2,0.2,0.3,0.4,0.3,0.6l0.6,0.6v0.3
			l90.9,153.8V277h-19.4c-3.6,0-6.7-1.3-9.4-3.8c-2.7-2.5-4-5.6-4-9.2c0-3.6,1.3-6.7,4-9.4c2.6-2.6,5.8-4,9.4-4h65.2
			c3.6,0,6.7,1.3,9.4,4c2.6,2.7,4,5.8,4,9.4c0,3.6-1.3,6.7-4,9.2c-2.7,2.5-5.8,3.8-9.4,3.8h-19.4v182.7c0,3.6-1.3,6.7-4,9.4
			c-2.7,2.7-5.8,4-9.4,4c-2.3,0-4.5-0.6-6.5-1.7c-2-1.2-3.6-2.8-4.6-4.9l-90.9-154.1v134.1h19.4c3.6,0,6.7,1.3,9.4,4
			c2.6,2.7,4,5.8,4,9.4c0,3.6-1.3,6.7-4,9.4c-2.7,2.7-5.8,4-9.4,4h-65.2c-3.6,0-6.7-1.3-9.4-4c-2.7-2.6-4-5.8-4-9.4
			c0-3.6,1.3-6.7,4-9.4C887.1,447.7,890.2,446.4,893.8,446.4z"/>
	</g>
	<g class="st3">
		<path class="st4" d="M158.3,487.5c3.6,0,6.7,1.3,9.2,4c2.5,2.7,3.8,5.8,3.8,9.4v48.9c0,3.6-1.3,6.7-3.8,9.4c-2.5,2.7-5.6,4-9.2,4
			c-3.6,0-6.7-1.3-9.4-4c-2.7-2.6-4-5.8-4-9.4c0-4.9-1.4-9.5-4.1-13.8c-2.8-4.3-6.5-8.2-11.3-11.4c-4.8-3.3-10.3-5.9-16.7-7.8
			c-6.4-1.9-13-2.9-20-2.9c-7,0-13.7,1-20,2.9c-6.4,1.9-11.9,4.5-16.7,7.8c-4.8,3.3-8.5,7.1-11.3,11.4c-2.8,4.3-4.1,9-4.1,13.8
			c0,5.7,1.1,10.5,3.3,14.5c2.2,3.9,5.6,7.4,10.2,10.3c4.6,3,10.3,5.6,17.3,7.9c7,2.3,15.1,4.8,24.5,7.3c8.5,2.1,17.2,4.6,26.1,7.5
			s17,6.7,24.3,11.6c7.3,4.9,13.3,11.1,18,18.6c4.7,7.5,7,17,7,28.4c0,8.5-2.1,16.5-6.2,24.2c-4.1,7.6-9.7,14.3-16.8,19.9
			c-7.1,5.6-15.4,10.1-24.9,13.3c-9.5,3.3-19.7,4.9-30.5,4.9c-9.3,0-18.4-1.3-27.2-4c-8.8-2.6-17.1-6.6-24.9-11.9v2.5
			c0,3.6-1.3,6.7-3.8,9.4c-2.5,2.6-5.6,4-9.2,4c-3.6,0-6.7-1.3-9.4-4c-2.7-2.6-4-5.8-4-9.4V656c0-3.6,1.3-6.7,4-9.4
			c2.6-2.6,5.8-4,9.4-4c3.6,0,6.7,1.3,9.2,4c2.5,2.7,3.8,5.8,3.8,9.4c0,4.9,1.4,9.5,4.1,13.8c2.8,4.3,6.5,8.1,11.3,11.3
			c4.8,3.2,10.3,5.7,16.7,7.6s13,2.9,20,2.9c7,0,13.7-1,20-2.9s11.9-4.4,16.7-7.6c4.8-3.2,8.5-6.9,11.3-11.3
			c2.8-4.3,4.1-8.9,4.1-13.8c0-5.7-1.1-10.6-3.3-14.6c-2.2-4-5.7-7.6-10.3-10.6c-4.7-3.1-10.4-5.8-17.3-8.1
			c-6.9-2.3-15.1-4.8-24.6-7.3c-8.3-2.3-16.8-4.9-25.7-7.6c-8.9-2.8-17-6.5-24.3-11.3c-7.3-4.8-13.3-10.9-18-18.3
			c-4.7-7.4-7-16.8-7-28.3c0-8.7,2.1-16.8,6.2-24.3c4.1-7.5,9.7-14.1,16.8-19.7c7.1-5.6,15.4-10.1,24.9-13.3
			c9.5-3.3,19.7-4.9,30.5-4.9c19.3,0,36.7,5.3,52.1,15.9v-2.5c0-3.6,1.3-6.7,4-9.4C151.6,488.8,154.7,487.5,158.3,487.5z"/>
		<path class="st4" d="M289.9,487.5c13.1,0,25.4,3,36.9,9.1c11.4,6,21.5,14.3,30,24.8c8.6,10.5,15.4,22.7,20.3,36.7
			c5,14,7.5,28.9,7.5,44.8s-2.5,30.8-7.5,44.8c-5,14-11.8,26.2-20.3,36.7c-8.6,10.5-18.6,18.8-30,24.8c-11.4,6-23.7,9.1-36.9,9.1
			c-13.1,0-25.5-3-37-9.1c-11.6-6-21.6-14.3-30.2-24.8c-8.6-10.5-15.4-22.7-20.3-36.7c-5-14-7.5-28.9-7.5-44.8s2.5-30.8,7.5-44.8
			c5-14,11.8-26.2,20.3-36.7c8.6-10.5,18.6-18.8,30.2-24.8C264.4,490.5,276.8,487.5,289.9,487.5z M289.9,691.6
			c9.3,0,18.2-2.3,26.5-7c8.4-4.7,15.6-11,21.8-19.1c6.1-8,11-17.4,14.6-28.1c3.6-10.7,5.4-22.2,5.4-34.5c0-12.3-1.8-23.8-5.4-34.6
			c-3.6-10.8-8.5-20.2-14.6-28.3c-6.1-8-13.4-14.4-21.8-19.1c-8.4-4.7-17.2-7-26.5-7c-9.5,0-18.4,2.3-26.7,7
			c-8.3,4.7-15.5,11-21.8,19.1c-6.3,8.1-11.2,17.5-14.8,28.3c-3.6,10.8-5.4,22.4-5.4,34.6c0,12.3,1.8,23.8,5.4,34.5
			c3.6,10.7,8.5,20.1,14.8,28.1c6.2,8.1,13.5,14.4,21.8,19.1C271.5,689.2,280.4,691.6,289.9,691.6z"/>
		<path class="st4" d="M403.7,687.4h19.4V518h-19.4c-3.6,0-6.7-1.3-9.4-3.8c-2.7-2.5-4-5.6-4-9.2c0-3.6,1.3-6.7,4-9.4
			c2.6-2.6,5.8-4,9.4-4h65.2c3.6,0,6.7,1.3,9.4,4c2.6,2.7,4,5.8,4,9.4c0,3.6-1.3,6.7-4,9.2c-2.7,2.5-5.8,3.8-9.4,3.8h-19.4v169.4
			h80.7v-51.8c0-3.6,1.3-6.7,4-9.4c2.6-2.6,5.8-4,9.4-4c3.6,0,6.7,1.3,9.2,4c2.5,2.7,3.8,5.8,3.8,9.4v65.2c0,3.6-1.3,6.7-3.8,9.4
			c-2.5,2.7-5.6,4-9.2,4H403.7c-3.6,0-6.7-1.3-9.4-4c-2.7-2.6-4-5.8-4-9.4c0-3.6,1.3-6.7,4-9.4C397,688.8,400.1,687.4,403.7,687.4z"
			/>
		<path class="st4" d="M553.4,505c0-3.6,1.3-6.7,4-9.4c2.6-2.6,5.8-4,9.4-4h65.2c3.6,0,6.7,1.3,9.4,4c2.6,2.7,4,5.8,4,9.4
			c0,3.6-1.3,6.7-4,9.2c-2.7,2.5-5.8,3.8-9.4,3.8h-19.4v128.4c0,5.7,1.1,11.1,3.2,16.1c2.1,5,5.1,9.3,8.9,13
			c3.8,3.7,8.2,6.6,13.2,8.7c5,2.1,10.3,3.2,16,3.2s11.1-1.1,16-3.2c5-2.1,9.4-5,13.2-8.7c3.8-3.7,6.8-8,8.9-13
			c2.1-5,3.2-10.3,3.2-16.1V518h-19.4c-3.6,0-6.7-1.3-9.4-3.8c-2.7-2.5-4-5.6-4-9.2c0-3.6,1.3-6.7,4-9.4c2.6-2.6,5.8-4,9.4-4h65.2
			c3.6,0,6.7,1.3,9.4,4c2.6,2.7,4,5.8,4,9.4c0,3.6-1.3,6.7-4,9.2c-2.7,2.5-5.8,3.8-9.4,3.8h-19.4v128.4c0,9.3-1.7,18.1-5.2,26.2
			c-3.5,8.2-8.3,15.3-14.5,21.5c-6.1,6.1-13.3,11-21.6,14.6c-8.3,3.6-17.1,5.4-26.4,5.4c-9.3,0-18.1-1.8-26.4-5.4
			c-8.3-3.6-15.5-8.5-21.6-14.6c-6.1-6.1-11-13.3-14.5-21.5c-3.5-8.2-5.2-16.9-5.2-26.2V518h-19.4c-3.6,0-6.7-1.3-9.4-3.8
			C554.7,511.7,553.4,508.6,553.4,505z"/>
		<path class="st4" d="M763.5,505c0-3.6,1.3-6.7,4-9.4c2.6-2.6,5.8-4,9.4-4h69.3c0.8,0,1.5,0.1,1.9,0.3c0.4-0.2,1.2-0.3,2.2-0.3
			c0.8,0,1.5,0.1,1.9,0.3c0.4-0.2,1.2-0.3,2.2-0.3h69.3c3.6,0,6.7,1.3,9.4,4c2.6,2.7,4,5.8,4,9.4v65.2c0,3.6-1.3,6.7-4,9.4
			c-2.7,2.7-5.8,4-9.4,4c-3.6,0-6.7-1.3-9.4-4c-2.7-2.6-4-5.8-4-9.4V518h-47v169.4H883c3.6,0,6.7,1.3,9.2,4c2.5,2.7,3.8,5.8,3.8,9.4
			c0,3.6-1.3,6.7-3.8,9.4c-2.5,2.7-5.6,4-9.2,4h-65.5c-3.6,0-6.7-1.3-9.4-4c-2.7-2.6-4-5.8-4-9.4c0-3.6,1.3-6.7,4-9.4
			c2.6-2.6,5.8-4,9.4-4h19.4V518h-47v52.1c0,3.6-1.3,6.7-3.8,9.4c-2.5,2.7-5.6,4-9.2,4c-3.6,0-6.7-1.3-9.4-4c-2.7-2.6-4-5.8-4-9.4
			V505z"/>
		<path class="st4" d="M950,505c0-3.6,1.3-6.7,4-9.4c2.6-2.6,5.8-4,9.4-4h65.2c3.6,0,6.7,1.3,9.4,4c2.6,2.7,4,5.8,4,9.4
			c0,3.6-1.3,6.7-4,9.2c-2.7,2.5-5.8,3.8-9.4,3.8h-19.4v169.4h19.4c3.6,0,6.7,1.3,9.4,4c2.6,2.7,4,5.8,4,9.4c0,3.6-1.3,6.7-4,9.4
			c-2.7,2.7-5.8,4-9.4,4h-65.2c-3.6,0-6.7-1.3-9.4-4c-2.7-2.6-4-5.8-4-9.4c0-3.6,1.3-6.7,4-9.4c2.6-2.6,5.8-4,9.4-4h19.4V518h-19.4
			c-3.6,0-6.7-1.3-9.4-3.8C951.4,511.7,950,508.6,950,505z"/>
		<path class="st4" d="M1142.3,487.5c13.1,0,25.4,3,36.9,9.1c11.4,6,21.5,14.3,30,24.8c8.6,10.5,15.4,22.7,20.3,36.7
			c5,14,7.5,28.9,7.5,44.8s-2.5,30.8-7.5,44.8c-5,14-11.8,26.2-20.3,36.7c-8.6,10.5-18.6,18.8-30,24.8c-11.4,6-23.7,9.1-36.9,9.1
			c-13.1,0-25.5-3-37-9.1c-11.6-6-21.6-14.3-30.2-24.8c-8.6-10.5-15.4-22.7-20.3-36.7c-5-14-7.5-28.9-7.5-44.8s2.5-30.8,7.5-44.8
			c5-14,11.8-26.2,20.3-36.7c8.6-10.5,18.6-18.8,30.2-24.8C1116.8,490.5,1129.2,487.5,1142.3,487.5z M1142.3,691.6
			c9.3,0,18.2-2.3,26.5-7c8.4-4.7,15.6-11,21.8-19.1c6.1-8,11-17.4,14.6-28.1c3.6-10.7,5.4-22.2,5.4-34.5c0-12.3-1.8-23.8-5.4-34.6
			c-3.6-10.8-8.5-20.2-14.6-28.3c-6.1-8-13.4-14.4-21.8-19.1c-8.4-4.7-17.2-7-26.5-7c-9.5,0-18.4,2.3-26.7,7
			c-8.3,4.7-15.5,11-21.8,19.1c-6.3,8.1-11.2,17.5-14.8,28.3c-3.6,10.8-5.4,22.4-5.4,34.6c0,12.3,1.8,23.8,5.4,34.5
			c3.6,10.7,8.5,20.1,14.8,28.1c6.2,8.1,13.5,14.4,21.8,19.1C1123.9,689.2,1132.8,691.6,1142.3,691.6z"/>
		<path class="st4" d="M1256.1,687.4h19.4V518h-19.4c-3.6,0-6.7-1.3-9.4-3.8c-2.7-2.5-4-5.6-4-9.2c0-3.6,1.3-6.7,4-9.4
			c2.6-2.6,5.8-4,9.4-4h34.3c0.2,0.2,0.4,0.3,0.6,0.3h0.6c0.2,0,0.4,0.1,0.6,0.3h0.6c0.2,0.2,0.4,0.3,0.6,0.3h0.3l0.6,0.6h0.6
			l0.6,0.6c0.2,0,0.6,0.2,1.1,0.6c0.5,0.4,0.9,0.8,1.1,1.3c0.4,0,0.6,0.2,0.6,0.6l0.3,0.3c0.2,0.2,0.3,0.4,0.3,0.6l0.6,0.6v0.3
			l90.9,153.8V518h-19.4c-3.6,0-6.7-1.3-9.4-3.8c-2.7-2.5-4-5.6-4-9.2c0-3.6,1.3-6.7,4-9.4c2.6-2.6,5.8-4,9.4-4h65.2
			c3.6,0,6.7,1.3,9.4,4c2.6,2.7,4,5.8,4,9.4c0,3.6-1.3,6.7-4,9.2c-2.7,2.5-5.8,3.8-9.4,3.8h-19.4v182.7c0,3.6-1.3,6.7-4,9.4
			c-2.7,2.7-5.8,4-9.4,4c-2.3,0-4.5-0.6-6.5-1.7c-2-1.2-3.6-2.8-4.6-4.9l-90.9-154.1v134.1h19.4c3.6,0,6.7,1.3,9.4,4
			c2.6,2.7,4,5.8,4,9.4c0,3.6-1.3,6.7-4,9.4c-2.7,2.7-5.8,4-9.4,4h-65.2c-3.6,0-6.7-1.3-9.4-4c-2.7-2.6-4-5.8-4-9.4
			c0-3.6,1.3-6.7,4-9.4C1249.4,688.8,1252.5,687.4,1256.1,687.4z"/>
		<path class="st4" d="M1607.9,487.5c3.6,0,6.7,1.3,9.2,4c2.5,2.7,3.8,5.8,3.8,9.4v48.9c0,3.6-1.3,6.7-3.8,9.4c-2.5,2.7-5.6,4-9.2,4
			c-3.6,0-6.7-1.3-9.4-4c-2.7-2.6-4-5.8-4-9.4c0-4.9-1.4-9.5-4.1-13.8c-2.8-4.3-6.5-8.2-11.3-11.4c-4.8-3.3-10.3-5.9-16.7-7.8
			c-6.4-1.9-13-2.9-20-2.9s-13.7,1-20,2.9c-6.4,1.9-11.9,4.5-16.7,7.8c-4.8,3.3-8.5,7.1-11.3,11.4c-2.8,4.3-4.1,9-4.1,13.8
			c0,5.7,1.1,10.5,3.3,14.5c2.2,3.9,5.6,7.4,10.2,10.3c4.6,3,10.3,5.6,17.3,7.9c7,2.3,15.1,4.8,24.5,7.3c8.5,2.1,17.2,4.6,26.1,7.5
			c8.9,2.9,17,6.7,24.3,11.6c7.3,4.9,13.3,11.1,18,18.6c4.7,7.5,7,17,7,28.4c0,8.5-2.1,16.5-6.2,24.2s-9.7,14.3-16.8,19.9
			c-7.1,5.6-15.4,10.1-24.9,13.3c-9.5,3.3-19.7,4.9-30.5,4.9c-9.3,0-18.4-1.3-27.2-4c-8.8-2.6-17.1-6.6-24.9-11.9v2.5
			c0,3.6-1.3,6.7-3.8,9.4c-2.5,2.6-5.6,4-9.2,4c-3.6,0-6.7-1.3-9.4-4c-2.7-2.6-4-5.8-4-9.4V656c0-3.6,1.3-6.7,4-9.4
			c2.6-2.6,5.8-4,9.4-4c3.6,0,6.7,1.3,9.2,4c2.5,2.7,3.8,5.8,3.8,9.4c0,4.9,1.4,9.5,4.1,13.8c2.8,4.3,6.5,8.1,11.3,11.3
			c4.8,3.2,10.3,5.7,16.7,7.6s13,2.9,20,2.9s13.7-1,20-2.9s11.9-4.4,16.7-7.6c4.8-3.2,8.5-6.9,11.3-11.3c2.8-4.3,4.1-8.9,4.1-13.8
			c0-5.7-1.1-10.6-3.3-14.6c-2.2-4-5.7-7.6-10.3-10.6c-4.7-3.1-10.4-5.8-17.3-8.1c-6.9-2.3-15.1-4.8-24.6-7.3
			c-8.3-2.3-16.8-4.9-25.7-7.6c-8.9-2.8-17-6.5-24.3-11.3c-7.3-4.8-13.3-10.9-18-18.3c-4.7-7.4-7-16.8-7-28.3
			c0-8.7,2.1-16.8,6.2-24.3c4.1-7.5,9.7-14.1,16.8-19.7c7.1-5.6,15.4-10.1,24.9-13.3c9.5-3.3,19.7-4.9,30.5-4.9
			c19.3,0,36.7,5.3,52.1,15.9v-2.5c0-3.6,1.3-6.7,4-9.4C1601.2,488.8,1604.3,487.5,1607.9,487.5z"/>
	</g>
	<path class="st5" d="M1184.9,819.1c-5.5,0-10.3-1.9-14.3-5.8c-4-3.9-6.1-8.6-6.1-14.1c0-5.5,2-10.3,6.1-14.3c4-4,8.8-6.1,14.3-6.1
		c5.5,0,10.1,1.9,14.1,6.1c3.9,4.2,5.8,8.8,5.8,14.3c0,5.5-1.9,10.2-5.8,14.1S1190.4,819.1,1184.9,819.1z"/>
	<path class="st5" d="M1328.7,728.5c2,0,3.9,0.8,5.7,2.3c1.5,1.5,2.3,3.4,2.3,5.7v19.2c0,3.7-1.8,6.1-5.3,7.4
		c-0.5,0.3-1.4,0.4-2.7,0.4c-2.5,0-4.6-1-6.3-3c-4.1-5.2-8.6-9.2-13.8-12c-5.1-2.8-10.6-4.2-16.4-4.2c-5.8,0-11.3,1.4-16.4,4.2
		c-5.1,2.8-9.6,6.6-13.4,11.4c-3.8,4.8-6.8,10.4-9,16.9c-2.2,6.5-3.3,13.4-3.3,20.7c0,7.3,1.1,14.2,3.3,20.6c2.2,6.4,5.2,12,9,16.8
		c3.8,4.8,8.3,8.6,13.4,11.4c5.1,2.8,10.6,4.2,16.4,4.2c5.8,0,11.3-1.4,16.4-4.1c5.1-2.7,9.7-6.7,13.8-11.9c0.8-1,1.7-1.8,2.8-2.4
		c1.1-0.6,2.3-0.9,3.4-0.9c1.8,0,3.4,0.6,4.9,1.7c1.8,1.4,2.8,3.2,3,5.3c0.3,2.2-0.3,4.1-1.7,5.9c-5.4,7.1-11.9,12.6-19.3,16.4
		c-7.4,3.9-15.2,5.8-23.5,5.8c-8,0-15.5-1.8-22.5-5.4c-7-3.6-13.2-8.5-18.4-14.8c-5.3-6.3-9.4-13.6-12.4-21.9s-4.6-17.3-4.6-26.8
		s1.5-18.4,4.6-26.8s7.2-15.7,12.4-21.9c5.3-6.3,11.4-11.2,18.4-14.8c7-3.6,14.5-5.4,22.5-5.4c10.5,0.3,20.1,3.2,28.7,8.9v-1
		c0-2.2,0.8-4,2.3-5.6C1324.7,729.3,1326.5,728.5,1328.7,728.5z"/>
	<path class="st5" d="M1402.4,728.5c7.9,0,15.2,1.8,22,5.4c6.8,3.6,12.8,8.5,17.9,14.8c5.1,6.3,9.2,13.6,12.2,21.9
		c3,8.4,4.5,17.3,4.5,26.8s-1.5,18.4-4.5,26.8c-3,8.4-7,15.7-12.2,21.9c-5.1,6.3-11.1,11.2-17.9,14.8c-6.8,3.6-14.2,5.4-22,5.4
		c-7.9,0-15.2-1.8-22.1-5.4c-6.9-3.6-12.9-8.5-18-14.8c-5.1-6.3-9.2-13.6-12.2-21.9c-3-8.4-4.5-17.3-4.5-26.8s1.5-18.4,4.5-26.8
		c3-8.4,7-15.7,12.2-21.9c5.1-6.3,11.1-11.2,18-14.8C1387.1,730.3,1394.5,728.5,1402.4,728.5z M1402.4,850.5
		c5.6,0,10.9-1.4,15.9-4.2c5-2.8,9.3-6.6,13-11.4c3.7-4.8,6.6-10.4,8.7-16.8c2.2-6.4,3.2-13.3,3.2-20.6c0-7.3-1.1-14.2-3.2-20.7
		c-2.2-6.5-5.1-12.1-8.7-16.9c-3.7-4.8-8-8.6-13-11.4c-5-2.8-10.3-4.2-15.9-4.2c-5.7,0-11,1.4-16,4.2c-4.9,2.8-9.3,6.6-13,11.4
		c-3.7,4.8-6.7,10.4-8.8,16.9c-2.2,6.5-3.2,13.4-3.2,20.7c0,7.3,1.1,14.2,3.2,20.6c2.2,6.4,5.1,12,8.8,16.8c3.7,4.8,8.1,8.6,13,11.4
		C1391.4,849.1,1396.7,850.5,1402.4,850.5z"/>
	<path class="st5" d="M1591,746.8V848h11.6c2.2,0,4,0.8,5.6,2.4c1.6,1.6,2.4,3.5,2.4,5.6c0,2.2-0.8,4-2.4,5.6
		c-1.6,1.6-3.5,2.4-5.6,2.4h-38.9c-2.2,0-4-0.8-5.6-2.4c-1.6-1.6-2.4-3.4-2.4-5.6c0-2.2,0.8-4,2.4-5.6c1.6-1.6,3.4-2.4,5.6-2.4h11.6
		v-67.8l-31.3,78.8c-0.1,0.3-0.2,0.4-0.3,0.6c-0.1,0.1-0.2,0.3-0.5,0.6c0,0.3-0.2,0.6-0.6,1c-0.3,0.3-0.6,0.5-0.9,0.8
		c-0.1,0.4-0.4,0.6-0.8,0.8c-0.1,0.1-0.5,0.3-1.1,0.6c-0.1,0-0.2,0-0.2,0.1c0,0.1-0.1,0.1-0.2,0.1h-0.2c-0.1,0-0.3,0.1-0.4,0.2
		c-0.3,0.1-0.6,0.2-0.9,0.2h-0.4c-0.1,0.1-0.4,0.2-0.9,0.2c-0.5,0-0.8-0.1-0.9-0.2h-0.4c-0.4,0-0.8-0.1-1.1-0.2
		c-0.1-0.1-0.3-0.2-0.4-0.2c-0.1,0-0.3-0.1-0.6-0.4c-0.8,0-1.4-0.4-1.9-1.1l-0.9-1c-0.1-0.1-0.2-0.3-0.2-0.4c0-0.1-0.1-0.3-0.4-0.6
		c-0.1-0.3-0.2-0.4-0.3-0.5c-0.1-0.1-0.2-0.2-0.3-0.5l-31.3-78.8V848h11.6c2.2,0,4,0.8,5.6,2.4c1.6,1.6,2.4,3.5,2.4,5.6
		c0,2.2-0.8,4-2.4,5.6c-1.6,1.6-3.5,2.4-5.6,2.4h-38.9c-2.2,0-4-0.8-5.6-2.4c-1.6-1.6-2.4-3.4-2.4-5.6c0-2.2,0.8-4,2.4-5.6
		c1.6-1.6,3.4-2.4,5.6-2.4h11.6V746.8h-11.6c-2.2,0-4-0.8-5.6-2.3c-1.6-1.5-2.4-3.4-2.4-5.5c0-2.2,0.8-4,2.4-5.6
		c1.6-1.6,3.4-2.4,5.6-2.4h19.6h0.8c0.1,0,0.3,0.1,0.4,0.2h0.4h0.4c0,0.1,0.2,0.2,0.6,0.2c0.1,0.1,0.2,0.2,0.3,0.2
		c0.1,0,0.2,0.1,0.3,0.2c0.1,0,0.2,0,0.3,0.1c0.1,0.1,0.2,0.1,0.3,0.1c0.1,0,0.2,0,0.2,0.1c0,0.1,0.1,0.1,0.2,0.1
		c0.1,0.1,0.3,0.2,0.4,0.2l0.6,0.6c0.1,0,0.3,0.1,0.6,0.4c0.1,0.1,0.2,0.2,0.2,0.3c0,0.1,0.1,0.2,0.4,0.3l0.2,0.4
		c0-0.1,0.1,0.1,0.4,0.6c0-0.1,0.1,0.1,0.4,0.6c0,0.1,0,0.2,0.1,0.3c0.1,0.1,0.1,0.2,0.1,0.3l39.3,98.8l39.3-98.8l0.4-0.8
		c0,0.1,0.1-0.1,0.4-0.6c0-0.1,0-0.2,0.1-0.2c0.1,0,0.1-0.1,0.1-0.2l0.4-0.4c0.3-0.3,0.4-0.4,0.4-0.6h0.2c0-0.3,0.2-0.4,0.6-0.6
		l0.4-0.4l0.8-0.4c0.1,0,0.3-0.1,0.6-0.4c0.3,0,0.5-0.1,0.8-0.2c0.3,0,0.4-0.1,0.4-0.2h0.4h0.4c0.1-0.1,0.3-0.2,0.4-0.2h0.4h0.6
		h19.6c2.2,0,4,0.8,5.5,2.4c1.5,1.6,2.3,3.5,2.3,5.6c0,2.2-0.8,4-2.3,5.5s-3.4,2.3-5.5,2.3H1591z"/>
</g>
</svg>
