<?xml version="1.0" encoding="utf-8"?>
<!-- Generator: Adobe Illustrator 27.1.1, SVG Export Plug-In . SVG Version: 6.00 Build 0)  -->
<svg version="1.1" id="Layer_1" xmlns="http://www.w3.org/2000/svg" xmlns:xlink="http://www.w3.org/1999/xlink" x="0px" y="0px"
	 viewBox="0 0 467 155.5" style="enable-background:new 0 0 467 155.5;" xml:space="preserve">
<style type="text/css">
	.st0{fill:none;}
	.st1{fill:#FFFFFF;}
	.st2{fill:#010101;}
</style>
<g id="XMLID_7_">
	<rect id="XMLID_00000040547987167456476810000007646840009641007245_" x="31.46" y="57" class="st0" width="72.28" height="124"/>
	<path class="st1" d="M49.82,66.9H31.37v-6.66h44.91v6.66H57.74v54h-7.92V66.9z"/>
</g>
<path id="XMLID_84_" class="st2" d="M168.96,58.15c0,0.15-0.56,0.15-0.56,0c0.2-1.73,0.71-6.99,0.71-9.23c0-0.31,0.56-0.36,0.56,0
	c0,1.02,1.78,1.12,2.75,1.12c2.91,0.1,6.43,0.15,10.25,0.15c4.79,0,7.19-0.15,9.84-0.15c2.29,0,3.52-0.2,3.88-1.27
	c0.05-0.25,0.56-0.25,0.56,0c-0.2,2.04-0.46,7.75-0.46,9.38c0,0.15-0.61,0.15-0.61,0c-0.2-5.3-1.99-7.19-6.53-7.19
	c-4.28,0-4.95,0.25-4.95,3.31v23.51c0,2.96,0.66,3.52,4.95,3.52c0.2,0,0.2,0.61,0,0.61c-1.78,0-4.03-0.1-6.68-0.1
	c-2.5,0-4.79,0.1-6.63,0.1c-0.15,0-0.15-0.61,0-0.61c4.23,0,5-0.56,5-3.52V54.17c0-3.06-0.76-3.21-4.95-3.21
	C171.81,50.96,169.88,52.95,168.96,58.15z"/>
<path id="XMLID_86_" class="st2" d="M216.59,62.84c-1.68,0-2.86,1.07-3.93,3.93l-6.22,16.57c-3.72,9.84-6.58,12.9-11.02,12.9
	c-1.43,0-2.6-0.61-2.6-1.99c0-1.02,0.76-1.53,1.58-1.53c1.94,0,2.19,1.22,3.88,1.22c2.4,0,4.28-2.8,7.6-11.63l-7.75-15.86
	c-1.53-2.96-2.09-3.62-3.37-3.62c-0.15,0-0.15-0.61,0-0.61c1.12,0,2.35,0.1,3.42,0.1c2.24,0,3.88-0.1,5.25-0.1
	c0.15,0,0.15,0.61,0,0.61c-2.19,0-3.52,0.41-2.7,1.99l6.73,13.82l4.08-11.73c1.02-3.06,0.1-4.08-3.52-4.08c-0.15,0-0.15-0.61,0-0.61
	c1.63,0,2.8,0.1,5.15,0.1c1.48,0,2.14-0.1,3.42-0.1C216.79,62.23,216.79,62.84,216.59,62.84z"/>
<path id="XMLID_88_" class="st2" d="M238.16,77.58c0,2.8,0.61,3.26,4.08,3.26h5.56c3.98,0,6.22-2.7,6.94-6.73
	c0-0.2,0.56-0.15,0.56,0.05c-0.2,1.89-0.46,4.79-0.46,6.99c0,0.56-0.15,0.76-0.77,0.76h-23.56c-0.15,0-0.15-0.61,0-0.61
	c3.72,0,4.33-0.56,4.33-3.52V54.17c0-2.91-0.61-3.52-4.33-3.52c-0.15,0-0.15-0.61,0-0.61c1.63,0,3.72,0.15,5.97,0.15
	c2.35,0,4.44-0.15,6.02-0.15c0.2,0,0.2,0.61,0,0.61c-3.67,0-4.33,0.66-4.33,3.57V77.58z"/>
<path id="XMLID_90_" class="st2" d="M257.75,71.81c0-7.04,5.92-10.25,10.86-10.25c6.22,0,9.89,5.2,9.89,10.5
	c0,6.48-5,10.5-10.81,10.5C261.62,82.57,257.75,77.58,257.75,71.81z M275.04,73.5c0-6.43-3.37-10.96-8.11-10.96
	c-3.62,0-5.76,2.7-5.76,7.7c0,6.27,3.26,11.37,8.01,11.37C272.74,81.61,275.04,79.21,275.04,73.5z"/>
<path id="XMLID_93_" class="st2" d="M305.58,81.91c-1.17,0-2.86-0.1-4.59-0.1c-1.78,0-3.47,0.1-4.64,0.1c-0.2,0-0.2-0.61,0-0.61
	c2.65,0,3.16-0.61,3.16-3.52v-8.26c0-4.03-1.48-5.86-4.69-5.86c-2.09,0-4.33,1.17-6.12,3.16v10.96c0,2.91,0.51,3.52,3.16,3.52
	c0.2,0,0.2,0.61,0,0.61c-1.17,0-2.86-0.1-4.59-0.1c-1.79,0-3.47,0.1-4.64,0.1c-0.2,0-0.2-0.61,0-0.61c2.65,0,3.16-0.61,3.16-3.52
	v-10.1c0-2.24-0.46-3.26-1.78-3.26c-0.66,0-1.58,0.31-2.75,0.76c-0.31,0.1-0.56-0.41-0.25-0.56l5.92-2.8
	c0.15-0.05,0.26-0.05,0.31-0.05c0.51,0,1.48,1.48,1.48,4.18c2.6-3.01,5.1-4.39,7.8-4.39c3.77,0,5.92,2.14,5.92,6.22v10
	c0,2.91,0.51,3.52,3.16,3.52C305.79,81.3,305.79,81.91,305.58,81.91z"/>
<path id="XMLID_95_" class="st2" d="M328.53,85.89c0,5.66-6.12,10.3-12.65,10.3c-4.79,0-7.55-2.4-7.55-5.61
	c0-2.6,1.84-5.05,5.25-7.45c-2.4-0.31-3.98-1.17-3.98-3.42c0-2.19,1.33-3.62,3.67-5.46c-2.35-1.17-3.67-3.37-3.67-5.76
	c0-3.77,3.26-6.63,8.11-6.63c2.35,0,4.08,0.61,5.3,1.58c1.73-1.02,3.37-1.63,5.46-1.63c0.15,0,0.25,0.61,0.25,1.12
	c0,0.76-0.2,1.89-0.46,1.73c-0.66-0.25-1.89-0.76-3.42-0.76c-0.46,0-0.87,0.05-1.22,0.1c1.17,1.28,1.73,2.86,1.73,4.39
	c0,3.57-3.16,6.73-8.01,6.73c-1.22,0-2.35-0.2-3.31-0.56c-1.43,1.17-1.89,2.14-1.89,3.31c0,2.19,1.89,2.8,7.39,2.8
	C322.87,80.74,328.53,80.53,328.53,85.89z M325.98,87.83c0-4.28-3.37-4.44-8.16-4.44c-1.07,0-2.14-0.05-3.06-0.1
	c-2.04,1.27-3.47,2.86-3.47,5.61c0,3.52,2.4,5.76,6.68,5.76C322.62,94.66,325.98,92.06,325.98,87.83z M312.78,67.28
	c0,4.79,2.91,7.09,5.56,7.09c2.14,0,3.82-1.38,3.82-4.84c0-4.33-2.55-6.88-5.66-6.88C314.25,62.63,312.78,63.96,312.78,67.28z"/>
<path id="XMLID_99_" class="st2" d="M363.37,62.84c-1.63,0-2.7,0.92-3.88,3.72l-6.32,15.3c-0.15,0.25-1.02,0.25-1.12,0l-5.76-12.39
	l-5.2,12.39c-0.1,0.25-1.02,0.25-1.12,0l-7.14-15.4c-1.43-3.06-2.14-3.62-3.42-3.62c-0.2,0-0.2-0.61,0-0.61
	c1.02,0,2.24,0.1,3.52,0.1c2.14,0,3.72-0.1,5.25-0.1c0.2,0,0.2,0.61,0,0.61c-2.14,0-3.52,0.41-2.75,1.99l6.22,13.11l4.03-9.69
	l-0.82-1.78c-1.38-3.01-2.04-3.62-3.32-3.62c-0.15,0-0.15-0.61,0-0.61c1.02,0,2.19,0.1,3.42,0.1c2.29,0,3.88-0.1,5.25-0.1
	c0.2,0,0.2,0.61,0,0.61c-2.04,0-3.52,0.41-2.7,1.99l6.17,13.21l4.79-11.73c1.02-2.45-0.1-3.47-3.67-3.47c-0.15,0-0.15-0.61,0-0.61
	c1.63,0,2.8,0.1,5.15,0.1c1.48,0,2.14-0.1,3.42-0.1C363.57,62.23,363.57,62.84,363.37,62.84z"/>
<path id="XMLID_101_" class="st2" d="M365.46,71.81c0-7.04,5.92-10.25,10.86-10.25c6.22,0,9.89,5.2,9.89,10.5
	c0,6.48-5,10.5-10.81,10.5C369.33,82.57,365.46,77.58,365.46,71.81z M382.75,73.5c0-6.43-3.37-10.96-8.11-10.96
	c-3.62,0-5.76,2.7-5.76,7.7c0,6.27,3.26,11.37,8.01,11.37C380.45,81.61,382.75,79.21,382.75,73.5z"/>
<path id="XMLID_104_" class="st2" d="M405.24,63.86c0,0.87-0.56,1.58-1.68,1.58c-1.43,0-1.73-1.53-3.42-1.53
	c-0.82,0-1.48,0.36-3.72,2.96v10.91c0,2.91,0.76,3.52,4.95,3.52c0.25,0,0.25,0.61,0,0.61c-1.63,0-3.98-0.1-6.38-0.1
	c-1.78,0-3.47,0.1-4.64,0.1c-0.2,0-0.2-0.61,0-0.61c2.65,0,3.16-0.61,3.16-3.52v-10.1c0-2.24-0.46-3.26-1.79-3.26
	c-0.66,0-1.58,0.31-2.75,0.76c-0.31,0.1-0.56-0.41-0.25-0.56l5.92-2.8c0.15-0.05,0.25-0.05,0.31-0.05c0.51,0,1.48,1.48,1.48,4.18V66
	c2.86-3.31,4.23-4.23,5.66-4.23S405.24,62.69,405.24,63.86z"/>
<path id="XMLID_106_" class="st2" d="M422.73,79.82c-2.5,1.94-4.33,2.7-6.53,2.7c-2.5,0-4.9-0.97-4.9-4.18V66.36
	c0-2.5-0.31-2.8-2.6-2.8c-0.25,0-0.25-0.66,0-0.66c2.75-0.05,4.54-1.58,4.79-3.88c0-0.2,0.76-0.2,0.76,0v3.77
	c2.35-0.05,4.54-0.25,7.09-0.51c0.15,0,0.36,0.56,0.36,1.22c0,0.51-0.31,1.28-0.56,1.22c-2.35-0.61-4.49-0.76-6.88-0.82v12.7
	c0,2.8,1.48,4.13,4.03,4.13c1.79,0,3.16-0.71,4.08-1.43C422.63,79.16,422.98,79.62,422.73,79.82z"/>
<path id="XMLID_108_" class="st2" d="M448.18,81.91c-1.22,0-2.86-0.1-4.64-0.1c-1.78,0-3.42,0.1-4.64,0.1c-0.2,0-0.2-0.61,0-0.61
	c2.65,0,3.21-0.61,3.21-3.52v-8.11c0-4.03-1.53-5.92-4.69-5.92c-2.14,0-4.39,1.17-6.17,3.16v10.86c0,2.91,0.56,3.52,3.21,3.52
	c0.2,0,0.2,0.61,0,0.61c-1.22,0-2.86-0.1-4.64-0.1c-1.78,0-3.42,0.1-4.64,0.1c-0.2,0-0.2-0.61,0-0.61c2.65,0,3.21-0.61,3.21-3.52
	V51.42c0-2.4-0.41-3.47-1.63-3.47c-0.56,0-1.33,0.25-2.35,0.71c-0.25,0.15-0.56-0.46-0.25-0.56l6.48-3.16h0.15
	c0.26,0,0.46,0.2,0.46,0.41v20.7c2.6-3.01,5.1-4.33,7.85-4.33c3.72,0,5.86,2.09,5.86,6.17v9.89c0,2.91,0.56,3.52,3.21,3.52
	C448.38,81.3,448.38,81.91,448.18,81.91z"/>
<path id="XMLID_110_" class="st2" d="M175.36,110.82c0.1,0,0.1,0.31,0,0.31c-1.12,0-2.39-0.05-3.93-0.05
	c-1.14,0-2.24,0.05-3.09,0.05c-0.1,0-0.1-0.31,0-0.31c1.82,0,2.13-0.29,2.13-1.79V96.99c0-1.48-0.31-1.79-2.13-1.79
	c-0.1,0-0.1-0.31,0-0.31c0.86,0,1.92,0.08,3.07,0.08c0.88,0,2.31-0.16,3.61-0.16c2.99,0,5.3,1.25,5.36,4.26
	c0.05,3.64-3.07,5.25-5.72,5.25c-0.44,0-0.86-0.03-1.27-0.13c-0.1-0.03-0.05-0.36,0.08-0.34c0.29,0.08,0.65,0.1,0.91,0.1
	c2,0,3.85-1.38,3.85-4.34c0-2.81-1.61-4.39-3.87-4.39c-1.56,0-1.98,0.16-1.98,1.82v11.88C172.37,110.49,172.76,110.82,175.36,110.82
	z"/>
<path id="XMLID_112_" class="st2" d="M193.9,111.14c-0.65,0-1.51-0.05-2.42-0.05c-0.94,0-1.79,0.05-2.42,0.05
	c-0.1,0-0.1-0.31,0-0.31c1.3,0,1.59-0.34,1.59-1.79v-4.06c0-2.03-0.73-2.99-2.34-2.99c-1.04,0-2.16,0.57-3.02,1.51v5.54
	c0,1.46,0.29,1.79,1.61,1.79c0.1,0,0.1,0.31,0,0.31c-0.65,0-1.51-0.05-2.42-0.05c-0.94,0-1.79,0.05-2.42,0.05
	c-0.1,0-0.1-0.31,0-0.31c1.3,0,1.59-0.34,1.59-1.79V95.64c0-1.22-0.21-1.77-0.81-1.77c-0.29,0-0.65,0.13-1.14,0.36
	c-0.16,0.05-0.29-0.26-0.16-0.31l3.41-1.64h0.08c0.13,0,0.26,0.13,0.26,0.23v10.5c1.27-1.48,2.57-2.21,4-2.21
	c1.9,0,2.99,1.14,2.99,3.2v5.02c0,1.46,0.29,1.79,1.61,1.79C194.01,110.82,194.01,111.14,193.9,111.14z"/>
<path id="XMLID_114_" class="st2" d="M195.33,105.99c0-3.59,3.04-5.23,5.59-5.23c3.2,0,5.1,2.65,5.1,5.36c0,3.3-2.57,5.36-5.56,5.36
	C197.31,111.48,195.33,108.93,195.33,105.99z M204.04,106.87c0-3.35-1.72-5.59-3.98-5.59c-1.77,0-2.78,1.33-2.78,3.87
	c0,3.25,1.61,5.82,3.93,5.82C202.95,110.98,204.04,109.71,204.04,106.87z"/>
<path id="XMLID_117_" class="st2" d="M215.2,109.99c-1.27,1.04-2.24,1.46-3.41,1.46c-1.27,0-2.52-0.49-2.52-2.18v-6.06
	c0-1.22-0.21-1.43-1.35-1.43c-0.1,0-0.1-0.36,0-0.36c1.48-0.03,2.42-0.78,2.63-2c0.03-0.1,0.39-0.1,0.39,0v1.98
	c1.17-0.03,2.26-0.13,3.56-0.26c0.1,0,0.18,0.29,0.18,0.6c0,0.29-0.13,0.68-0.26,0.65c-1.2-0.29-2.29-0.36-3.48-0.39v6.4
	c0,1.43,0.75,2.08,2.03,2.08c0.88,0,1.59-0.36,2.08-0.73C215.14,109.66,215.33,109.89,215.2,109.99z"/>
<path id="XMLID_119_" class="st2" d="M216.63,105.99c0-3.59,3.04-5.23,5.59-5.23c3.2,0,5.1,2.65,5.1,5.36c0,3.3-2.57,5.36-5.56,5.36
	C218.6,111.48,216.63,108.93,216.63,105.99z M225.34,106.87c0-3.35-1.72-5.59-3.98-5.59c-1.77,0-2.78,1.33-2.78,3.87
	c0,3.25,1.61,5.82,3.93,5.82C224.24,110.98,225.34,109.71,225.34,106.87z"/>
<path id="XMLID_122_" class="st2" d="M239.38,113.11c0,2.91-3.09,5.33-6.47,5.33c-2.42,0-3.87-1.25-3.87-2.89
	c0-1.3,0.88-2.52,2.65-3.74c-1.17-0.18-1.98-0.65-1.98-1.79c0-1.07,0.65-1.87,1.87-2.78c-1.25-0.6-1.95-1.74-1.95-2.96
	c0-1.98,1.82-3.35,4.24-3.35c1.17,0,2.05,0.31,2.7,0.81c0.88-0.52,1.72-0.86,2.78-0.86c0.1,0,0.16,0.31,0.16,0.62
	c0,0.39-0.13,1.01-0.26,0.94c-0.39-0.18-1.01-0.39-1.77-0.39c-0.18,0-0.36,0-0.55,0.03c0.57,0.62,0.86,1.4,0.86,2.18
	c0,1.87-1.74,3.43-4.19,3.43c-0.6,0-1.14-0.1-1.64-0.26c-0.65,0.52-0.88,0.99-0.88,1.56c0,1.2,1.01,1.46,3.69,1.46
	C236.57,110.46,239.38,110.38,239.38,113.11z M237.92,114.23c0-2.21-1.69-2.29-4.11-2.31c-0.52,0-1.04,0-1.51-0.05
	c-0.96,0.62-1.64,1.4-1.64,2.73c0,1.9,1.3,3.04,3.41,3.04C236.33,117.64,237.92,116.34,237.92,114.23z M231.39,103.62
	c0,2.42,1.43,3.67,2.76,3.67c1.01,0,1.85-0.7,1.85-2.47c0-2.21-1.33-3.48-2.81-3.48C232.1,101.33,231.39,102.01,231.39,103.62z"/>
<path id="XMLID_126_" class="st2" d="M248.71,102.01c0,0.47-0.34,0.86-0.91,0.86c-0.81,0-0.94-0.83-1.79-0.83
	c-0.42,0-0.73,0.18-1.82,1.4v5.59c0,1.46,0.42,1.79,2.5,1.79c0.1,0,0.1,0.31,0,0.31c-0.88,0-2.05-0.05-3.33-0.05
	c-0.91,0-1.77,0.05-2.39,0.05c-0.1,0-0.1-0.31,0-0.31c1.3,0,1.56-0.34,1.56-1.79v-5.1c0-1.12-0.23-1.64-0.88-1.64
	c-0.34,0-0.78,0.16-1.38,0.39c-0.16,0.05-0.26-0.23-0.13-0.29l3.12-1.51c0.08-0.03,0.13-0.03,0.16-0.03c0.29,0,0.75,0.73,0.78,2.11
	c1.46-1.66,2.16-2.11,2.89-2.11S248.71,101.36,248.71,102.01z"/>
<path id="XMLID_128_" class="st2" d="M259.81,110.02l-2.68,1.27c-0.05,0.03-0.13,0.05-0.23,0.05c-0.42,0-0.86-0.6-0.99-1.69
	l-1.3,0.86c-0.83,0.57-1.46,0.81-2.21,0.81c-1.38,0-2.08-0.81-2.08-1.79c0-1.17,0.94-1.82,2.78-2.5l2.78-1.01v-1.72
	c0-2.16-0.6-2.96-1.59-2.96c-1.3,0-1.74,1.22-1.87,1.95c-0.08,0.6-0.34,1.14-1.07,1.14c-0.65,0-0.94-0.39-0.94-0.81
	c0-1.38,3.07-2.78,4.84-2.78c1.43,0,2.24,0.94,2.24,2.68v4.81c0,1.17,0.31,1.72,1.01,1.72c0.31,0,0.7-0.1,1.2-0.31
	C259.86,109.68,259.97,109.94,259.81,110.02z M255.89,109.27v-0.16v-2.73l-2.18,0.88c-0.88,0.34-1.43,0.81-1.43,1.59
	c0,0.81,0.57,1.43,1.43,1.43c0.34,0,0.65-0.08,1.17-0.39L255.89,109.27z"/>
<path id="XMLID_131_" class="st2" d="M272.19,105.55c0,4.24-3.3,5.93-5.62,5.93c-1.07,0-1.82-0.16-2.68-0.6v5.3
	c0,1.48,0.39,1.79,2.57,1.79c0.08,0,0.08,0.31,0,0.31c-0.96,0-2.11-0.05-3.38-0.05c-0.91,0-1.79,0.05-2.42,0.05
	c-0.1,0-0.1-0.31,0-0.31c1.35,0,1.59-0.31,1.59-1.79v-12.19c0-1.17-0.21-1.72-0.91-1.72c-0.31,0-0.78,0.13-1.35,0.39
	c-0.13,0.05-0.29-0.23-0.16-0.29l3.04-1.46c0.05-0.03,0.13-0.05,0.18-0.05c0.42,0,0.78,0.7,0.83,2.05c1.48-1.51,2.83-2.16,4.29-2.16
	C270.29,100.76,272.19,102.5,272.19,105.55z M270.34,106.35c0-2.96-1.48-4.52-3.38-4.52c-1.25,0-2.18,0.65-3.07,1.56v5.9
	c0.83,0.96,1.77,1.61,3.41,1.61C269.04,110.9,270.34,109.32,270.34,106.35z"/>
<path id="XMLID_134_" class="st2" d="M285.63,111.14c-0.65,0-1.51-0.05-2.42-0.05c-0.94,0-1.79,0.05-2.42,0.05
	c-0.1,0-0.1-0.31,0-0.31c1.3,0,1.59-0.34,1.59-1.79v-4.06c0-2.03-0.73-2.99-2.34-2.99c-1.04,0-2.16,0.57-3.02,1.51v5.54
	c0,1.46,0.29,1.79,1.61,1.79c0.1,0,0.1,0.31,0,0.31c-0.65,0-1.51-0.05-2.42-0.05c-0.94,0-1.79,0.05-2.42,0.05
	c-0.1,0-0.1-0.31,0-0.31c1.3,0,1.59-0.34,1.59-1.79V95.64c0-1.22-0.21-1.77-0.81-1.77c-0.29,0-0.65,0.13-1.14,0.36
	c-0.16,0.05-0.29-0.26-0.16-0.31l3.41-1.64h0.08c0.13,0,0.26,0.13,0.26,0.23v10.5c1.27-1.48,2.57-2.21,4-2.21
	c1.9,0,2.99,1.14,2.99,3.2v5.02c0,1.46,0.29,1.79,1.61,1.79C285.73,110.82,285.73,111.14,285.63,111.14z"/>
<path id="XMLID_136_" class="st2" d="M297.41,101.41c-0.94,0-1.53,0.62-2.11,2.13l-3.12,8.32c-1.9,5.02-3.38,6.58-5.59,6.58
	c-0.78,0-1.38-0.34-1.38-1.07c0-0.57,0.44-0.86,0.91-0.86c0.96,0,1.07,0.62,1.92,0.62c1.25,0,2.13-1.4,3.82-5.77l-4-8.11
	c-0.78-1.51-1.07-1.85-1.72-1.85c-0.08,0-0.08-0.31,0-0.31c0.57,0,1.25,0.05,1.82,0.05c1.17,0,2-0.05,2.73-0.05
	c0.08,0,0.08,0.31,0,0.31c-1.14,0-1.77,0.21-1.35,1.01l3.35,6.92l2-5.75c0.55-1.56,0.05-2.18-1.72-2.18c-0.08,0-0.08-0.31,0-0.31
	c0.83,0,1.43,0.05,2.63,0.05c0.75,0,1.12-0.05,1.79-0.05C297.51,101.1,297.51,101.41,297.41,101.41z"/>
<g id="XMLID_3_">
	<path id="XMLID_4_" d="M90.13,9.33c-37.37,0-67.67,30.3-67.67,67.67s30.3,67.67,67.67,67.67c0.27,0,0.53-0.02,0.8-0.02V9.35
		C90.66,9.35,90.4,9.33,90.13,9.33z"/>
	<path id="XMLID_9_" d="M157.79,77c0-35.07-26.69-63.91-60.86-67.33v134.65C131.11,140.91,157.79,112.07,157.79,77z"/>
</g>
<g id="XMLID_33_">
</g>
<g id="XMLID_80_">
	<path id="XMLID_81_" class="st1" d="M146.82,97.32l-5.25,14.54h-37.31l0.01-0.9h1.14c3.15,0,5.71-2.52,5.76-5.66V55.42
		c-0.06-3.13-2.62-5.66-5.77-5.66h-1.14l-0.01-0.9h19.69l-0.01,0.9h-1.14c-3.15,0-5.71,2.52-5.77,5.66v53.68h12.91
		c9.54,0,13.2-4.93,15.98-11.79L146.82,97.32z"/>
</g>
<g id="XMLID_77_">
	<path id="XMLID_78_" class="st1" d="M74.5,48.51c3.89-0.02,9.15-0.93,10.84-1.64v11.31l-0.91-0.01v-1.6c0-2.89-2.28-5.24-5.13-5.36
		H62.24v53.9c0.1,3.1,2.64,5.59,5.76,5.59h1.14l0.01,0.9h-19.7l0.01-0.9h1.14c3.1,0,5.63-2.45,5.76-5.51V51.21H39.3
		c-2.85,0.12-5.13,2.47-5.13,5.36v1.6l-0.91,0.01V46.87c1.69,0.71,6.95,1.62,10.84,1.64H74.5z"/>
</g>
<g>
</g>
<g>
</g>
<g>
</g>
<g>
</g>
<g>
</g>
<g>
</g>
</svg>
